Pridi-700.ufo
<glyph name="exclam" format="1">
  <advance width="249"/>
  <unicode hex="0021"/>
  <note>
	exclam
  </note>
  <outline>
    <contour>
      <point x="214" y="227" type="line"/>
      <point x="221" y="647" type="line"/>
      <point x="28" y="647" type="line"/>
      <point x="35" y="227" type="line"/>
    </contour>
    <contour>
      <point x="224" y="0" type="line"/>
      <point x="224" y="133" type="line"/>
      <point x="25" y="133" type="line"/>
      <point x="25" y="0" type="line"/>
    </contour>
  </outline>
</glyph>
<glyph name="quotedbl" format="1">
  <advance width="431"/>
  <unicode hex="0022"/>
  <note>
	quotedbl
  </note>
  <outline>
    <contour>
      <point x="392" y="497" type="line"/>
      <point x="406" y="721" type="line"/>
      <point x="249" y="721" type="line"/>
      <point x="263" y="497" type="line"/>
    </contour>
    <contour>
      <point x="168" y="497" type="line"/>
      <point x="182" y="721" type="line"/>
      <point x="25" y="721" type="line"/>
      <point x="39" y="497" type="line"/>
    </contour>
  </outline>
</glyph>
<glyph name="numbersign" format="1">
  <advance width="750"/>
  <unicode hex="0023"/>
  <note>
	numbersign
  </note>
  <outline>
    <contour>
      <point x="240" y="0" type="line"/>
      <point x="276" y="163" type="line"/>
      <point x="403" y="163" type="line"/>
      <point x="367" y="0" type="line"/>
      <point x="521" y="0" type="line"/>
      <point x="557" y="163" type="line"/>
      <point x="698" y="163" type="line"/>
      <point x="698" y="279" type="line"/>
      <point x="583" y="279" type="line"/>
      <point x="608" y="388" type="line"/>
      <point x="725" y="388" type="line"/>
      <point x="725" y="505" type="line"/>
      <point x="634" y="505" type="line"/>
      <point x="666" y="647" type="line"/>
      <point x="512" y="647" type="line"/>
      <point x="480" y="505" type="line"/>
      <point x="353" y="505" type="line"/>
      <point x="385" y="647" type="line"/>
      <point x="230" y="647" type="line"/>
      <point x="198" y="505" type="line"/>
      <point x="52" y="505" type="line"/>
      <point x="52" y="388" type="line"/>
      <point x="172" y="388" type="line"/>
      <point x="147" y="279" type="line"/>
      <point x="25" y="279" type="line"/>
      <point x="25" y="163" type="line"/>
      <point x="121" y="163" type="line"/>
      <point x="85" y="0" type="line"/>
    </contour>
    <contour>
      <point x="327" y="388" type="line"/>
      <point x="454" y="388" type="line"/>
      <point x="429" y="279" type="line"/>
      <point x="302" y="279" type="line"/>
    </contour>
  </outline>
</glyph>
<glyph name="dollar" format="1">
  <advance width="576"/>
  <unicode hex="0024"/>
  <note>
	dollar
  </note>
  <outline>
    <contour>
      <point x="361" y="-120" type="line"/>
      <point x="361" y="-10" type="line"/>
      <point x="485" y="8"/>
      <point x="551" y="82"/>
      <point x="551" y="173" type="curve" smooth="yes"/>
      <point x="551" y="293"/>
      <point x="483" y="323"/>
      <point x="332" y="385" type="curve" smooth="yes"/>
      <point x="281" y="406"/>
      <point x="213" y="430"/>
      <point x="213" y="485" type="curve" smooth="yes"/>
      <point x="213" y="530"/>
      <point x="242" y="545"/>
      <point x="285" y="545" type="curve" smooth="yes"/>
      <point x="311" y="545"/>
      <point x="332" y="541"/>
      <point x="354" y="528" type="curve"/>
      <point x="354" y="460" type="line"/>
      <point x="540" y="460" type="line"/>
      <point x="540" y="572" type="line"/>
      <point x="497" y="610"/>
      <point x="444" y="645"/>
      <point x="361" y="657" type="curve"/>
      <point x="361" y="767" type="line"/>
      <point x="196" y="767" type="line"/>
      <point x="196" y="651" type="line"/>
      <point x="99" y="630"/>
      <point x="30" y="573"/>
      <point x="30" y="478" type="curve" smooth="yes"/>
      <point x="30" y="369"/>
      <point x="106" y="320"/>
      <point x="239" y="262" type="curve" smooth="yes"/>
      <point x="324" y="225"/>
      <point x="368" y="208"/>
      <point x="368" y="163" type="curve" smooth="yes"/>
      <point x="368" y="119"/>
      <point x="343" y="102"/>
      <point x="295" y="102" type="curve" smooth="yes"/>
      <point x="260" y="102"/>
      <point x="235" y="107"/>
      <point x="211" y="120" type="curve"/>
      <point x="211" y="197" type="line"/>
      <point x="25" y="197" type="line"/>
      <point x="25" y="72" type="line"/>
      <point x="69" y="35"/>
      <point x="126" y="7"/>
      <point x="196" y="-6" type="curve"/>
      <point x="196" y="-120" type="line"/>
    </contour>
  </outline>
</glyph>
<glyph name="ampersand" format="1">
  <advance width="718"/>
  <unicode hex="0026"/>
  <note>
	ampersand
  </note>
  <outline>
    <contour>
      <point x="364" y="-15"/>
      <point x="411" y="-6"/>
      <point x="461" y="28" type="curve"/>
      <point x="489" y="0" type="line"/>
      <point x="693" y="0" type="line"/>
      <point x="572" y="123" type="line"/>
      <point x="597" y="165"/>
      <point x="604" y="202"/>
      <point x="604" y="254" type="curve" smooth="yes"/>
      <point x="604" y="273"/>
      <point x="609" y="280"/>
      <point x="628" y="280" type="curve" smooth="yes"/>
      <point x="658" y="280" type="line"/>
      <point x="658" y="392" type="line"/>
      <point x="441" y="392" type="line"/>
      <point x="441" y="272" type="line"/>
      <point x="319" y="399" type="line" smooth="yes"/>
      <point x="287" y="433"/>
      <point x="254" y="462"/>
      <point x="254" y="500" type="curve" smooth="yes"/>
      <point x="254" y="538"/>
      <point x="268" y="549"/>
      <point x="282" y="549" type="curve" smooth="yes"/>
      <point x="296" y="549"/>
      <point x="307" y="538"/>
      <point x="307" y="520" type="curve" smooth="yes"/>
      <point x="307" y="478" type="line"/>
      <point x="491" y="478" type="line"/>
      <point x="491" y="497" type="line" smooth="yes"/>
      <point x="491" y="589"/>
      <point x="423" y="662"/>
      <point x="281" y="662" type="curve" smooth="yes"/>
      <point x="140" y="662"/>
      <point x="71" y="598"/>
      <point x="71" y="500" type="curve" smooth="yes"/>
      <point x="71" y="452"/>
      <point x="97" y="408"/>
      <point x="146" y="361" type="curve"/>
      <point x="65" y="316"/>
      <point x="25" y="257"/>
      <point x="25" y="172" type="curve" smooth="yes"/>
      <point x="25" y="53"/>
      <point x="131" y="-15"/>
      <point x="288" y="-15" type="curve" smooth="yes"/>
    </contour>
    <contour>
      <point x="246" y="98"/>
      <point x="209" y="124"/>
      <point x="209" y="172" type="curve" smooth="yes"/>
      <point x="209" y="211"/>
      <point x="220" y="233"/>
      <point x="246" y="256" type="curve"/>
      <point x="374" y="118" type="line"/>
      <point x="347" y="103"/>
      <point x="324" y="98"/>
      <point x="288" y="98" type="curve" smooth="yes"/>
    </contour>
  </outline>
</glyph>
<glyph name="quotesingle" format="1">
  <advance width="228"/>
  <unicode hex="0027"/>
  <note>
	quotesingle
  </note>
  <outline>
    <contour>
      <point x="189" y="497" type="line"/>
      <point x="203" y="721" type="line"/>
      <point x="25" y="721" type="line"/>
      <point x="39" y="497" type="line"/>
    </contour>
  </outline>
</glyph>
<glyph name="parenleft" format="1">
  <advance width="399"/>
  <unicode hex="0028"/>
  <note>
	parenleft
  </note>
  <outline>
    <contour>
      <point x="374" y="-75" type="line"/>
      <point x="246" y="42"/>
      <point x="207" y="168"/>
      <point x="207" y="316" type="curve" smooth="yes"/>
      <point x="207" y="460"/>
      <point x="255" y="592"/>
      <point x="374" y="707" type="curve"/>
      <point x="171" y="707" type="line"/>
      <point x="75" y="609"/>
      <point x="25" y="479"/>
      <point x="25" y="316" type="curve" smooth="yes"/>
      <point x="25" y="153"/>
      <point x="75" y="23"/>
      <point x="171" y="-75" type="curve"/>
    </contour>
  </outline>
</glyph>
<glyph name="parenright" format="1">
  <advance width="399"/>
  <unicode hex="0029"/>
  <note>
	parenright
  </note>
  <outline>
    <contour>
      <point x="228" y="-75" type="line"/>
      <point x="324" y="23"/>
      <point x="374" y="153"/>
      <point x="374" y="316" type="curve" smooth="yes"/>
      <point x="374" y="479"/>
      <point x="324" y="609"/>
      <point x="228" y="707" type="curve"/>
      <point x="25" y="707" type="line"/>
      <point x="153" y="590"/>
      <point x="192" y="464"/>
      <point x="192" y="316" type="curve" smooth="yes"/>
      <point x="192" y="172"/>
      <point x="144" y="40"/>
      <point x="25" y="-75" type="curve"/>
    </contour>
  </outline>
</glyph>
<glyph name="asterisk" format="1">
  <advance width="448"/>
  <unicode hex="002A"/>
  <note>
	asterisk
  </note>
  <outline>
    <contour>
      <point x="224" y="448" type="line"/>
      <point x="272" y="372" type="line"/>
      <point x="386" y="449" type="line"/>
      <point x="327" y="521" type="line"/>
      <point x="423" y="546" type="line"/>
      <point x="377" y="670" type="line"/>
      <point x="299" y="635" type="line"/>
      <point x="303" y="721" type="line"/>
      <point x="145" y="721" type="line"/>
      <point x="147" y="636" type="line"/>
      <point x="70" y="671" type="line"/>
      <point x="25" y="546" type="line"/>
      <point x="120" y="521" type="line"/>
      <point x="63" y="449" type="line"/>
      <point x="176" y="371" type="line"/>
    </contour>
  </outline>
</glyph>
<glyph name="plus" format="1">
  <advance width="414"/>
  <unicode hex="002B"/>
  <note>
	plus
  </note>
  <outline>
    <contour>
      <point x="277" y="153" type="line"/>
      <point x="277" y="252" type="line"/>
      <point x="389" y="252" type="line"/>
      <point x="389" y="368" type="line"/>
      <point x="277" y="368" type="line"/>
      <point x="277" y="467" type="line"/>
      <point x="135" y="467" type="line"/>
      <point x="135" y="368" type="line"/>
      <point x="25" y="368" type="line"/>
      <point x="25" y="252" type="line"/>
      <point x="135" y="252" type="line"/>
      <point x="135" y="153" type="line"/>
    </contour>
  </outline>
</glyph>
<glyph name="comma" format="1">
  <advance width="258"/>
  <unicode hex="002C"/>
  <note>
	comma
  </note>
  <outline>
    <contour>
      <point x="160" y="-121" type="line"/>
      <point x="233" y="116" type="line"/>
      <point x="62" y="116" type="line"/>
      <point x="25" y="-121" type="line"/>
    </contour>
  </outline>
</glyph>
<glyph name="hyphen" format="1">
  <advance width="366"/>
  <unicode hex="002D"/>
  <note>
	hyphen
  </note>
  <outline>
    <contour>
      <point x="341" y="241" type="line"/>
      <point x="341" y="358" type="line"/>
      <point x="25" y="358" type="line"/>
      <point x="25" y="241" type="line"/>
    </contour>
  </outline>
</glyph>
<glyph name="period" format="1">
  <advance width="178"/>
  <unicode hex="002E"/>
  <note>
	period
  </note>
  <outline>
    <contour>
      <point x="153" y="0" type="line"/>
      <point x="153" y="116" type="line"/>
      <point x="25" y="116" type="line"/>
      <point x="25" y="0" type="line"/>
    </contour>
  </outline>
</glyph>
<glyph name="slash" format="1">
  <advance width="487"/>
  <unicode hex="002F"/>
  <note>
	slash
  </note>
  <outline>
    <contour>
      <point x="212" y="0" type="line"/>
      <point x="462" y="676" type="line"/>
      <point x="275" y="676" type="line"/>
      <point x="25" y="0" type="line"/>
    </contour>
  </outline>
</glyph>
<glyph name="zero" format="1">
  <advance width="634"/>
  <unicode hex="0030"/>
  <note>
	zero
  </note>
  <outline>
    <contour>
      <point x="523" y="-16"/>
      <point x="619" y="98"/>
      <point x="619" y="324" type="curve" smooth="yes"/>
      <point x="619" y="549"/>
      <point x="523" y="660"/>
      <point x="317" y="660" type="curve" smooth="yes"/>
      <point x="111" y="660"/>
      <point x="15" y="549"/>
      <point x="15" y="324" type="curve" smooth="yes"/>
      <point x="15" y="98"/>
      <point x="111" y="-16"/>
      <point x="317" y="-16" type="curve" smooth="yes"/>
    </contour>
    <contour>
      <point x="244" y="101"/>
      <point x="198" y="159"/>
      <point x="198" y="324" type="curve" smooth="yes"/>
      <point x="198" y="487"/>
      <point x="244" y="543"/>
      <point x="317" y="543" type="curve" smooth="yes"/>
      <point x="390" y="543"/>
      <point x="436" y="487"/>
      <point x="436" y="324" type="curve" smooth="yes"/>
      <point x="436" y="159"/>
      <point x="390" y="101"/>
      <point x="317" y="101" type="curve" smooth="yes"/>
    </contour>
  </outline>
</glyph>
<glyph name="one" format="1">
  <advance width="441"/>
  <unicode hex="0031"/>
  <note>
	one
  </note>
  <outline>
    <contour>
      <point x="426" y="0" type="line"/>
      <point x="426" y="116" type="line"/>
      <point x="374" y="116" type="line" smooth="yes"/>
      <point x="346" y="116"/>
      <point x="333" y="129"/>
      <point x="333" y="156" type="curve" smooth="yes"/>
      <point x="333" y="647" type="line"/>
      <point x="188" y="647" type="line"/>
      <point x="15" y="538" type="line"/>
      <point x="82" y="428" type="line"/>
      <point x="149" y="469" type="line"/>
      <point x="149" y="156" type="line" smooth="yes"/>
      <point x="149" y="129"/>
      <point x="136" y="116"/>
      <point x="108" y="116" type="curve" smooth="yes"/>
      <point x="56" y="116" type="line"/>
      <point x="56" y="0" type="line"/>
    </contour>
  </outline>
</glyph>
<glyph name="two" format="1">
  <advance width="556"/>
  <unicode hex="0032"/>
  <note>
	two
  </note>
  <outline>
    <contour>
      <point x="523" y="0" type="line"/>
      <point x="523" y="116" type="line"/>
      <point x="213" y="116" type="line"/>
      <point x="213" y="178"/>
      <point x="276" y="215"/>
      <point x="329" y="243" type="curve" smooth="yes"/>
      <point x="472" y="318"/>
      <point x="531" y="366"/>
      <point x="531" y="474" type="curve" smooth="yes"/>
      <point x="531" y="606"/>
      <point x="428" y="662"/>
      <point x="275" y="662" type="curve" smooth="yes"/>
      <point x="182" y="662"/>
      <point x="98" y="631"/>
      <point x="30" y="586" type="curve"/>
      <point x="30" y="468" type="line"/>
      <point x="211" y="468" type="line"/>
      <point x="211" y="535" type="line"/>
      <point x="241" y="545"/>
      <point x="259" y="545"/>
      <point x="276" y="545" type="curve" smooth="yes"/>
      <point x="324" y="545"/>
      <point x="348" y="521"/>
      <point x="348" y="473" type="curve" smooth="yes"/>
      <point x="348" y="404"/>
      <point x="321" y="381"/>
      <point x="250" y="347" type="curve" smooth="yes"/>
      <point x="112" y="281"/>
      <point x="25" y="193"/>
      <point x="25" y="66" type="curve" smooth="yes"/>
      <point x="25" y="0" type="line"/>
    </contour>
  </outline>
</glyph>
<glyph name="three" format="1">
  <advance width="572"/>
  <unicode hex="0033"/>
  <note>
	three
  </note>
  <outline>
    <contour>
      <point x="461" y="-15"/>
      <point x="547" y="51"/>
      <point x="547" y="204" type="curve" smooth="yes"/>
      <point x="547" y="261"/>
      <point x="518" y="306"/>
      <point x="462" y="340" type="curve"/>
      <point x="520" y="384"/>
      <point x="541" y="430"/>
      <point x="541" y="479" type="curve" smooth="yes"/>
      <point x="541" y="606"/>
      <point x="429" y="662"/>
      <point x="285" y="662" type="curve" smooth="yes"/>
      <point x="190" y="662"/>
      <point x="98" y="631"/>
      <point x="37" y="585" type="curve"/>
      <point x="37" y="468" type="line"/>
      <point x="222" y="468" type="line"/>
      <point x="222" y="536" type="line"/>
      <point x="252" y="545"/>
      <point x="270" y="545"/>
      <point x="286" y="545" type="curve" smooth="yes"/>
      <point x="329" y="545"/>
      <point x="358" y="521"/>
      <point x="358" y="473" type="curve" smooth="yes"/>
      <point x="358" y="415"/>
      <point x="331" y="395"/>
      <point x="293" y="395" type="curve" smooth="yes"/>
      <point x="201" y="395" type="line"/>
      <point x="201" y="281" type="line"/>
      <point x="293" y="281" type="line" smooth="yes"/>
      <point x="343" y="281"/>
      <point x="365" y="248"/>
      <point x="365" y="197" type="curve" smooth="yes"/>
      <point x="365" y="123"/>
      <point x="340" y="102"/>
      <point x="283" y="102" type="curve" smooth="yes"/>
      <point x="260" y="102"/>
      <point x="237" y="106"/>
      <point x="209" y="121" type="curve"/>
      <point x="209" y="190" type="line"/>
      <point x="25" y="190" type="line"/>
      <point x="25" y="70" type="line"/>
      <point x="83" y="12"/>
      <point x="179" y="-15"/>
      <point x="280" y="-15" type="curve" smooth="yes"/>
    </contour>
  </outline>
</glyph>
<glyph name="four" format="1">
  <advance width="538"/>
  <unicode hex="0034"/>
  <note>
	four
  </note>
  <outline>
    <contour>
      <point x="513" y="0" type="line"/>
      <point x="513" y="116" type="line"/>
      <point x="481" y="116" type="line" smooth="yes"/>
      <point x="453" y="116"/>
      <point x="440" y="129"/>
      <point x="440" y="156" type="curve" smooth="yes"/>
      <point x="440" y="170" type="line"/>
      <point x="533" y="170" type="line"/>
      <point x="533" y="286" type="line"/>
      <point x="440" y="286" type="line"/>
      <point x="440" y="647" type="line"/>
      <point x="283" y="647" type="line"/>
      <point x="5" y="273" type="line"/>
      <point x="5" y="170" type="line"/>
      <point x="261" y="170" type="line"/>
      <point x="261" y="156" type="line" smooth="yes"/>
      <point x="261" y="129"/>
      <point x="248" y="116"/>
      <point x="220" y="116" type="curve" smooth="yes"/>
      <point x="188" y="116" type="line"/>
      <point x="188" y="0" type="line"/>
    </contour>
    <contour>
      <point x="276" y="407" type="line"/>
      <point x="276" y="286" type="line"/>
      <point x="186" y="286" type="line"/>
    </contour>
  </outline>
</glyph>
<glyph name="five" format="1">
  <advance width="575"/>
  <unicode hex="0035"/>
  <note>
	five
  </note>
  <outline>
    <contour>
      <point x="467" y="-15"/>
      <point x="550" y="74"/>
      <point x="550" y="224" type="curve" smooth="yes"/>
      <point x="550" y="391"/>
      <point x="439" y="448"/>
      <point x="282" y="448" type="curve" smooth="yes"/>
      <point x="230" y="448" type="line"/>
      <point x="239" y="530" type="line"/>
      <point x="530" y="530" type="line"/>
      <point x="530" y="647" type="line"/>
      <point x="66" y="647" type="line"/>
      <point x="46" y="406" type="line"/>
      <point x="46" y="330" type="line"/>
      <point x="261" y="330" type="line" smooth="yes"/>
      <point x="333" y="330"/>
      <point x="367" y="297"/>
      <point x="367" y="224" type="curve" smooth="yes"/>
      <point x="367" y="146"/>
      <point x="346" y="102"/>
      <point x="289" y="102" type="curve" smooth="yes"/>
      <point x="264" y="102"/>
      <point x="236" y="107"/>
      <point x="209" y="119" type="curve"/>
      <point x="209" y="190" type="line"/>
      <point x="25" y="190" type="line"/>
      <point x="25" y="71" type="line"/>
      <point x="93" y="13"/>
      <point x="179" y="-15"/>
      <point x="285" y="-15" type="curve" smooth="yes"/>
    </contour>
  </outline>
</glyph>
<glyph name="six" format="1">
  <advance width="581"/>
  <unicode hex="0036"/>
  <note>
	six
  </note>
  <outline>
    <contour>
      <point x="482" y="-15"/>
      <point x="576" y="73"/>
      <point x="576" y="232" type="curve" smooth="yes"/>
      <point x="576" y="382"/>
      <point x="498" y="461"/>
      <point x="337" y="461" type="curve" smooth="yes"/>
      <point x="278" y="461"/>
      <point x="246" y="449"/>
      <point x="197" y="414" type="curve"/>
      <point x="228" y="490"/>
      <point x="265" y="529"/>
      <point x="352" y="529" type="curve" smooth="yes"/>
      <point x="409" y="529"/>
      <point x="442" y="518"/>
      <point x="475" y="490" type="curve"/>
      <point x="538" y="593" type="line"/>
      <point x="479" y="639"/>
      <point x="428" y="662"/>
      <point x="330" y="662" type="curve" smooth="yes"/>
      <point x="177" y="662"/>
      <point x="25" y="565"/>
      <point x="25" y="284" type="curve" smooth="yes"/>
      <point x="25" y="75"/>
      <point x="137" y="-15"/>
      <point x="298" y="-15" type="curve" smooth="yes"/>
    </contour>
    <contour>
      <point x="243" y="102"/>
      <point x="208" y="133"/>
      <point x="208" y="240" type="curve" smooth="yes"/>
      <point x="208" y="314"/>
      <point x="240" y="351"/>
      <point x="298" y="351" type="curve" smooth="yes"/>
      <point x="366" y="351"/>
      <point x="394" y="313"/>
      <point x="394" y="232" type="curve" smooth="yes"/>
      <point x="394" y="130"/>
      <point x="365" y="102"/>
      <point x="298" y="102" type="curve" smooth="yes"/>
    </contour>
  </outline>
</glyph>
<glyph name="seven" format="1">
  <advance width="530"/>
  <unicode hex="0037"/>
  <note>
	seven
  </note>
  <outline>
    <contour>
      <point x="292" y="0" type="line"/>
      <point x="525" y="576" type="line"/>
      <point x="525" y="647" type="line"/>
      <point x="5" y="647" type="line"/>
      <point x="5" y="465" type="line"/>
      <point x="190" y="465" type="line"/>
      <point x="190" y="530" type="line"/>
      <point x="322" y="530" type="line"/>
      <point x="106" y="0" type="line"/>
    </contour>
  </outline>
</glyph>
<glyph name="eight" format="1">
  <advance width="598"/>
  <unicode hex="0038"/>
  <note>
	eight
  </note>
  <outline>
    <contour>
      <point x="468" y="-16"/>
      <point x="573" y="44"/>
      <point x="573" y="185" type="curve" smooth="yes"/>
      <point x="573" y="248"/>
      <point x="546" y="300"/>
      <point x="493" y="337" type="curve"/>
      <point x="546" y="380"/>
      <point x="563" y="424"/>
      <point x="563" y="473" type="curve" smooth="yes"/>
      <point x="563" y="599"/>
      <point x="453" y="662"/>
      <point x="298" y="662" type="curve" smooth="yes"/>
      <point x="145" y="662"/>
      <point x="34" y="599"/>
      <point x="34" y="473" type="curve" smooth="yes"/>
      <point x="34" y="423"/>
      <point x="54" y="378"/>
      <point x="103" y="336" type="curve"/>
      <point x="49" y="300"/>
      <point x="25" y="248"/>
      <point x="25" y="185" type="curve" smooth="yes"/>
      <point x="25" y="44"/>
      <point x="129" y="-16"/>
      <point x="298" y="-16" type="curve" smooth="yes"/>
    </contour>
    <contour>
      <point x="236" y="101"/>
      <point x="207" y="130"/>
      <point x="207" y="196" type="curve" smooth="yes"/>
      <point x="207" y="251"/>
      <point x="236" y="281"/>
      <point x="291" y="281" type="curve" smooth="yes"/>
      <point x="307" y="281" type="line" smooth="yes"/>
      <point x="362" y="281"/>
      <point x="390" y="251"/>
      <point x="390" y="196" type="curve" smooth="yes"/>
      <point x="390" y="130"/>
      <point x="362" y="101"/>
      <point x="298" y="101" type="curve" smooth="yes"/>
    </contour>
    <contour>
      <point x="242" y="391"/>
      <point x="217" y="415"/>
      <point x="217" y="473" type="curve" smooth="yes"/>
      <point x="217" y="524"/>
      <point x="249" y="545"/>
      <point x="298" y="545" type="curve" smooth="yes"/>
      <point x="348" y="545"/>
      <point x="381" y="524"/>
      <point x="381" y="473" type="curve" smooth="yes"/>
      <point x="381" y="415"/>
      <point x="356" y="391"/>
      <point x="308" y="391" type="curve" smooth="yes"/>
      <point x="290" y="391" type="line" smooth="yes"/>
    </contour>
  </outline>
</glyph>
<glyph name="nine" format="1">
  <advance width="601"/>
  <unicode hex="0039"/>
  <note>
	nine
  </note>
  <outline>
    <contour>
      <point x="431" y="-16"/>
      <point x="576" y="82"/>
      <point x="576" y="363" type="curve" smooth="yes"/>
      <point x="576" y="572"/>
      <point x="464" y="662"/>
      <point x="303" y="662" type="curve" smooth="yes"/>
      <point x="127" y="662"/>
      <point x="25" y="578"/>
      <point x="25" y="420" type="curve" smooth="yes"/>
      <point x="25" y="269"/>
      <point x="103" y="186"/>
      <point x="264" y="186" type="curve" smooth="yes"/>
      <point x="317" y="186"/>
      <point x="359" y="193"/>
      <point x="405" y="225" type="curve"/>
      <point x="370" y="146"/>
      <point x="332" y="116"/>
      <point x="247" y="116" type="curve" smooth="yes"/>
      <point x="196" y="116"/>
      <point x="161" y="129"/>
      <point x="127" y="156" type="curve"/>
      <point x="59" y="43" type="line"/>
      <point x="118" y="2"/>
      <point x="185" y="-16"/>
      <point x="278" y="-16" type="curve" smooth="yes"/>
    </contour>
    <contour>
      <point x="236" y="296"/>
      <point x="207" y="334"/>
      <point x="207" y="415" type="curve" smooth="yes"/>
      <point x="207" y="517"/>
      <point x="237" y="545"/>
      <point x="303" y="545" type="curve" smooth="yes"/>
      <point x="358" y="545"/>
      <point x="393" y="519"/>
      <point x="393" y="411" type="curve" smooth="yes"/>
      <point x="393" y="337"/>
      <point x="369" y="296"/>
      <point x="303" y="296" type="curve" smooth="yes"/>
    </contour>
  </outline>
</glyph>
<glyph name="colon" format="1">
  <advance width="178"/>
  <unicode hex="003A"/>
  <note>
	colon
  </note>
  <outline>
    <contour>
      <point x="153" y="364" type="line"/>
      <point x="153" y="501" type="line"/>
      <point x="25" y="501" type="line"/>
      <point x="25" y="364" type="line"/>
    </contour>
    <contour>
      <point x="153" y="0" type="line"/>
      <point x="153" y="137" type="line"/>
      <point x="25" y="137" type="line"/>
      <point x="25" y="0" type="line"/>
    </contour>
  </outline>
</glyph>
<glyph name="semicolon" format="1">
  <advance width="247"/>
  <unicode hex="003B"/>
  <note>
	semicolon
  </note>
  <outline>
    <contour>
      <point x="149" y="-121" type="line"/>
      <point x="222" y="116" type="line"/>
      <point x="61" y="116" type="line"/>
      <point x="25" y="-121" type="line"/>
    </contour>
    <contour>
      <point x="208" y="364" type="line"/>
      <point x="208" y="501" type="line"/>
      <point x="60" y="501" type="line"/>
      <point x="60" y="364" type="line"/>
    </contour>
  </outline>
</glyph>
<glyph name="less" format="1">
  <advance width="619"/>
  <unicode hex="003C"/>
  <note>
	less
  </note>
  <outline>
    <contour>
      <point x="594" y="172" type="line"/>
      <point x="237" y="327" type="line"/>
      <point x="594" y="481" type="line"/>
      <point x="594" y="623" type="line"/>
      <point x="25" y="365" type="line"/>
      <point x="25" y="288" type="line"/>
      <point x="594" y="30" type="line"/>
    </contour>
  </outline>
</glyph>
<glyph name="equal" format="1">
  <advance width="438"/>
  <unicode hex="003D"/>
  <note>
	equal
  </note>
  <outline>
    <contour>
      <point x="413" y="154" type="line"/>
      <point x="413" y="271" type="line"/>
      <point x="25" y="271" type="line"/>
      <point x="25" y="154" type="line"/>
    </contour>
    <contour>
      <point x="413" y="332" type="line"/>
      <point x="413" y="448" type="line"/>
      <point x="25" y="448" type="line"/>
      <point x="25" y="332" type="line"/>
    </contour>
  </outline>
</glyph>
<glyph name="greater" format="1">
  <advance width="619"/>
  <unicode hex="003E"/>
  <note>
	greater
  </note>
  <outline>
    <contour>
      <point x="594" y="288" type="line"/>
      <point x="594" y="365" type="line"/>
      <point x="25" y="623" type="line"/>
      <point x="25" y="481" type="line"/>
      <point x="382" y="327" type="line"/>
      <point x="25" y="172" type="line"/>
      <point x="25" y="30" type="line"/>
    </contour>
  </outline>
</glyph>
<glyph name="question" format="1">
  <advance width="557"/>
  <unicode hex="003F"/>
  <note>
	question
  </note>
  <outline>
    <contour>
      <point x="335" y="168" type="line"/>
      <point x="335" y="186" type="line" smooth="yes"/>
      <point x="335" y="245"/>
      <point x="342" y="269"/>
      <point x="398" y="303" type="curve" smooth="yes"/>
      <point x="485" y="356"/>
      <point x="532" y="394"/>
      <point x="532" y="480" type="curve" smooth="yes"/>
      <point x="532" y="602"/>
      <point x="442" y="662"/>
      <point x="275" y="662" type="curve" smooth="yes"/>
      <point x="168" y="662"/>
      <point x="84" y="630"/>
      <point x="25" y="586" type="curve"/>
      <point x="25" y="464" type="line"/>
      <point x="186" y="464" type="line"/>
      <point x="186" y="527" type="line"/>
      <point x="211" y="537"/>
      <point x="237" y="545"/>
      <point x="269" y="545" type="curve" smooth="yes"/>
      <point x="327" y="545"/>
      <point x="350" y="520"/>
      <point x="350" y="480" type="curve" smooth="yes"/>
      <point x="350" y="435"/>
      <point x="314" y="412"/>
      <point x="271" y="387" type="curve" smooth="yes"/>
      <point x="183" y="335"/>
      <point x="150" y="276"/>
      <point x="150" y="195" type="curve" smooth="yes"/>
      <point x="150" y="168" type="line"/>
    </contour>
    <contour>
      <point x="342" y="0" type="line"/>
      <point x="342" y="133" type="line"/>
      <point x="143" y="133" type="line"/>
      <point x="143" y="0" type="line"/>
    </contour>
  </outline>
</glyph>
<glyph name="at" format="1">
  <advance width="866"/>
  <unicode hex="0040"/>
  <note>
	at
  </note>
  <outline>
    <contour>
      <point x="538" y="-110"/>
      <point x="592" y="-101"/>
      <point x="682" y="-73" type="curve"/>
      <point x="682" y="57" type="line"/>
      <point x="608" y="34"/>
      <point x="514" y="25"/>
      <point x="444" y="25" type="curve" smooth="yes"/>
      <point x="278" y="25"/>
      <point x="184" y="83"/>
      <point x="184" y="277" type="curve" smooth="yes"/>
      <point x="184" y="450"/>
      <point x="286" y="509"/>
      <point x="443" y="509" type="curve" smooth="yes"/>
      <point x="614" y="509"/>
      <point x="683" y="453"/>
      <point x="683" y="318" type="curve" smooth="yes"/>
      <point x="683" y="224"/>
      <point x="672" y="185"/>
      <point x="648" y="185" type="curve" smooth="yes"/>
      <point x="637" y="185"/>
      <point x="634" y="193"/>
      <point x="634" y="207" type="curve" smooth="yes"/>
      <point x="634" y="329" type="line" smooth="yes"/>
      <point x="634" y="423"/>
      <point x="577" y="471"/>
      <point x="443" y="471" type="curve" smooth="yes"/>
      <point x="373" y="471"/>
      <point x="312" y="452"/>
      <point x="262" y="414" type="curve"/>
      <point x="262" y="342" type="line"/>
      <point x="413" y="342" type="line"/>
      <point x="413" y="369" type="line"/>
      <point x="422" y="373"/>
      <point x="428" y="376"/>
      <point x="441" y="376" type="curve" smooth="yes"/>
      <point x="462" y="376"/>
      <point x="473" y="367"/>
      <point x="473" y="344" type="curve" smooth="yes"/>
      <point x="473" y="326" type="line"/>
      <point x="364" y="319" type="line" smooth="yes"/>
      <point x="283" y="314"/>
      <point x="237" y="264"/>
      <point x="237" y="186" type="curve" smooth="yes"/>
      <point x="237" y="113"/>
      <point x="284" y="62"/>
      <point x="397" y="62" type="curve" smooth="yes"/>
      <point x="467" y="62"/>
      <point x="526" y="80"/>
      <point x="558" y="128" type="curve"/>
      <point x="570" y="89"/>
      <point x="623" y="69"/>
      <point x="663" y="69" type="curve" smooth="yes"/>
      <point x="793" y="69"/>
      <point x="841" y="162"/>
      <point x="841" y="314" type="curve" smooth="yes"/>
      <point x="841" y="529"/>
      <point x="689" y="652"/>
      <point x="443" y="652" type="curve" smooth="yes"/>
      <point x="197" y="652"/>
      <point x="25" y="502"/>
      <point x="25" y="277" type="curve" smooth="yes"/>
      <point x="25" y="52"/>
      <point x="133" y="-110"/>
      <point x="442" y="-110" type="curve" smooth="yes"/>
    </contour>
    <contour>
      <point x="405" y="157"/>
      <point x="386" y="167"/>
      <point x="386" y="189" type="curve" smooth="yes"/>
      <point x="386" y="216"/>
      <point x="404" y="223"/>
      <point x="419" y="224" type="curve" smooth="yes"/>
      <point x="473" y="228" type="line"/>
      <point x="473" y="207" type="line" smooth="yes"/>
      <point x="473" y="173"/>
      <point x="452" y="157"/>
      <point x="421" y="157" type="curve" smooth="yes"/>
    </contour>
  </outline>
</glyph>
<glyph name="B" format="1">
  <advance width="614"/>
  <unicode hex="0042"/>
  <note>
	B
  </note>
  <outline>
    <contour>
      <point x="410" y="0" type="line" smooth="yes"/>
      <point x="521" y="0"/>
      <point x="599" y="68"/>
      <point x="599" y="184" type="curve" smooth="yes"/>
      <point x="599" y="262"/>
      <point x="560" y="301"/>
      <point x="500" y="328" type="curve"/>
      <point x="555" y="359"/>
      <point x="590" y="412"/>
      <point x="590" y="468" type="curve" smooth="yes"/>
      <point x="590" y="589"/>
      <point x="515" y="647"/>
      <point x="404" y="647" type="curve" smooth="yes"/>
      <point x="15" y="647" type="line"/>
      <point x="15" y="530" type="line"/>
      <point x="36" y="530" type="line" smooth="yes"/>
      <point x="64" y="530"/>
      <point x="76" y="516"/>
      <point x="76" y="493" type="curve" smooth="yes"/>
      <point x="76" y="156" type="line" smooth="yes"/>
      <point x="76" y="129"/>
      <point x="64" y="116"/>
      <point x="36" y="116" type="curve" smooth="yes"/>
      <point x="15" y="116" type="line"/>
      <point x="15" y="0" type="line"/>
    </contour>
    <contour>
      <point x="261" y="264" type="line"/>
      <point x="341" y="264" type="line" smooth="yes"/>
      <point x="375" y="264"/>
      <point x="417" y="251"/>
      <point x="417" y="192" type="curve" smooth="yes"/>
      <point x="417" y="137"/>
      <point x="383" y="116"/>
      <point x="344" y="116" type="curve" smooth="yes"/>
      <point x="261" y="116" type="line"/>
    </contour>
    <contour>
      <point x="261" y="531" type="line"/>
      <point x="337" y="531" type="line" smooth="yes"/>
      <point x="380" y="531"/>
      <point x="407" y="502"/>
      <point x="407" y="457" type="curve" smooth="yes"/>
      <point x="407" y="403"/>
      <point x="370" y="383"/>
      <point x="338" y="383" type="curve" smooth="yes"/>
      <point x="261" y="383" type="line"/>
    </contour>
  </outline>
</glyph>
<glyph name="D" format="1">
  <advance width="640"/>
  <unicode hex="0044"/>
  <note>
	D
  </note>
  <outline>
    <contour>
      <point x="339" y="0" type="line" smooth="yes"/>
      <point x="532" y="0"/>
      <point x="625" y="144"/>
      <point x="625" y="321" type="curve" smooth="yes"/>
      <point x="625" y="532"/>
      <point x="532" y="647"/>
      <point x="339" y="647" type="curve" smooth="yes"/>
      <point x="15" y="647" type="line"/>
      <point x="15" y="530" type="line"/>
      <point x="36" y="530" type="line" smooth="yes"/>
      <point x="64" y="530"/>
      <point x="77" y="516"/>
      <point x="77" y="493" type="curve" smooth="yes"/>
      <point x="77" y="156" type="line" smooth="yes"/>
      <point x="77" y="129"/>
      <point x="64" y="116"/>
      <point x="36" y="116" type="curve" smooth="yes"/>
      <point x="15" y="116" type="line"/>
      <point x="15" y="0" type="line"/>
    </contour>
    <contour>
      <point x="262" y="531" type="line"/>
      <point x="311" y="531" type="line" smooth="yes"/>
      <point x="414" y="531"/>
      <point x="442" y="456"/>
      <point x="442" y="321" type="curve" smooth="yes"/>
      <point x="442" y="190"/>
      <point x="414" y="116"/>
      <point x="311" y="116" type="curve" smooth="yes"/>
      <point x="262" y="116" type="line"/>
    </contour>
  </outline>
</glyph>
<glyph name="G" format="1">
  <advance width="640"/>
  <unicode hex="0047"/>
  <note>
	G
  </note>
  <outline>
    <contour>
      <point x="465" y="-16"/>
      <point x="552" y="8"/>
      <point x="625" y="61" type="curve"/>
      <point x="625" y="364" type="line"/>
      <point x="324" y="364" type="line"/>
      <point x="324" y="248" type="line"/>
      <point x="440" y="248" type="line"/>
      <point x="440" y="109" type="line"/>
      <point x="415" y="103"/>
      <point x="391" y="101"/>
      <point x="369" y="101" type="curve" smooth="yes"/>
      <point x="256" y="101"/>
      <point x="198" y="180"/>
      <point x="198" y="318" type="curve" smooth="yes"/>
      <point x="198" y="459"/>
      <point x="254" y="545"/>
      <point x="354" y="545" type="curve" smooth="yes"/>
      <point x="379" y="545"/>
      <point x="396" y="542"/>
      <point x="414" y="534" type="curve"/>
      <point x="414" y="460" type="line"/>
      <point x="599" y="460" type="line"/>
      <point x="599" y="598" type="line"/>
      <point x="537" y="643"/>
      <point x="467" y="662"/>
      <point x="354" y="662" type="curve" smooth="yes"/>
      <point x="122" y="662"/>
      <point x="15" y="513"/>
      <point x="15" y="318" type="curve" smooth="yes"/>
      <point x="15" y="123"/>
      <point x="136" y="-16"/>
      <point x="360" y="-16" type="curve" smooth="yes"/>
    </contour>
  </outline>
</glyph>
<glyph name="J" format="1">
  <advance width="516"/>
  <unicode hex="004A"/>
  <note>
	J
  </note>
  <outline>
    <contour>
      <point x="361" y="-16"/>
      <point x="440" y="63"/>
      <point x="440" y="191" type="curve" smooth="yes"/>
      <point x="440" y="493" type="line" smooth="yes"/>
      <point x="440" y="516"/>
      <point x="452" y="530"/>
      <point x="480" y="530" type="curve" smooth="yes"/>
      <point x="501" y="530" type="line"/>
      <point x="501" y="647" type="line"/>
      <point x="193" y="647" type="line"/>
      <point x="193" y="530" type="line"/>
      <point x="214" y="530" type="line" smooth="yes"/>
      <point x="242" y="530"/>
      <point x="255" y="516"/>
      <point x="255" y="493" type="curve" smooth="yes"/>
      <point x="255" y="159" type="line" smooth="yes"/>
      <point x="255" y="117"/>
      <point x="239" y="101"/>
      <point x="200" y="101" type="curve" smooth="yes"/>
      <point x="182" y="101"/>
      <point x="161" y="110"/>
      <point x="148" y="122" type="curve"/>
      <point x="148" y="176" type="line"/>
      <point x="-15" y="176" type="line"/>
      <point x="-15" y="74" type="line"/>
      <point x="32" y="15"/>
      <point x="115" y="-16"/>
      <point x="212" y="-16" type="curve" smooth="yes"/>
    </contour>
  </outline>
</glyph>
<glyph name="K" format="1">
  <advance width="670"/>
  <unicode hex="004B"/>
  <note>
	K
  </note>
  <outline>
    <contour>
      <point x="301" y="0" type="line"/>
      <point x="301" y="117" type="line"/>
      <point x="292" y="117" type="line" smooth="yes"/>
      <point x="270" y="117"/>
      <point x="261" y="134"/>
      <point x="261" y="154" type="curve" smooth="yes"/>
      <point x="261" y="195" type="line"/>
      <point x="323" y="262" type="line"/>
      <point x="417" y="116" type="line"/>
      <point x="365" y="116" type="line"/>
      <point x="365" y="0" type="line"/>
      <point x="655" y="0" type="line"/>
      <point x="655" y="116" type="line"/>
      <point x="625" y="116" type="line" smooth="yes"/>
      <point x="602" y="116"/>
      <point x="588" y="122"/>
      <point x="578" y="137" type="curve" smooth="yes"/>
      <point x="428" y="367" type="line"/>
      <point x="563" y="512" type="line" smooth="yes"/>
      <point x="575" y="525"/>
      <point x="585" y="530"/>
      <point x="614" y="530" type="curve" smooth="yes"/>
      <point x="648" y="530" type="line"/>
      <point x="648" y="647" type="line"/>
      <point x="376" y="647" type="line"/>
      <point x="376" y="540" type="line"/>
      <point x="416" y="540" type="line"/>
      <point x="261" y="370" type="line"/>
      <point x="261" y="493" type="line" smooth="yes"/>
      <point x="261" y="513"/>
      <point x="272" y="530"/>
      <point x="294" y="530" type="curve" smooth="yes"/>
      <point x="301" y="530" type="line"/>
      <point x="301" y="647" type="line"/>
      <point x="15" y="647" type="line"/>
      <point x="15" y="530" type="line"/>
      <point x="36" y="530" type="line" smooth="yes"/>
      <point x="64" y="530"/>
      <point x="77" y="516"/>
      <point x="77" y="493" type="curve" smooth="yes"/>
      <point x="77" y="154" type="line" smooth="yes"/>
      <point x="77" y="132"/>
      <point x="64" y="117"/>
      <point x="36" y="117" type="curve" smooth="yes"/>
      <point x="15" y="117" type="line"/>
      <point x="15" y="0" type="line"/>
    </contour>
  </outline>
</glyph>
<glyph name="L" format="1">
  <advance width="518"/>
  <unicode hex="004C"/>
  <note>
	L
  </note>
  <outline>
    <contour>
      <point x="533" y="0" type="line"/>
      <point x="533" y="199" type="line"/>
      <point x="365" y="199" type="line"/>
      <point x="365" y="156" type="line" smooth="yes"/>
      <point x="365" y="129"/>
      <point x="352" y="116"/>
      <point x="324" y="116" type="curve" smooth="yes"/>
      <point x="262" y="116" type="line"/>
      <point x="262" y="493" type="line" smooth="yes"/>
      <point x="262" y="516"/>
      <point x="274" y="530"/>
      <point x="302" y="530" type="curve" smooth="yes"/>
      <point x="323" y="530" type="line"/>
      <point x="323" y="647" type="line"/>
      <point x="15" y="647" type="line"/>
      <point x="15" y="530" type="line"/>
      <point x="36" y="530" type="line" smooth="yes"/>
      <point x="64" y="530"/>
      <point x="77" y="516"/>
      <point x="77" y="493" type="curve" smooth="yes"/>
      <point x="77" y="156" type="line" smooth="yes"/>
      <point x="77" y="129"/>
      <point x="64" y="116"/>
      <point x="36" y="116" type="curve" smooth="yes"/>
      <point x="15" y="116" type="line"/>
      <point x="15" y="0" type="line"/>
    </contour>
  </outline>
</glyph>
<glyph name="M" format="1">
  <advance width="773"/>
  <unicode hex="004D"/>
  <note>
	M
  </note>
  <outline>
    <contour>
      <point x="320" y="0" type="line"/>
      <point x="320" y="116" type="line"/>
      <point x="299" y="116" type="line" smooth="yes"/>
      <point x="271" y="116"/>
      <point x="258" y="130"/>
      <point x="258" y="153" type="curve" smooth="yes"/>
      <point x="258" y="371" type="line"/>
      <point x="333" y="197" type="line"/>
      <point x="440" y="197" type="line"/>
      <point x="515" y="371" type="line"/>
      <point x="515" y="153" type="line" smooth="yes"/>
      <point x="515" y="130"/>
      <point x="502" y="116"/>
      <point x="474" y="116" type="curve" smooth="yes"/>
      <point x="453" y="116" type="line"/>
      <point x="453" y="0" type="line"/>
      <point x="758" y="0" type="line"/>
      <point x="758" y="116" type="line"/>
      <point x="737" y="116" type="line" smooth="yes"/>
      <point x="709" y="116"/>
      <point x="697" y="129"/>
      <point x="697" y="156" type="curve" smooth="yes"/>
      <point x="697" y="492" type="line" smooth="yes"/>
      <point x="697" y="518"/>
      <point x="709" y="531"/>
      <point x="737" y="531" type="curve" smooth="yes"/>
      <point x="758" y="531" type="line"/>
      <point x="758" y="647" type="line"/>
      <point x="517" y="647" type="line"/>
      <point x="387" y="347" type="line"/>
      <point x="256" y="647" type="line"/>
      <point x="15" y="647" type="line"/>
      <point x="15" y="531" type="line"/>
      <point x="36" y="531" type="line" smooth="yes"/>
      <point x="64" y="531"/>
      <point x="77" y="518"/>
      <point x="77" y="492" type="curve" smooth="yes"/>
      <point x="77" y="156" type="line" smooth="yes"/>
      <point x="77" y="129"/>
      <point x="64" y="116"/>
      <point x="36" y="116" type="curve" smooth="yes"/>
      <point x="15" y="116" type="line"/>
      <point x="15" y="0" type="line"/>
    </contour>
  </outline>
</glyph>
<glyph name="O" format="1">
  <advance width="670"/>
  <unicode hex="004F"/>
  <note>
	O
  </note>
  <outline>
    <contour>
      <point x="551" y="-15"/>
      <point x="655" y="96"/>
      <point x="655" y="321" type="curve" smooth="yes"/>
      <point x="655" y="546"/>
      <point x="560" y="662"/>
      <point x="335" y="662" type="curve" smooth="yes"/>
      <point x="110" y="662"/>
      <point x="15" y="546"/>
      <point x="15" y="321" type="curve" smooth="yes"/>
      <point x="15" y="96"/>
      <point x="118" y="-15"/>
      <point x="335" y="-15" type="curve" smooth="yes"/>
    </contour>
    <contour>
      <point x="234" y="102"/>
      <point x="198" y="161"/>
      <point x="198" y="321" type="curve" smooth="yes"/>
      <point x="198" y="486"/>
      <point x="234" y="545"/>
      <point x="335" y="545" type="curve" smooth="yes"/>
      <point x="436" y="545"/>
      <point x="472" y="486"/>
      <point x="472" y="321" type="curve" smooth="yes"/>
      <point x="472" y="161"/>
      <point x="436" y="102"/>
      <point x="335" y="102" type="curve" smooth="yes"/>
    </contour>
  </outline>
</glyph>
<glyph name="P" format="1">
  <advance width="633"/>
  <unicode hex="0050"/>
  <note>
	P
  </note>
  <outline>
    <contour>
      <point x="322" y="0" type="line"/>
      <point x="322" y="116" type="line"/>
      <point x="302" y="116" type="line" smooth="yes"/>
      <point x="273" y="116"/>
      <point x="261" y="130"/>
      <point x="261" y="153" type="curve" smooth="yes"/>
      <point x="261" y="220" type="line"/>
      <point x="373" y="220" type="line" smooth="yes"/>
      <point x="523" y="220"/>
      <point x="618" y="297"/>
      <point x="618" y="437" type="curve" smooth="yes"/>
      <point x="618" y="579"/>
      <point x="523" y="647"/>
      <point x="374" y="647" type="curve" smooth="yes"/>
      <point x="15" y="647" type="line"/>
      <point x="15" y="530" type="line"/>
      <point x="35" y="530" type="line" smooth="yes"/>
      <point x="64" y="530"/>
      <point x="76" y="516"/>
      <point x="76" y="493" type="curve" smooth="yes"/>
      <point x="76" y="153" type="line" smooth="yes"/>
      <point x="76" y="130"/>
      <point x="64" y="116"/>
      <point x="35" y="116" type="curve" smooth="yes"/>
      <point x="15" y="116" type="line"/>
      <point x="15" y="0" type="line"/>
    </contour>
    <contour>
      <point x="261" y="530" type="line"/>
      <point x="348" y="530" type="line" smooth="yes"/>
      <point x="409" y="530"/>
      <point x="435" y="507"/>
      <point x="435" y="437" type="curve" smooth="yes"/>
      <point x="435" y="368"/>
      <point x="410" y="337"/>
      <point x="348" y="337" type="curve" smooth="yes"/>
      <point x="261" y="337" type="line"/>
    </contour>
  </outline>
</glyph>
<glyph name="Q" format="1">
  <advance width="670"/>
  <unicode hex="0051"/>
  <note>
	Q
  </note>
  <outline>
    <contour>
      <point x="545" y="-145"/>
      <point x="608" y="-121"/>
      <point x="643" y="-78" type="curve"/>
      <point x="643" y="-13" type="line"/>
      <point x="519" y="-13" type="line"/>
      <point x="519" y="-40" type="line"/>
      <point x="508" y="-49"/>
      <point x="496" y="-53"/>
      <point x="465" y="-53" type="curve" smooth="yes"/>
      <point x="438" y="-53"/>
      <point x="410" y="-42"/>
      <point x="399" y="-12" type="curve"/>
      <point x="572" y="9"/>
      <point x="655" y="118"/>
      <point x="655" y="320" type="curve" smooth="yes"/>
      <point x="655" y="545"/>
      <point x="560" y="660"/>
      <point x="335" y="660" type="curve" smooth="yes"/>
      <point x="110" y="660"/>
      <point x="15" y="545"/>
      <point x="15" y="320" type="curve" smooth="yes"/>
      <point x="15" y="120"/>
      <point x="96" y="10"/>
      <point x="267" y="-12" type="curve"/>
      <point x="288" y="-92"/>
      <point x="343" y="-145"/>
      <point x="461" y="-145" type="curve" smooth="yes"/>
    </contour>
    <contour>
      <point x="234" y="101"/>
      <point x="198" y="160"/>
      <point x="198" y="320" type="curve" smooth="yes"/>
      <point x="198" y="485"/>
      <point x="234" y="543"/>
      <point x="335" y="543" type="curve" smooth="yes"/>
      <point x="436" y="543"/>
      <point x="472" y="485"/>
      <point x="472" y="320" type="curve" smooth="yes"/>
      <point x="472" y="160"/>
      <point x="436" y="101"/>
      <point x="335" y="101" type="curve" smooth="yes"/>
    </contour>
  </outline>
</glyph>
<glyph name="T" format="1">
  <advance width="633"/>
  <unicode hex="0054"/>
  <note>
	T
  </note>
  <outline>
    <contour>
      <point x="471" y="0" type="line"/>
      <point x="471" y="117" type="line"/>
      <point x="450" y="117" type="line" smooth="yes"/>
      <point x="422" y="117"/>
      <point x="409" y="132"/>
      <point x="409" y="154" type="curve" smooth="yes"/>
      <point x="409" y="528" type="line"/>
      <point x="461" y="528" type="line" smooth="yes"/>
      <point x="489" y="528"/>
      <point x="502" y="515"/>
      <point x="502" y="489" type="curve" smooth="yes"/>
      <point x="502" y="445" type="line"/>
      <point x="628" y="445" type="line"/>
      <point x="628" y="644" type="line"/>
      <point x="5" y="644" type="line"/>
      <point x="5" y="445" type="line"/>
      <point x="131" y="445" type="line"/>
      <point x="131" y="489" type="line" smooth="yes"/>
      <point x="131" y="515"/>
      <point x="144" y="528"/>
      <point x="172" y="528" type="curve" smooth="yes"/>
      <point x="224" y="528" type="line"/>
      <point x="224" y="154" type="line" smooth="yes"/>
      <point x="224" y="132"/>
      <point x="212" y="117"/>
      <point x="184" y="117" type="curve" smooth="yes"/>
      <point x="163" y="117" type="line"/>
      <point x="163" y="0" type="line"/>
    </contour>
  </outline>
</glyph>
<glyph name="V" format="1">
  <advance width="712"/>
  <unicode hex="0056"/>
  <note>
	V
  </note>
  <outline>
    <contour>
      <point x="448" y="0" type="line"/>
      <point x="611" y="483" type="line" smooth="yes"/>
      <point x="624" y="522"/>
      <point x="644" y="531"/>
      <point x="688" y="531" type="curve" smooth="yes"/>
      <point x="697" y="531" type="line"/>
      <point x="697" y="647" type="line"/>
      <point x="466" y="647" type="line"/>
      <point x="358" y="234" type="line"/>
      <point x="244" y="647" type="line"/>
      <point x="15" y="647" type="line"/>
      <point x="15" y="531" type="line"/>
      <point x="25" y="531" type="line" smooth="yes"/>
      <point x="68" y="531"/>
      <point x="88" y="521"/>
      <point x="101" y="483" type="curve" smooth="yes"/>
      <point x="267" y="0" type="line"/>
    </contour>
  </outline>
</glyph>
<glyph name="W" format="1">
  <advance width="846"/>
  <unicode hex="0057"/>
  <note>
	W
  </note>
  <outline>
    <contour>
      <point x="346" y="0" type="line"/>
      <point x="423" y="218" type="line"/>
      <point x="500" y="0" type="line"/>
      <point x="647" y="0" type="line"/>
      <point x="753" y="480" type="line" smooth="yes"/>
      <point x="762" y="522"/>
      <point x="779" y="530"/>
      <point x="824" y="530" type="curve" smooth="yes"/>
      <point x="831" y="530" type="line"/>
      <point x="831" y="647" type="line"/>
      <point x="621" y="647" type="line"/>
      <point x="555" y="328" type="line"/>
      <point x="487" y="538" type="line"/>
      <point x="359" y="538" type="line"/>
      <point x="291" y="328" type="line"/>
      <point x="225" y="647" type="line"/>
      <point x="15" y="647" type="line"/>
      <point x="15" y="530" type="line"/>
      <point x="22" y="530" type="line" smooth="yes"/>
      <point x="67" y="530"/>
      <point x="84" y="522"/>
      <point x="93" y="480" type="curve" smooth="yes"/>
      <point x="199" y="0" type="line"/>
    </contour>
  </outline>
</glyph>
<glyph name="X" format="1">
  <advance width="694"/>
  <unicode hex="0058"/>
  <note>
	X
  </note>
  <outline>
    <contour>
      <point x="312" y="0" type="line"/>
      <point x="312" y="116" type="line"/>
      <point x="282" y="116" type="line"/>
      <point x="347" y="220" type="line"/>
      <point x="411" y="116" type="line"/>
      <point x="381" y="116" type="line"/>
      <point x="381" y="0" type="line"/>
      <point x="679" y="0" type="line"/>
      <point x="679" y="117" type="line"/>
      <point x="652" y="117" type="line" smooth="yes"/>
      <point x="612" y="117"/>
      <point x="589" y="125"/>
      <point x="566" y="156" type="curve" smooth="yes"/>
      <point x="442" y="322" type="line"/>
      <point x="566" y="492" type="line" smooth="yes"/>
      <point x="588" y="523"/>
      <point x="612" y="530"/>
      <point x="652" y="530" type="curve" smooth="yes"/>
      <point x="668" y="530" type="line"/>
      <point x="668" y="647" type="line"/>
      <point x="381" y="647" type="line"/>
      <point x="381" y="530" type="line"/>
      <point x="411" y="530" type="line"/>
      <point x="347" y="423" type="line"/>
      <point x="282" y="530" type="line"/>
      <point x="312" y="530" type="line"/>
      <point x="312" y="647" type="line"/>
      <point x="25" y="647" type="line"/>
      <point x="25" y="530" type="line"/>
      <point x="41" y="530" type="line" smooth="yes"/>
      <point x="81" y="530"/>
      <point x="105" y="523"/>
      <point x="127" y="492" type="curve" smooth="yes"/>
      <point x="250" y="322" type="line"/>
      <point x="127" y="156" type="line" smooth="yes"/>
      <point x="104" y="125"/>
      <point x="81" y="117"/>
      <point x="41" y="117" type="curve" smooth="yes"/>
      <point x="15" y="117" type="line"/>
      <point x="15" y="0" type="line"/>
    </contour>
  </outline>
</glyph>
<glyph name="Z" format="1">
  <advance width="572"/>
  <unicode hex="005A"/>
  <note>
	Z
  </note>
  <outline>
    <contour>
      <point x="557" y="0" type="line"/>
      <point x="557" y="168" type="line"/>
      <point x="389" y="168" type="line"/>
      <point x="389" y="156" type="line" smooth="yes"/>
      <point x="389" y="129"/>
      <point x="376" y="116"/>
      <point x="348" y="116" type="curve" smooth="yes"/>
      <point x="237" y="116" type="line"/>
      <point x="537" y="557" type="line"/>
      <point x="537" y="647" type="line"/>
      <point x="19" y="647" type="line"/>
      <point x="19" y="479" type="line"/>
      <point x="187" y="479" type="line"/>
      <point x="187" y="492" type="line" smooth="yes"/>
      <point x="187" y="518"/>
      <point x="200" y="531"/>
      <point x="228" y="531" type="curve" smooth="yes"/>
      <point x="327" y="531" type="line"/>
      <point x="15" y="91" type="line"/>
      <point x="15" y="0" type="line"/>
    </contour>
  </outline>
</glyph>
<glyph name="bracketleft" format="1">
  <advance width="334"/>
  <unicode hex="005B"/>
  <note>
	bracketleft
  </note>
  <outline>
    <contour>
      <point x="309" y="-83" type="line"/>
      <point x="309" y="33" type="line"/>
      <point x="220" y="33" type="line"/>
      <point x="220" y="633" type="line"/>
      <point x="309" y="633" type="line"/>
      <point x="309" y="750" type="line"/>
      <point x="35" y="750" type="line"/>
      <point x="35" y="-83" type="line"/>
    </contour>
  </outline>
</glyph>
<glyph name="backslash" format="1">
  <advance width="485"/>
  <unicode hex="005C"/>
  <note>
	backslash
  </note>
  <outline>
    <contour>
      <point x="460" y="0" type="line"/>
      <point x="211" y="676" type="line"/>
      <point x="25" y="676" type="line"/>
      <point x="274" y="0" type="line"/>
    </contour>
  </outline>
</glyph>
<glyph name="bracketright" format="1">
  <advance width="334"/>
  <unicode hex="005D"/>
  <note>
	bracketright
  </note>
  <outline>
    <contour>
      <point x="299" y="-83" type="line"/>
      <point x="299" y="750" type="line"/>
      <point x="25" y="750" type="line"/>
      <point x="25" y="633" type="line"/>
      <point x="114" y="633" type="line"/>
      <point x="114" y="33" type="line"/>
      <point x="25" y="33" type="line"/>
      <point x="25" y="-83" type="line"/>
    </contour>
  </outline>
</glyph>
<glyph name="asciicircum" format="1">
  <advance width="642"/>
  <unicode hex="005E"/>
  <note>
	asciicircum
  </note>
  <outline>
    <contour>
      <point x="214" y="354" type="line"/>
      <point x="321" y="548" type="line"/>
      <point x="427" y="354" type="line"/>
      <point x="617" y="354" type="line"/>
      <point x="392" y="719" type="line"/>
      <point x="249" y="719" type="line"/>
      <point x="25" y="354" type="line"/>
    </contour>
  </outline>
</glyph>
<glyph name="underscore" format="1">
  <advance width="491"/>
  <unicode hex="005F"/>
  <note>
	underscore
  </note>
  <outline>
    <contour>
      <point x="466" y="-148" type="line"/>
      <point x="466" y="-31" type="line"/>
      <point x="25" y="-31" type="line"/>
      <point x="25" y="-148" type="line"/>
    </contour>
  </outline>
</glyph>
<glyph name="grave" format="1">
  <advance width="331"/>
  <unicode hex="0060"/>
  <note>
	grave
  </note>
  <outline>
    <contour>
      <point x="306" y="499" type="line"/>
      <point x="220" y="702" type="line"/>
      <point x="25" y="702" type="line"/>
      <point x="151" y="499" type="line"/>
    </contour>
  </outline>
</glyph>
<glyph name="b" format="1">
  <advance width="595"/>
  <unicode hex="0062"/>
  <note>
	b
  </note>
  <outline>
    <contour>
      <point x="488" y="-16"/>
      <point x="580" y="70"/>
      <point x="580" y="232" type="curve" smooth="yes"/>
      <point x="580" y="398"/>
      <point x="510" y="495"/>
      <point x="366" y="495" type="curve" smooth="yes"/>
      <point x="302" y="495"/>
      <point x="260" y="480"/>
      <point x="219" y="450" type="curve"/>
      <point x="219" y="662" type="line"/>
      <point x="5" y="662" type="line"/>
      <point x="5" y="543" type="line"/>
      <point x="21" y="543" type="line" smooth="yes"/>
      <point x="49" y="543"/>
      <point x="57" y="528"/>
      <point x="57" y="505" type="curve" smooth="yes"/>
      <point x="57" y="0" type="line"/>
      <point x="177" y="0" type="line"/>
      <point x="184" y="59" type="line"/>
      <point x="224" y="-1"/>
      <point x="280" y="-16"/>
      <point x="356" y="-16" type="curve" smooth="yes"/>
    </contour>
    <contour>
      <point x="256" y="88"/>
      <point x="231" y="144"/>
      <point x="231" y="211" type="curve" smooth="yes"/>
      <point x="231" y="264" type="line" smooth="yes"/>
      <point x="231" y="339"/>
      <point x="256" y="383"/>
      <point x="312" y="383" type="curve" smooth="yes"/>
      <point x="380" y="383"/>
      <point x="396" y="335"/>
      <point x="396" y="234" type="curve" smooth="yes"/>
      <point x="396" y="133"/>
      <point x="380" y="88"/>
      <point x="312" y="88" type="curve" smooth="yes"/>
    </contour>
  </outline>
</glyph>
<glyph name="c" format="1">
  <advance width="528"/>
  <unicode hex="0063"/>
  <note>
	c
  </note>
  <outline>
    <contour>
      <point x="401" y="-15"/>
      <point x="449" y="3"/>
      <point x="513" y="52" type="curve"/>
      <point x="456" y="146" type="line"/>
      <point x="423" y="121"/>
      <point x="379" y="110"/>
      <point x="329" y="110" type="curve" smooth="yes"/>
      <point x="241" y="110"/>
      <point x="199" y="146"/>
      <point x="199" y="233" type="curve" smooth="yes"/>
      <point x="199" y="329"/>
      <point x="237" y="371"/>
      <point x="292" y="371" type="curve" smooth="yes"/>
      <point x="319" y="371"/>
      <point x="337" y="367"/>
      <point x="354" y="355" type="curve"/>
      <point x="354" y="301" type="line"/>
      <point x="507" y="301" type="line"/>
      <point x="507" y="425" type="line"/>
      <point x="447" y="472"/>
      <point x="392" y="495"/>
      <point x="293" y="495" type="curve" smooth="yes"/>
      <point x="124" y="495"/>
      <point x="15" y="412"/>
      <point x="15" y="233" type="curve" smooth="yes"/>
      <point x="15" y="68"/>
      <point x="138" y="-15"/>
      <point x="291" y="-15" type="curve" smooth="yes"/>
    </contour>
  </outline>
</glyph>
<glyph name="f" format="1">
  <advance width="454"/>
  <unicode hex="0066"/>
  <note>
	f
  </note>
  <outline>
    <contour>
      <point x="310" y="0" type="line"/>
      <point x="310" y="118" type="line"/>
      <point x="301" y="118" type="line" smooth="yes"/>
      <point x="272" y="118"/>
      <point x="263" y="132"/>
      <point x="263" y="156" type="curve" smooth="yes"/>
      <point x="263" y="364" type="line"/>
      <point x="388" y="364" type="line"/>
      <point x="388" y="480" type="line"/>
      <point x="263" y="480" type="line"/>
      <point x="263" y="525" type="line" smooth="yes"/>
      <point x="263" y="555"/>
      <point x="279" y="566"/>
      <point x="309" y="566" type="curve" smooth="yes"/>
      <point x="327" y="566"/>
      <point x="343" y="560"/>
      <point x="354" y="545" type="curve"/>
      <point x="354" y="513" type="line"/>
      <point x="497" y="513" type="line"/>
      <point x="497" y="619" type="line"/>
      <point x="453" y="652"/>
      <point x="387" y="677"/>
      <point x="299" y="677" type="curve" smooth="yes"/>
      <point x="145" y="677"/>
      <point x="76" y="612"/>
      <point x="76" y="501" type="curve" smooth="yes"/>
      <point x="76" y="480" type="line"/>
      <point x="5" y="480" type="line"/>
      <point x="5" y="364" type="line"/>
      <point x="76" y="364" type="line"/>
      <point x="76" y="156" type="line" smooth="yes"/>
      <point x="76" y="132"/>
      <point x="63" y="118"/>
      <point x="34" y="118" type="curve" smooth="yes"/>
      <point x="24" y="118" type="line"/>
      <point x="24" y="0" type="line"/>
    </contour>
  </outline>
</glyph>
<glyph name="p" format="1">
  <advance width="595"/>
  <unicode hex="0070"/>
  <note>
	p
  </note>
  <outline>
    <contour>
      <point x="271" y="-208" type="line"/>
      <point x="271" y="-90" type="line"/>
      <point x="260" y="-90" type="line" smooth="yes"/>
      <point x="231" y="-90"/>
      <point x="219" y="-75"/>
      <point x="219" y="-52" type="curve" smooth="yes"/>
      <point x="219" y="26" type="line"/>
      <point x="260" y="-3"/>
      <point x="292" y="-16"/>
      <point x="358" y="-16" type="curve" smooth="yes"/>
      <point x="502" y="-16"/>
      <point x="580" y="80"/>
      <point x="580" y="247" type="curve" smooth="yes"/>
      <point x="580" y="409"/>
      <point x="488" y="495"/>
      <point x="355" y="495" type="curve" smooth="yes"/>
      <point x="275" y="495"/>
      <point x="223" y="464"/>
      <point x="185" y="415" type="curve"/>
      <point x="176" y="480" type="line"/>
      <point x="5" y="480" type="line"/>
      <point x="5" y="360" type="line"/>
      <point x="15" y="360" type="line" smooth="yes"/>
      <point x="44" y="360"/>
      <point x="57" y="345"/>
      <point x="57" y="322" type="curve" smooth="yes"/>
      <point x="57" y="-52" type="line" smooth="yes"/>
      <point x="57" y="-75"/>
      <point x="44" y="-90"/>
      <point x="15" y="-90" type="curve" smooth="yes"/>
      <point x="5" y="-90" type="line"/>
      <point x="5" y="-208" type="line"/>
    </contour>
    <contour>
      <point x="256" y="93"/>
      <point x="230" y="138"/>
      <point x="230" y="213" type="curve" smooth="yes"/>
      <point x="230" y="268" type="line" smooth="yes"/>
      <point x="230" y="335"/>
      <point x="256" y="391"/>
      <point x="312" y="391" type="curve" smooth="yes"/>
      <point x="380" y="391"/>
      <point x="396" y="345"/>
      <point x="396" y="245" type="curve" smooth="yes"/>
      <point x="396" y="144"/>
      <point x="380" y="93"/>
      <point x="312" y="93" type="curve" smooth="yes"/>
    </contour>
  </outline>
</glyph>
<glyph name="q" format="1">
  <advance width="595"/>
  <unicode hex="0071"/>
  <note>
	q
  </note>
  <outline>
    <contour>
      <point x="590" y="-208" type="line"/>
      <point x="590" y="-90" type="line"/>
      <point x="579" y="-90" type="line" smooth="yes"/>
      <point x="551" y="-90"/>
      <point x="538" y="-75"/>
      <point x="538" y="-52" type="curve" smooth="yes"/>
      <point x="538" y="322" type="line" smooth="yes"/>
      <point x="538" y="345"/>
      <point x="551" y="360"/>
      <point x="579" y="360" type="curve" smooth="yes"/>
      <point x="590" y="360" type="line"/>
      <point x="590" y="480" type="line"/>
      <point x="418" y="480" type="line"/>
      <point x="410" y="408" type="line"/>
      <point x="371" y="467"/>
      <point x="324" y="495"/>
      <point x="239" y="495" type="curve" smooth="yes"/>
      <point x="107" y="495"/>
      <point x="15" y="409"/>
      <point x="15" y="247" type="curve" smooth="yes"/>
      <point x="15" y="80"/>
      <point x="85" y="-15"/>
      <point x="229" y="-15" type="curve" smooth="yes"/>
      <point x="286" y="-15"/>
      <point x="336" y="0"/>
      <point x="376" y="27" type="curve"/>
      <point x="376" y="-208" type="line"/>
    </contour>
    <contour>
      <point x="215" y="94"/>
      <point x="199" y="144"/>
      <point x="199" y="245" type="curve" smooth="yes"/>
      <point x="199" y="345"/>
      <point x="215" y="391"/>
      <point x="283" y="391" type="curve" smooth="yes"/>
      <point x="344" y="391"/>
      <point x="364" y="346"/>
      <point x="364" y="273" type="curve" smooth="yes"/>
      <point x="364" y="213" type="line" smooth="yes"/>
      <point x="364" y="138"/>
      <point x="339" y="94"/>
      <point x="283" y="94" type="curve" smooth="yes"/>
    </contour>
  </outline>
</glyph>
<glyph name="r" format="1">
  <advance width="417"/>
  <unicode hex="0072"/>
  <note>
	r
  </note>
  <outline>
    <contour>
      <point x="302" y="0" type="line"/>
      <point x="302" y="118" type="line"/>
      <point x="292" y="118" type="line" smooth="yes"/>
      <point x="264" y="118"/>
      <point x="255" y="132"/>
      <point x="255" y="156" type="curve" smooth="yes"/>
      <point x="255" y="296" type="line" smooth="yes"/>
      <point x="255" y="340"/>
      <point x="271" y="362"/>
      <point x="318" y="362" type="curve" smooth="yes"/>
      <point x="412" y="362" type="line"/>
      <point x="412" y="480" type="line"/>
      <point x="347" y="480" type="line" smooth="yes"/>
      <point x="313" y="480"/>
      <point x="259" y="468"/>
      <point x="234" y="432" type="curve"/>
      <point x="223" y="480" type="line"/>
      <point x="17" y="480" type="line"/>
      <point x="17" y="362" type="line"/>
      <point x="29" y="362" type="line" smooth="yes"/>
      <point x="58" y="362"/>
      <point x="67" y="347"/>
      <point x="67" y="324" type="curve" smooth="yes"/>
      <point x="67" y="156" type="line" smooth="yes"/>
      <point x="67" y="132"/>
      <point x="55" y="118"/>
      <point x="26" y="118" type="curve" smooth="yes"/>
      <point x="15" y="118" type="line"/>
      <point x="15" y="0" type="line"/>
    </contour>
  </outline>
</glyph>
<glyph name="v" format="1">
  <advance width="565"/>
  <unicode hex="0076"/>
  <note>
	v
  </note>
  <outline>
    <contour>
      <point x="366" y="0" type="line"/>
      <point x="485" y="337" type="line" smooth="yes"/>
      <point x="494" y="362"/>
      <point x="505" y="371"/>
      <point x="547" y="371" type="curve" smooth="yes"/>
      <point x="560" y="371" type="line"/>
      <point x="560" y="480" type="line"/>
      <point x="362" y="480" type="line"/>
      <point x="284" y="199" type="line"/>
      <point x="205" y="480" type="line"/>
      <point x="5" y="480" type="line"/>
      <point x="5" y="371" type="line"/>
      <point x="18" y="371" type="line" smooth="yes"/>
      <point x="60" y="371"/>
      <point x="71" y="362"/>
      <point x="80" y="337" type="curve" smooth="yes"/>
      <point x="200" y="0" type="line"/>
    </contour>
  </outline>
</glyph>
<glyph name="w" format="1">
  <advance width="754"/>
  <unicode hex="0077"/>
  <note>
	w
  </note>
  <outline>
    <contour>
      <point x="310" y="0" type="line"/>
      <point x="377" y="211" type="line"/>
      <point x="444" y="0" type="line"/>
      <point x="597" y="0" type="line"/>
      <point x="678" y="336" type="line" smooth="yes"/>
      <point x="685" y="364"/>
      <point x="701" y="371"/>
      <point x="728" y="371" type="curve" smooth="yes"/>
      <point x="749" y="371" type="line"/>
      <point x="749" y="480" type="line"/>
      <point x="554" y="480" type="line"/>
      <point x="498" y="236" type="line"/>
      <point x="438" y="437" type="line"/>
      <point x="316" y="437" type="line"/>
      <point x="256" y="236" type="line"/>
      <point x="200" y="480" type="line"/>
      <point x="5" y="480" type="line"/>
      <point x="5" y="371" type="line"/>
      <point x="26" y="371" type="line" smooth="yes"/>
      <point x="53" y="371"/>
      <point x="69" y="364"/>
      <point x="76" y="336" type="curve" smooth="yes"/>
      <point x="157" y="0" type="line"/>
    </contour>
  </outline>
</glyph>
<glyph name="x" format="1">
  <advance width="563"/>
  <unicode hex="0078"/>
  <note>
	x
  </note>
  <outline>
    <contour>
      <point x="256" y="0" type="line"/>
      <point x="256" y="86" type="line"/>
      <point x="234" y="86" type="line"/>
      <point x="281" y="154" type="line"/>
      <point x="329" y="86" type="line"/>
      <point x="306" y="86" type="line"/>
      <point x="306" y="0" type="line"/>
      <point x="558" y="0" type="line"/>
      <point x="558" y="87" type="line"/>
      <point x="538" y="87" type="line" smooth="yes"/>
      <point x="508" y="87"/>
      <point x="491" y="93"/>
      <point x="474" y="116" type="curve" smooth="yes"/>
      <point x="379" y="240" type="line"/>
      <point x="474" y="365" type="line" smooth="yes"/>
      <point x="491" y="387"/>
      <point x="508" y="393"/>
      <point x="538" y="393" type="curve" smooth="yes"/>
      <point x="550" y="393" type="line"/>
      <point x="550" y="480" type="line"/>
      <point x="306" y="480" type="line"/>
      <point x="306" y="393" type="line"/>
      <point x="329" y="393" type="line"/>
      <point x="281" y="324" type="line"/>
      <point x="234" y="393" type="line"/>
      <point x="256" y="393" type="line"/>
      <point x="256" y="480" type="line"/>
      <point x="12" y="480" type="line"/>
      <point x="12" y="393" type="line"/>
      <point x="24" y="393" type="line" smooth="yes"/>
      <point x="54" y="393"/>
      <point x="71" y="387"/>
      <point x="88" y="365" type="curve" smooth="yes"/>
      <point x="183" y="240" type="line"/>
      <point x="88" y="116" type="line" smooth="yes"/>
      <point x="71" y="93"/>
      <point x="54" y="87"/>
      <point x="24" y="87" type="curve" smooth="yes"/>
      <point x="5" y="87" type="line"/>
      <point x="5" y="0" type="line"/>
    </contour>
  </outline>
</glyph>
<glyph name="braceleft" format="1">
  <advance width="347"/>
  <unicode hex="007B"/>
  <note>
	braceleft
  </note>
  <outline>
    <contour>
      <point x="322" y="-87" type="line"/>
      <point x="322" y="29" type="line"/>
      <point x="308" y="29" type="line" smooth="yes"/>
      <point x="275" y="29"/>
      <point x="249" y="45"/>
      <point x="249" y="84" type="curve" smooth="yes"/>
      <point x="249" y="241" type="line" smooth="yes"/>
      <point x="249" y="272"/>
      <point x="230" y="308"/>
      <point x="195" y="334" type="curve"/>
      <point x="230" y="362"/>
      <point x="249" y="399"/>
      <point x="249" y="431" type="curve" smooth="yes"/>
      <point x="249" y="581" type="line" smooth="yes"/>
      <point x="249" y="620"/>
      <point x="275" y="636"/>
      <point x="308" y="636" type="curve" smooth="yes"/>
      <point x="322" y="636" type="line"/>
      <point x="322" y="752" type="line"/>
      <point x="244" y="752" type="line" smooth="yes"/>
      <point x="124" y="752"/>
      <point x="65" y="693"/>
      <point x="65" y="592" type="curve" smooth="yes"/>
      <point x="65" y="449" type="line" smooth="yes"/>
      <point x="65" y="410"/>
      <point x="44" y="395"/>
      <point x="6" y="395" type="curve" smooth="yes"/>
      <point x="5" y="395" type="line"/>
      <point x="5" y="278" type="line"/>
      <point x="6" y="278" type="line" smooth="yes"/>
      <point x="44" y="278"/>
      <point x="65" y="262"/>
      <point x="65" y="223" type="curve" smooth="yes"/>
      <point x="65" y="73" type="line" smooth="yes"/>
      <point x="65" y="-28"/>
      <point x="124" y="-87"/>
      <point x="244" y="-87" type="curve" smooth="yes"/>
    </contour>
  </outline>
</glyph>
<glyph name="bar" format="1">
  <advance width="235"/>
  <unicode hex="007C"/>
  <note>
	bar
  </note>
  <outline>
    <contour>
      <point x="210" y="-120" type="line"/>
      <point x="210" y="767" type="line"/>
      <point x="25" y="767" type="line"/>
      <point x="25" y="-120" type="line"/>
    </contour>
  </outline>
</glyph>
<glyph name="braceright" format="1">
  <advance width="348"/>
  <unicode hex="007D"/>
  <note>
	braceright
  </note>
  <outline>
    <contour>
      <point x="104" y="-83" type="line" smooth="yes"/>
      <point x="224" y="-83"/>
      <point x="282" y="-24"/>
      <point x="282" y="77" type="curve" smooth="yes"/>
      <point x="282" y="226" type="line" smooth="yes"/>
      <point x="282" y="265"/>
      <point x="294" y="281"/>
      <point x="333" y="281" type="curve" smooth="yes"/>
      <point x="343" y="281" type="line"/>
      <point x="343" y="396" type="line"/>
      <point x="333" y="396" type="line" smooth="yes"/>
      <point x="294" y="396"/>
      <point x="282" y="411"/>
      <point x="282" y="450" type="curve" smooth="yes"/>
      <point x="282" y="590" type="line" smooth="yes"/>
      <point x="282" y="691"/>
      <point x="224" y="750"/>
      <point x="104" y="750" type="curve" smooth="yes"/>
      <point x="25" y="750" type="line"/>
      <point x="25" y="634" type="line"/>
      <point x="39" y="634" type="line" smooth="yes"/>
      <point x="72" y="634"/>
      <point x="98" y="618"/>
      <point x="98" y="579" type="curve" smooth="yes"/>
      <point x="98" y="448" type="line" smooth="yes"/>
      <point x="98" y="398"/>
      <point x="113" y="359"/>
      <point x="153" y="336" type="curve"/>
      <point x="113" y="313"/>
      <point x="98" y="274"/>
      <point x="98" y="224" type="curve" smooth="yes"/>
      <point x="98" y="88" type="line" smooth="yes"/>
      <point x="98" y="49"/>
      <point x="72" y="33"/>
      <point x="39" y="33" type="curve" smooth="yes"/>
      <point x="25" y="33" type="line"/>
      <point x="25" y="-83" type="line"/>
    </contour>
  </outline>
</glyph>
<glyph name="asciitilde" format="1">
  <advance width="555"/>
  <unicode hex="007E"/>
  <note>
	asciitilde
  </note>
  <outline>
    <contour>
      <point x="165" y="220" type="line"/>
      <point x="165" y="249"/>
      <point x="181" y="266"/>
      <point x="209" y="266" type="curve" smooth="yes"/>
      <point x="260" y="266"/>
      <point x="295" y="220"/>
      <point x="390" y="220" type="curve" smooth="yes"/>
      <point x="486" y="220"/>
      <point x="530" y="278"/>
      <point x="530" y="405" type="curve"/>
      <point x="390" y="405" type="line"/>
      <point x="390" y="377"/>
      <point x="377" y="359"/>
      <point x="347" y="359" type="curve" smooth="yes"/>
      <point x="289" y="359"/>
      <point x="253" y="405"/>
      <point x="169" y="405" type="curve" smooth="yes"/>
      <point x="73" y="405"/>
      <point x="25" y="344"/>
      <point x="25" y="220" type="curve"/>
    </contour>
  </outline>
</glyph>
<glyph name="exclamdown" format="1">
  <advance width="249"/>
  <unicode hex="00A1"/>
  <note>
	exclamdown
  </note>
  <outline>
    <contour>
      <point x="221" y="-152" type="line"/>
      <point x="214" y="268" type="line"/>
      <point x="35" y="268" type="line"/>
      <point x="28" y="-152" type="line"/>
    </contour>
    <contour>
      <point x="224" y="362" type="line"/>
      <point x="224" y="495" type="line"/>
      <point x="25" y="495" type="line"/>
      <point x="25" y="362" type="line"/>
    </contour>
  </outline>
</glyph>
<glyph name="cent" format="1">
  <advance width="528"/>
  <unicode hex="00A2"/>
  <note>
	cent
  </note>
  <outline>
    <contour>
      <point x="360" y="-90" type="line"/>
      <point x="360" y="-12" type="line"/>
      <point x="424" y="-5"/>
      <point x="464" y="14"/>
      <point x="513" y="52" type="curve"/>
      <point x="456" y="146" type="line"/>
      <point x="423" y="121"/>
      <point x="379" y="110"/>
      <point x="329" y="110" type="curve" smooth="yes"/>
      <point x="241" y="110"/>
      <point x="199" y="146"/>
      <point x="199" y="233" type="curve" smooth="yes"/>
      <point x="199" y="329"/>
      <point x="237" y="371"/>
      <point x="292" y="371" type="curve" smooth="yes"/>
      <point x="319" y="371"/>
      <point x="337" y="367"/>
      <point x="354" y="355" type="curve"/>
      <point x="354" y="301" type="line"/>
      <point x="507" y="301" type="line"/>
      <point x="507" y="425" type="line"/>
      <point x="462" y="460"/>
      <point x="420" y="482"/>
      <point x="360" y="490" type="curve"/>
      <point x="360" y="570" type="line"/>
      <point x="195" y="570" type="line"/>
      <point x="195" y="484" type="line"/>
      <point x="83" y="456"/>
      <point x="15" y="374"/>
      <point x="15" y="233" type="curve" smooth="yes"/>
      <point x="15" y="104"/>
      <point x="89" y="25"/>
      <point x="195" y="-3" type="curve"/>
      <point x="195" y="-90" type="line"/>
    </contour>
  </outline>
</glyph>
<glyph name="sterling" format="1">
  <advance width="525"/>
  <unicode hex="00A3"/>
  <note>
	sterling
  </note>
  <outline>
    <contour>
      <point x="520" y="0" type="line"/>
      <point x="520" y="118" type="line"/>
      <point x="267" y="118" type="line"/>
      <point x="282" y="132"/>
      <point x="286" y="152"/>
      <point x="286" y="173" type="curve" smooth="yes"/>
      <point x="286" y="325" type="line"/>
      <point x="441" y="325" type="line"/>
      <point x="441" y="441" type="line"/>
      <point x="286" y="441" type="line"/>
      <point x="286" y="504" type="line" smooth="yes"/>
      <point x="286" y="534"/>
      <point x="301" y="551"/>
      <point x="335" y="551" type="curve" smooth="yes"/>
      <point x="356" y="551"/>
      <point x="368" y="544"/>
      <point x="377" y="530" type="curve"/>
      <point x="377" y="498" type="line"/>
      <point x="520" y="498" type="line"/>
      <point x="520" y="604" type="line"/>
      <point x="476" y="637"/>
      <point x="410" y="662"/>
      <point x="322" y="662" type="curve" smooth="yes"/>
      <point x="168" y="662"/>
      <point x="99" y="597"/>
      <point x="99" y="486" type="curve" smooth="yes"/>
      <point x="99" y="441" type="line"/>
      <point x="25" y="441" type="line"/>
      <point x="25" y="325" type="line"/>
      <point x="99" y="325" type="line"/>
      <point x="99" y="160" type="line" smooth="yes"/>
      <point x="99" y="129"/>
      <point x="86" y="118"/>
      <point x="56" y="118" type="curve" smooth="yes"/>
      <point x="27" y="118" type="line"/>
      <point x="27" y="0" type="line"/>
    </contour>
  </outline>
</glyph>
<glyph name="currency" format="1">
  <advance width="646"/>
  <unicode hex="00A4"/>
  <note>
	currency
  </note>
  <outline>
    <contour>
      <point x="234" y="119" type="line"/>
      <point x="261" y="108"/>
      <point x="291" y="102"/>
      <point x="323" y="102" type="curve" smooth="yes"/>
      <point x="354" y="102"/>
      <point x="384" y="108"/>
      <point x="411" y="119" type="curve"/>
      <point x="509" y="30" type="line"/>
      <point x="613" y="138" type="line"/>
      <point x="524" y="218" type="line"/>
      <point x="543" y="252"/>
      <point x="554" y="290"/>
      <point x="554" y="332" type="curve" smooth="yes"/>
      <point x="554" y="368"/>
      <point x="546" y="403"/>
      <point x="531" y="433" type="curve"/>
      <point x="621" y="516" type="line"/>
      <point x="518" y="623" type="line"/>
      <point x="426" y="539" type="line"/>
      <point x="395" y="554"/>
      <point x="360" y="563"/>
      <point x="323" y="563" type="curve" smooth="yes"/>
      <point x="286" y="563"/>
      <point x="251" y="554"/>
      <point x="220" y="539" type="curve"/>
      <point x="129" y="623" type="line"/>
      <point x="25" y="516" type="line"/>
      <point x="115" y="433" type="line"/>
      <point x="101" y="402"/>
      <point x="93" y="368"/>
      <point x="93" y="332" type="curve" smooth="yes"/>
      <point x="93" y="290"/>
      <point x="103" y="252"/>
      <point x="122" y="218" type="curve"/>
      <point x="34" y="138" type="line"/>
      <point x="137" y="30" type="line"/>
    </contour>
    <contour>
      <point x="275" y="246"/>
      <point x="237" y="284"/>
      <point x="237" y="332" type="curve" smooth="yes"/>
      <point x="237" y="380"/>
      <point x="275" y="419"/>
      <point x="323" y="419" type="curve" smooth="yes"/>
      <point x="371" y="419"/>
      <point x="410" y="380"/>
      <point x="410" y="332" type="curve" smooth="yes"/>
      <point x="410" y="284"/>
      <point x="371" y="246"/>
      <point x="323" y="246" type="curve" smooth="yes"/>
    </contour>
  </outline>
</glyph>
<glyph name="yen" format="1">
  <advance width="670"/>
  <unicode hex="00A5"/>
  <note>
	yen
  </note>
  <outline>
    <contour>
      <point x="538" y="282" type="line"/>
      <point x="538" y="382" type="line"/>
      <point x="502" y="382" type="line"/>
      <point x="558" y="485" type="line" smooth="yes"/>
      <point x="577" y="520"/>
      <point x="591" y="532"/>
      <point x="633" y="532" type="curve" smooth="yes"/>
      <point x="655" y="532" type="line"/>
      <point x="655" y="647" type="line"/>
      <point x="366" y="647" type="line"/>
      <point x="366" y="532" type="line"/>
      <point x="394" y="532" type="line"/>
      <point x="337" y="382" type="line"/>
      <point x="276" y="532" type="line"/>
      <point x="304" y="532" type="line"/>
      <point x="304" y="647" type="line"/>
      <point x="15" y="647" type="line"/>
      <point x="15" y="532" type="line"/>
      <point x="37" y="532" type="line" smooth="yes"/>
      <point x="78" y="532"/>
      <point x="92" y="521"/>
      <point x="111" y="486" type="curve" smooth="yes"/>
      <point x="167" y="382" type="line"/>
      <point x="132" y="382" type="line"/>
      <point x="132" y="282" type="line"/>
    </contour>
    <contour>
      <point x="489" y="0" type="line"/>
      <point x="489" y="116" type="line"/>
      <point x="468" y="116" type="line" smooth="yes"/>
      <point x="440" y="116"/>
      <point x="427" y="130"/>
      <point x="427" y="153" type="curve"/>
      <point x="538" y="153" type="line"/>
      <point x="538" y="253" type="line"/>
      <point x="132" y="253" type="line"/>
      <point x="132" y="153" type="line"/>
      <point x="243" y="153" type="line"/>
      <point x="242" y="128"/>
      <point x="229" y="116"/>
      <point x="202" y="116" type="curve" smooth="yes"/>
      <point x="181" y="116" type="line"/>
      <point x="181" y="0" type="line"/>
    </contour>
  </outline>
</glyph>
<glyph name="brokenbar" format="1">
  <advance width="234"/>
  <unicode hex="00A6"/>
  <note>
	brokenbar
  </note>
  <outline>
    <contour>
      <point x="209" y="395" type="line"/>
      <point x="209" y="767" type="line"/>
      <point x="25" y="767" type="line"/>
      <point x="25" y="395" type="line"/>
    </contour>
    <contour>
      <point x="209" y="-120" type="line"/>
      <point x="209" y="251" type="line"/>
      <point x="25" y="251" type="line"/>
      <point x="25" y="-120" type="line"/>
    </contour>
  </outline>
</glyph>
<glyph name="section" format="1">
  <advance width="536"/>
  <unicode hex="00A7"/>
  <note>
	section
  </note>
  <outline>
    <contour>
      <point x="442" y="-156"/>
      <point x="531" y="-74"/>
      <point x="531" y="32" type="curve" smooth="yes"/>
      <point x="531" y="74"/>
      <point x="522" y="105"/>
      <point x="499" y="131" type="curve"/>
      <point x="522" y="158"/>
      <point x="531" y="189"/>
      <point x="531" y="223" type="curve" smooth="yes"/>
      <point x="531" y="343"/>
      <point x="463" y="372"/>
      <point x="312" y="435" type="curve" smooth="yes"/>
      <point x="252" y="460"/>
      <point x="193" y="480"/>
      <point x="193" y="535" type="curve" smooth="yes"/>
      <point x="193" y="580"/>
      <point x="222" y="595"/>
      <point x="265" y="595" type="curve" smooth="yes"/>
      <point x="291" y="595"/>
      <point x="312" y="591"/>
      <point x="334" y="578" type="curve"/>
      <point x="334" y="510" type="line"/>
      <point x="520" y="510" type="line"/>
      <point x="520" y="622" type="line"/>
      <point x="467" y="670"/>
      <point x="398" y="712"/>
      <point x="275" y="712" type="curve" smooth="yes"/>
      <point x="131" y="712"/>
      <point x="10" y="654"/>
      <point x="10" y="528" type="curve" smooth="yes"/>
      <point x="10" y="489"/>
      <point x="20" y="457"/>
      <point x="43" y="430" type="curve"/>
      <point x="20" y="405"/>
      <point x="10" y="373"/>
      <point x="10" y="337" type="curve" smooth="yes"/>
      <point x="10" y="228"/>
      <point x="86" y="179"/>
      <point x="219" y="121" type="curve" smooth="yes"/>
      <point x="304" y="84"/>
      <point x="348" y="67"/>
      <point x="348" y="22" type="curve" smooth="yes"/>
      <point x="348" y="-22"/>
      <point x="323" y="-39"/>
      <point x="275" y="-39" type="curve" smooth="yes"/>
      <point x="240" y="-39"/>
      <point x="215" y="-34"/>
      <point x="191" y="-21" type="curve"/>
      <point x="191" y="56" type="line"/>
      <point x="5" y="56" type="line"/>
      <point x="5" y="-69" type="line"/>
      <point x="69" y="-122"/>
      <point x="156" y="-156"/>
      <point x="275" y="-156" type="curve" smooth="yes"/>
    </contour>
    <contour>
      <point x="352" y="221"/>
      <point x="303" y="239"/>
      <point x="277" y="251" type="curve" smooth="yes"/>
      <point x="201" y="286"/>
      <point x="178" y="295"/>
      <point x="178" y="333" type="curve"/>
      <point x="222" y="315"/>
      <point x="249" y="301"/>
      <point x="267" y="293" type="curve" smooth="yes"/>
      <point x="333" y="263"/>
      <point x="367" y="248"/>
      <point x="365" y="217" type="curve"/>
    </contour>
  </outline>
</glyph>
<glyph name="dieresis" format="1">
  <advance width="445"/>
  <unicode hex="00A8"/>
  <note>
	dieresis
  </note>
  <outline>
    <contour>
      <point x="420" y="511" type="line"/>
      <point x="420" y="648" type="line"/>
      <point x="295" y="648" type="line"/>
      <point x="295" y="511" type="line"/>
    </contour>
    <contour>
      <point x="149" y="511" type="line"/>
      <point x="149" y="648" type="line"/>
      <point x="25" y="648" type="line"/>
      <point x="25" y="511" type="line"/>
    </contour>
  </outline>
</glyph>
<glyph name="copyright" format="1">
  <advance width="765"/>
  <unicode hex="00A9"/>
  <note>
	copyright
  </note>
  <outline>
    <contour>
      <point x="580" y="-12"/>
      <point x="740" y="147"/>
      <point x="740" y="345" type="curve" smooth="yes"/>
      <point x="740" y="543"/>
      <point x="580" y="703"/>
      <point x="382" y="703" type="curve" smooth="yes"/>
      <point x="184" y="703"/>
      <point x="25" y="543"/>
      <point x="25" y="345" type="curve" smooth="yes"/>
      <point x="25" y="147"/>
      <point x="184" y="-12"/>
      <point x="382" y="-12" type="curve" smooth="yes"/>
    </contour>
    <contour>
      <point x="470" y="114"/>
      <point x="524" y="150"/>
      <point x="558" y="190" type="curve"/>
      <point x="513" y="266" type="line"/>
      <point x="489" y="237"/>
      <point x="448" y="216"/>
      <point x="407" y="216" type="curve" smooth="yes"/>
      <point x="336" y="216"/>
      <point x="311" y="263"/>
      <point x="311" y="338" type="curve" smooth="yes"/>
      <point x="311" y="422"/>
      <point x="336" y="469"/>
      <point x="380" y="469" type="curve" smooth="yes"/>
      <point x="402" y="469"/>
      <point x="414" y="463"/>
      <point x="428" y="453" type="curve"/>
      <point x="428" y="409" type="line"/>
      <point x="552" y="409" type="line"/>
      <point x="552" y="509" type="line"/>
      <point x="501" y="551"/>
      <point x="465" y="570"/>
      <point x="381" y="570" type="curve" smooth="yes"/>
      <point x="250" y="570"/>
      <point x="162" y="483"/>
      <point x="162" y="338" type="curve" smooth="yes"/>
      <point x="162" y="205"/>
      <point x="261" y="114"/>
      <point x="381" y="114" type="curve" smooth="yes"/>
    </contour>
    <contour>
      <point x="229" y="88"/>
      <point x="135" y="202"/>
      <point x="135" y="345" type="curve" smooth="yes"/>
      <point x="135" y="488"/>
      <point x="229" y="603"/>
      <point x="382" y="603" type="curve" smooth="yes"/>
      <point x="535" y="603"/>
      <point x="630" y="488"/>
      <point x="630" y="345" type="curve" smooth="yes"/>
      <point x="630" y="202"/>
      <point x="535" y="88"/>
      <point x="382" y="88" type="curve" smooth="yes"/>
    </contour>
  </outline>
</glyph>
<glyph name="ordfeminine" format="1">
  <advance width="383"/>
  <unicode hex="00AA"/>
  <note>
	ordfeminine
  </note>
  <outline>
    <contour>
      <point x="197" y="335"/>
      <point x="224" y="345"/>
      <point x="256" y="381" type="curve"/>
      <point x="267" y="345" type="line"/>
      <point x="358" y="345" type="line"/>
      <point x="358" y="417" type="line"/>
      <point x="350" y="417" type="line" smooth="yes"/>
      <point x="336" y="417"/>
      <point x="330" y="424"/>
      <point x="330" y="439" type="curve" smooth="yes"/>
      <point x="330" y="549" type="line" smooth="yes"/>
      <point x="330" y="614"/>
      <point x="286" y="662"/>
      <point x="187" y="662" type="curve" smooth="yes"/>
      <point x="134" y="662"/>
      <point x="88" y="646"/>
      <point x="53" y="624" type="curve"/>
      <point x="53" y="556" type="line"/>
      <point x="152" y="556" type="line"/>
      <point x="152" y="578" type="line"/>
      <point x="160" y="587"/>
      <point x="169" y="591"/>
      <point x="181" y="591" type="curve" smooth="yes"/>
      <point x="199" y="591"/>
      <point x="210" y="582"/>
      <point x="210" y="562" type="curve" smooth="yes"/>
      <point x="210" y="533" type="line"/>
      <point x="154" y="529" type="line" smooth="yes"/>
      <point x="72" y="523"/>
      <point x="25" y="490"/>
      <point x="25" y="424" type="curve" smooth="yes"/>
      <point x="25" y="370"/>
      <point x="62" y="335"/>
      <point x="139" y="335" type="curve" smooth="yes"/>
    </contour>
    <contour>
      <point x="144" y="407"/>
      <point x="133" y="418"/>
      <point x="133" y="435" type="curve" smooth="yes"/>
      <point x="133" y="452"/>
      <point x="142" y="463"/>
      <point x="167" y="465" type="curve" smooth="yes"/>
      <point x="210" y="469" type="line"/>
      <point x="210" y="447" type="line" smooth="yes"/>
      <point x="210" y="421"/>
      <point x="196" y="407"/>
      <point x="166" y="407" type="curve" smooth="yes"/>
    </contour>
  </outline>
</glyph>
<glyph name="guillemetleft" format="1">
  <advance width="660"/>
  <unicode hex="00AB"/>
  <note>
	guillemotleft
  </note>
  <outline>
    <contour>
      <point x="635" y="195" type="line"/>
      <point x="482" y="326" type="line"/>
      <point x="635" y="458" type="line"/>
      <point x="635" y="640" type="line"/>
      <point x="292" y="355" type="line"/>
      <point x="292" y="298" type="line"/>
      <point x="635" y="12" type="line"/>
    </contour>
    <contour>
      <point x="368" y="195" type="line"/>
      <point x="215" y="326" type="line"/>
      <point x="368" y="458" type="line"/>
      <point x="368" y="640" type="line"/>
      <point x="25" y="355" type="line"/>
      <point x="25" y="298" type="line"/>
      <point x="368" y="12" type="line"/>
    </contour>
  </outline>
</glyph>
<glyph name="logicalnot" format="1">
  <advance width="495"/>
  <unicode hex="00AC"/>
  <note>
	logicalnot
  </note>
  <outline>
    <contour>
      <point x="470" y="128" type="line"/>
      <point x="470" y="366" type="line"/>
      <point x="25" y="366" type="line"/>
      <point x="25" y="250" type="line"/>
      <point x="328" y="250" type="line"/>
      <point x="328" y="128" type="line"/>
    </contour>
  </outline>
</glyph>
<glyph name="softhyphen" format="1">
  <advance width="366"/>
  <unicode hex="00AD"/>
  <note>
	softhyphen
  </note>
  <outline>
    <contour>
      <point x="341" y="241" type="line"/>
      <point x="341" y="358" type="line"/>
      <point x="25" y="358" type="line"/>
      <point x="25" y="241" type="line"/>
    </contour>
  </outline>
</glyph>
<glyph name="registered" format="1">
  <advance width="765"/>
  <unicode hex="00AE"/>
  <note>
	registered
  </note>
  <outline>
    <contour>
      <point x="580" y="-12"/>
      <point x="740" y="147"/>
      <point x="740" y="345" type="curve" smooth="yes"/>
      <point x="740" y="543"/>
      <point x="580" y="703"/>
      <point x="382" y="703" type="curve" smooth="yes"/>
      <point x="184" y="703"/>
      <point x="25" y="543"/>
      <point x="25" y="345" type="curve" smooth="yes"/>
      <point x="25" y="147"/>
      <point x="184" y="-12"/>
      <point x="382" y="-12" type="curve" smooth="yes"/>
    </contour>
    <contour>
      <point x="229" y="88"/>
      <point x="135" y="202"/>
      <point x="135" y="345" type="curve" smooth="yes"/>
      <point x="135" y="488"/>
      <point x="229" y="603"/>
      <point x="382" y="603" type="curve" smooth="yes"/>
      <point x="535" y="603"/>
      <point x="630" y="488"/>
      <point x="630" y="345" type="curve" smooth="yes"/>
      <point x="630" y="202"/>
      <point x="535" y="88"/>
      <point x="382" y="88" type="curve" smooth="yes"/>
    </contour>
    <contour>
      <point x="381" y="166" type="line"/>
      <point x="381" y="250" type="line"/>
      <point x="374" y="250" type="line" smooth="yes"/>
      <point x="358" y="250"/>
      <point x="354" y="257"/>
      <point x="354" y="279" type="curve" smooth="yes"/>
      <point x="354" y="302" type="line"/>
      <point x="383" y="302" type="line"/>
      <point x="410" y="250" type="line"/>
      <point x="392" y="250" type="line"/>
      <point x="392" y="166" type="line"/>
      <point x="564" y="166" type="line"/>
      <point x="564" y="250" type="line"/>
      <point x="556" y="250" type="line" smooth="yes"/>
      <point x="543" y="250"/>
      <point x="537" y="253"/>
      <point x="526" y="269" type="curve"/>
      <point x="501" y="316" type="line"/>
      <point x="540" y="335"/>
      <point x="557" y="372"/>
      <point x="557" y="417" type="curve" smooth="yes"/>
      <point x="557" y="487"/>
      <point x="500" y="530"/>
      <point x="406" y="530" type="curve" smooth="yes"/>
      <point x="207" y="530" type="line"/>
      <point x="207" y="444" type="line"/>
      <point x="212" y="444" type="line" smooth="yes"/>
      <point x="231" y="444"/>
      <point x="237" y="437"/>
      <point x="237" y="415" type="curve" smooth="yes"/>
      <point x="237" y="279" type="line" smooth="yes"/>
      <point x="237" y="257"/>
      <point x="231" y="250"/>
      <point x="212" y="250" type="curve" smooth="yes"/>
      <point x="207" y="250" type="line"/>
      <point x="207" y="166" type="line"/>
    </contour>
    <contour>
      <point x="373" y="444" type="line"/>
      <point x="401" y="444" type="line" smooth="yes"/>
      <point x="414" y="444"/>
      <point x="422" y="434"/>
      <point x="422" y="413" type="curve" smooth="yes"/>
      <point x="422" y="392"/>
      <point x="414" y="383"/>
      <point x="401" y="383" type="curve" smooth="yes"/>
      <point x="373" y="383" type="line"/>
    </contour>
  </outline>
</glyph>
<glyph name="macron" format="1">
  <advance width="423"/>
  <unicode hex="00AF"/>
  <note>
	macron
  </note>
  <outline>
    <contour>
      <point x="398" y="523" type="line"/>
      <point x="398" y="628" type="line"/>
      <point x="25" y="628" type="line"/>
      <point x="25" y="523" type="line"/>
    </contour>
  </outline>
</glyph>
<glyph name="degree" format="1">
  <advance width="330"/>
  <unicode hex="00B0"/>
  <note>
	degree
  </note>
  <outline>
    <contour>
      <point x="242" y="399"/>
      <point x="305" y="462"/>
      <point x="305" y="538" type="curve" smooth="yes"/>
      <point x="305" y="616"/>
      <point x="242" y="679"/>
      <point x="164" y="679" type="curve" smooth="yes"/>
      <point x="88" y="679"/>
      <point x="25" y="616"/>
      <point x="25" y="538" type="curve" smooth="yes"/>
      <point x="25" y="462"/>
      <point x="88" y="399"/>
      <point x="164" y="399" type="curve" smooth="yes"/>
    </contour>
    <contour>
      <point x="143" y="501"/>
      <point x="127" y="517"/>
      <point x="127" y="539" type="curve" smooth="yes"/>
      <point x="127" y="561"/>
      <point x="143" y="577"/>
      <point x="165" y="577" type="curve" smooth="yes"/>
      <point x="187" y="577"/>
      <point x="203" y="561"/>
      <point x="203" y="539" type="curve" smooth="yes"/>
      <point x="203" y="517"/>
      <point x="187" y="501"/>
      <point x="165" y="501" type="curve" smooth="yes"/>
    </contour>
  </outline>
</glyph>
<glyph name="plusminus" format="1">
  <advance width="414"/>
  <unicode hex="00B1"/>
  <note>
	plusminus
  </note>
  <outline>
    <contour>
      <point x="277" y="173" type="line"/>
      <point x="277" y="272" type="line"/>
      <point x="389" y="272" type="line"/>
      <point x="389" y="388" type="line"/>
      <point x="277" y="388" type="line"/>
      <point x="277" y="487" type="line"/>
      <point x="135" y="487" type="line"/>
      <point x="135" y="388" type="line"/>
      <point x="25" y="388" type="line"/>
      <point x="25" y="272" type="line"/>
      <point x="135" y="272" type="line"/>
      <point x="135" y="173" type="line"/>
    </contour>
    <contour>
      <point x="389" y="12" type="line"/>
      <point x="389" y="128" type="line"/>
      <point x="25" y="128" type="line"/>
      <point x="25" y="12" type="line"/>
    </contour>
  </outline>
</glyph>
<glyph name="twosuperior" format="1">
  <advance width="327"/>
  <unicode hex="00B2"/>
  <note>
	twosuperior
  </note>
  <outline>
    <contour>
      <point x="302" y="345" type="line"/>
      <point x="302" y="425" type="line"/>
      <point x="173" y="425" type="line"/>
      <point x="173" y="439"/>
      <point x="204" y="454"/>
      <point x="231" y="470" type="curve" smooth="yes"/>
      <point x="283" y="502"/>
      <point x="301" y="521"/>
      <point x="301" y="570" type="curve" smooth="yes"/>
      <point x="301" y="633"/>
      <point x="245" y="662"/>
      <point x="165" y="662" type="curve" smooth="yes"/>
      <point x="120" y="662"/>
      <point x="58" y="648"/>
      <point x="25" y="626" type="curve"/>
      <point x="25" y="554" type="line"/>
      <point x="132" y="554" type="line"/>
      <point x="132" y="586" type="line"/>
      <point x="137" y="589"/>
      <point x="145" y="591"/>
      <point x="153" y="591" type="curve" smooth="yes"/>
      <point x="171" y="591"/>
      <point x="178" y="582"/>
      <point x="178" y="566" type="curve" smooth="yes"/>
      <point x="178" y="539"/>
      <point x="153" y="524"/>
      <point x="116" y="502" type="curve" smooth="yes"/>
      <point x="50" y="463"/>
      <point x="25" y="437"/>
      <point x="25" y="376" type="curve" smooth="yes"/>
      <point x="25" y="345" type="line"/>
    </contour>
  </outline>
</glyph>
<glyph name="threesuperior" format="1">
  <advance width="338"/>
  <unicode hex="00B3"/>
  <note>
	threesuperior
  </note>
  <outline>
    <contour>
      <point x="279" y="335"/>
      <point x="313" y="375"/>
      <point x="313" y="439" type="curve" smooth="yes"/>
      <point x="313" y="467"/>
      <point x="301" y="491"/>
      <point x="271" y="504" type="curve"/>
      <point x="303" y="519"/>
      <point x="309" y="550"/>
      <point x="309" y="574" type="curve" smooth="yes"/>
      <point x="309" y="625"/>
      <point x="268" y="662"/>
      <point x="160" y="662" type="curve" smooth="yes"/>
      <point x="105" y="662"/>
      <point x="56" y="644"/>
      <point x="31" y="625" type="curve"/>
      <point x="31" y="557" type="line"/>
      <point x="135" y="557" type="line"/>
      <point x="135" y="586" type="line"/>
      <point x="142" y="589"/>
      <point x="153" y="591"/>
      <point x="161" y="591" type="curve" smooth="yes"/>
      <point x="184" y="591"/>
      <point x="191" y="583"/>
      <point x="191" y="568" type="curve" smooth="yes"/>
      <point x="191" y="544"/>
      <point x="180" y="539"/>
      <point x="159" y="539" type="curve" smooth="yes"/>
      <point x="126" y="539" type="line"/>
      <point x="126" y="468" type="line"/>
      <point x="159" y="468" type="line" smooth="yes"/>
      <point x="184" y="468"/>
      <point x="194" y="461"/>
      <point x="194" y="436" type="curve" smooth="yes"/>
      <point x="194" y="414"/>
      <point x="184" y="406"/>
      <point x="160" y="406" type="curve" smooth="yes"/>
      <point x="149" y="406"/>
      <point x="137" y="408"/>
      <point x="129" y="412" type="curve"/>
      <point x="129" y="446" type="line"/>
      <point x="25" y="446" type="line"/>
      <point x="25" y="376" type="line"/>
      <point x="55" y="353"/>
      <point x="101" y="335"/>
      <point x="163" y="335" type="curve" smooth="yes"/>
    </contour>
  </outline>
</glyph>
<glyph name="acute" format="1">
  <advance width="332"/>
  <unicode hex="00B4"/>
  <note>
	acute
  </note>
  <outline>
    <contour>
      <point x="181" y="499" type="line"/>
      <point x="307" y="702" type="line"/>
      <point x="112" y="702" type="line"/>
      <point x="25" y="499" type="line"/>
    </contour>
  </outline>
</glyph>
<glyph name="paragraph" format="1">
  <advance width="711"/>
  <unicode hex="00B6"/>
  <note>
	paragraph
  </note>
  <outline>
    <contour>
      <point x="385" y="-156" type="line"/>
      <point x="385" y="533" type="line"/>
      <point x="440" y="533" type="line"/>
      <point x="440" y="-156" type="line"/>
      <point x="686" y="-156" type="line"/>
      <point x="686" y="-39" type="line"/>
      <point x="665" y="-39" type="line" smooth="yes"/>
      <point x="637" y="-39"/>
      <point x="625" y="-25"/>
      <point x="625" y="1" type="curve" smooth="yes"/>
      <point x="625" y="493" type="line" smooth="yes"/>
      <point x="625" y="519"/>
      <point x="637" y="533"/>
      <point x="665" y="533" type="curve" smooth="yes"/>
      <point x="686" y="533" type="line"/>
      <point x="686" y="647" type="line"/>
      <point x="242" y="647" type="line" smooth="yes"/>
      <point x="95" y="647"/>
      <point x="25" y="575"/>
      <point x="25" y="456" type="curve" smooth="yes"/>
      <point x="25" y="366"/>
      <point x="91" y="286"/>
      <point x="201" y="286" type="curve"/>
      <point x="201" y="1" type="line" smooth="yes"/>
      <point x="201" y="-25"/>
      <point x="189" y="-39"/>
      <point x="161" y="-39" type="curve" smooth="yes"/>
      <point x="140" y="-39" type="line"/>
      <point x="140" y="-156" type="line"/>
    </contour>
  </outline>
</glyph>
<glyph name="periodcentered" format="1">
  <advance width="178"/>
  <unicode hex="00B7"/>
  <note>
	periodcentered
  </note>
  <outline>
    <contour>
      <point x="153" y="249" type="line"/>
      <point x="153" y="365" type="line"/>
      <point x="25" y="365" type="line"/>
      <point x="25" y="249" type="line"/>
    </contour>
  </outline>
</glyph>
<glyph name="cedilla" format="1">
  <advance width="323"/>
  <unicode hex="00B8"/>
  <note>
	cedilla
  </note>
  <outline>
    <contour>
      <point x="252" y="-228"/>
      <point x="298" y="-187"/>
      <point x="298" y="-123" type="curve" smooth="yes"/>
      <point x="298" y="-75"/>
      <point x="274" y="-47"/>
      <point x="224" y="-36" type="curve"/>
      <point x="230" y="0" type="line"/>
      <point x="60" y="0" type="line"/>
      <point x="49" y="-77" type="line"/>
      <point x="123" y="-77"/>
      <point x="140" y="-90"/>
      <point x="140" y="-114" type="curve" smooth="yes"/>
      <point x="140" y="-125"/>
      <point x="133" y="-133"/>
      <point x="109" y="-133" type="curve" smooth="yes"/>
      <point x="89" y="-133"/>
      <point x="55" y="-129"/>
      <point x="25" y="-113" type="curve"/>
      <point x="25" y="-208" type="line"/>
      <point x="60" y="-224"/>
      <point x="90" y="-228"/>
      <point x="132" y="-228" type="curve" smooth="yes"/>
    </contour>
  </outline>
</glyph>
<glyph name="onesuperior" format="1">
  <advance width="262"/>
  <unicode hex="00B9"/>
  <note>
	onesuperior
  </note>
  <outline>
    <contour>
      <point x="247" y="345" type="line"/>
      <point x="247" y="425" type="line"/>
      <point x="217" y="425" type="line" smooth="yes"/>
      <point x="203" y="425"/>
      <point x="198" y="431"/>
      <point x="198" y="444" type="curve" smooth="yes"/>
      <point x="198" y="657" type="line"/>
      <point x="108" y="657" type="line"/>
      <point x="15" y="599" type="line"/>
      <point x="56" y="531" type="line"/>
      <point x="89" y="551" type="line"/>
      <point x="89" y="444" type="line" smooth="yes"/>
      <point x="89" y="431"/>
      <point x="83" y="425"/>
      <point x="69" y="425" type="curve" smooth="yes"/>
      <point x="39" y="425" type="line"/>
      <point x="39" y="345" type="line"/>
    </contour>
  </outline>
</glyph>
<glyph name="ordmasculine" format="1">
  <advance width="389"/>
  <unicode hex="00BA"/>
  <note>
	ordmasculine
  </note>
  <outline>
    <contour>
      <point x="299" y="335"/>
      <point x="364" y="389"/>
      <point x="364" y="498" type="curve" smooth="yes"/>
      <point x="364" y="607"/>
      <point x="303" y="662"/>
      <point x="195" y="662" type="curve" smooth="yes"/>
      <point x="86" y="662"/>
      <point x="25" y="607"/>
      <point x="25" y="498" type="curve" smooth="yes"/>
      <point x="25" y="389"/>
      <point x="89" y="335"/>
      <point x="195" y="335" type="curve" smooth="yes"/>
    </contour>
    <contour>
      <point x="155" y="411"/>
      <point x="144" y="437"/>
      <point x="144" y="498" type="curve" smooth="yes"/>
      <point x="144" y="561"/>
      <point x="155" y="586"/>
      <point x="195" y="586" type="curve" smooth="yes"/>
      <point x="233" y="586"/>
      <point x="246" y="561"/>
      <point x="246" y="498" type="curve" smooth="yes"/>
      <point x="246" y="437"/>
      <point x="233" y="411"/>
      <point x="195" y="411" type="curve" smooth="yes"/>
    </contour>
  </outline>
</glyph>
<glyph name="guillemetright" format="1">
  <advance width="660"/>
  <unicode hex="00BB"/>
  <note>
	guillemotright
  </note>
  <outline>
    <contour>
      <point x="635" y="298" type="line"/>
      <point x="635" y="355" type="line"/>
      <point x="292" y="640" type="line"/>
      <point x="292" y="458" type="line"/>
      <point x="445" y="326" type="line"/>
      <point x="292" y="195" type="line"/>
      <point x="292" y="12" type="line"/>
    </contour>
    <contour>
      <point x="368" y="298" type="line"/>
      <point x="368" y="355" type="line"/>
      <point x="25" y="640" type="line"/>
      <point x="25" y="458" type="line"/>
      <point x="178" y="326" type="line"/>
      <point x="25" y="195" type="line"/>
      <point x="25" y="12" type="line"/>
    </contour>
  </outline>
</glyph>
<glyph name="onequarter" format="1">
  <advance width="667"/>
  <unicode hex="00BC"/>
  <note>
	onequarter
  </note>
  <outline>
    <contour>
      <point x="248" y="0" type="line"/>
      <point x="625" y="647" type="line"/>
      <point x="458" y="647" type="line"/>
      <point x="81" y="0" type="line"/>
    </contour>
    <contour>
      <point x="257" y="345" type="line"/>
      <point x="257" y="425" type="line"/>
      <point x="227" y="425" type="line" smooth="yes"/>
      <point x="213" y="425"/>
      <point x="208" y="431"/>
      <point x="208" y="444" type="curve" smooth="yes"/>
      <point x="208" y="657" type="line"/>
      <point x="118" y="657" type="line"/>
      <point x="25" y="599" type="line"/>
      <point x="66" y="531" type="line"/>
      <point x="99" y="551" type="line"/>
      <point x="99" y="444" type="line" smooth="yes"/>
      <point x="99" y="431"/>
      <point x="93" y="425"/>
      <point x="79" y="425" type="curve" smooth="yes"/>
      <point x="49" y="425" type="line"/>
      <point x="49" y="345" type="line"/>
    </contour>
    <contour>
      <point x="631" y="0" type="line"/>
      <point x="631" y="63" type="line"/>
      <point x="618" y="63" type="line" smooth="yes"/>
      <point x="604" y="63"/>
      <point x="598" y="69"/>
      <point x="598" y="82" type="curve" smooth="yes"/>
      <point x="598" y="89" type="line"/>
      <point x="642" y="89" type="line"/>
      <point x="642" y="158" type="line"/>
      <point x="598" y="158" type="line"/>
      <point x="598" y="312" type="line"/>
      <point x="482" y="312" type="line"/>
      <point x="358" y="151" type="line"/>
      <point x="358" y="89" type="line"/>
      <point x="491" y="89" type="line"/>
      <point x="491" y="82" type="line" smooth="yes"/>
      <point x="491" y="69"/>
      <point x="485" y="63"/>
      <point x="471" y="63" type="curve" smooth="yes"/>
      <point x="458" y="63" type="line"/>
      <point x="458" y="0" type="line"/>
    </contour>
    <contour>
      <point x="507" y="213" type="line"/>
      <point x="507" y="158" type="line"/>
      <point x="464" y="158" type="line"/>
    </contour>
  </outline>
</glyph>
<glyph name="onehalf" format="1">
  <advance width="731"/>
  <unicode hex="00BD"/>
  <note>
	onehalf
  </note>
  <outline>
    <contour>
      <point x="248" y="0" type="line"/>
      <point x="625" y="647" type="line"/>
      <point x="458" y="647" type="line"/>
      <point x="81" y="0" type="line"/>
    </contour>
    <contour>
      <point x="257" y="345" type="line"/>
      <point x="257" y="425" type="line"/>
      <point x="227" y="425" type="line" smooth="yes"/>
      <point x="213" y="425"/>
      <point x="208" y="431"/>
      <point x="208" y="444" type="curve" smooth="yes"/>
      <point x="208" y="657" type="line"/>
      <point x="118" y="657" type="line"/>
      <point x="25" y="599" type="line"/>
      <point x="66" y="531" type="line"/>
      <point x="99" y="551" type="line"/>
      <point x="99" y="444" type="line" smooth="yes"/>
      <point x="99" y="431"/>
      <point x="93" y="425"/>
      <point x="79" y="425" type="curve" smooth="yes"/>
      <point x="49" y="425" type="line"/>
      <point x="49" y="345" type="line"/>
    </contour>
    <contour>
      <point x="706" y="0" type="line"/>
      <point x="706" y="80" type="line"/>
      <point x="577" y="80" type="line"/>
      <point x="577" y="94"/>
      <point x="608" y="109"/>
      <point x="635" y="125" type="curve" smooth="yes"/>
      <point x="687" y="157"/>
      <point x="705" y="176"/>
      <point x="705" y="225" type="curve" smooth="yes"/>
      <point x="705" y="288"/>
      <point x="649" y="317"/>
      <point x="569" y="317" type="curve" smooth="yes"/>
      <point x="524" y="317"/>
      <point x="462" y="303"/>
      <point x="429" y="281" type="curve"/>
      <point x="429" y="209" type="line"/>
      <point x="536" y="209" type="line"/>
      <point x="536" y="241" type="line"/>
      <point x="541" y="244"/>
      <point x="549" y="246"/>
      <point x="557" y="246" type="curve" smooth="yes"/>
      <point x="575" y="246"/>
      <point x="582" y="237"/>
      <point x="582" y="221" type="curve" smooth="yes"/>
      <point x="582" y="194"/>
      <point x="557" y="179"/>
      <point x="520" y="157" type="curve" smooth="yes"/>
      <point x="454" y="118"/>
      <point x="429" y="92"/>
      <point x="429" y="31" type="curve" smooth="yes"/>
      <point x="429" y="0" type="line"/>
    </contour>
  </outline>
</glyph>
<glyph name="threequarters" format="1">
  <advance width="680"/>
  <unicode hex="00BE"/>
  <note>
	threequarters
  </note>
  <outline>
    <contour>
      <point x="261" y="0" type="line"/>
      <point x="638" y="647" type="line"/>
      <point x="471" y="647" type="line"/>
      <point x="94" y="0" type="line"/>
    </contour>
    <contour>
      <point x="279" y="335"/>
      <point x="313" y="375"/>
      <point x="313" y="439" type="curve" smooth="yes"/>
      <point x="313" y="467"/>
      <point x="301" y="491"/>
      <point x="271" y="504" type="curve"/>
      <point x="303" y="519"/>
      <point x="309" y="550"/>
      <point x="309" y="574" type="curve" smooth="yes"/>
      <point x="309" y="625"/>
      <point x="268" y="662"/>
      <point x="160" y="662" type="curve" smooth="yes"/>
      <point x="105" y="662"/>
      <point x="56" y="644"/>
      <point x="31" y="625" type="curve"/>
      <point x="31" y="557" type="line"/>
      <point x="135" y="557" type="line"/>
      <point x="135" y="586" type="line"/>
      <point x="142" y="589"/>
      <point x="153" y="591"/>
      <point x="161" y="591" type="curve" smooth="yes"/>
      <point x="184" y="591"/>
      <point x="191" y="583"/>
      <point x="191" y="568" type="curve" smooth="yes"/>
      <point x="191" y="544"/>
      <point x="180" y="539"/>
      <point x="159" y="539" type="curve" smooth="yes"/>
      <point x="126" y="539" type="line"/>
      <point x="126" y="468" type="line"/>
      <point x="159" y="468" type="line" smooth="yes"/>
      <point x="184" y="468"/>
      <point x="194" y="461"/>
      <point x="194" y="436" type="curve" smooth="yes"/>
      <point x="194" y="414"/>
      <point x="184" y="406"/>
      <point x="160" y="406" type="curve" smooth="yes"/>
      <point x="149" y="406"/>
      <point x="137" y="408"/>
      <point x="129" y="412" type="curve"/>
      <point x="129" y="446" type="line"/>
      <point x="25" y="446" type="line"/>
      <point x="25" y="376" type="line"/>
      <point x="55" y="353"/>
      <point x="101" y="335"/>
      <point x="163" y="335" type="curve" smooth="yes"/>
    </contour>
    <contour>
      <point x="644" y="0" type="line"/>
      <point x="644" y="63" type="line"/>
      <point x="631" y="63" type="line" smooth="yes"/>
      <point x="617" y="63"/>
      <point x="611" y="69"/>
      <point x="611" y="82" type="curve" smooth="yes"/>
      <point x="611" y="89" type="line"/>
      <point x="655" y="89" type="line"/>
      <point x="655" y="158" type="line"/>
      <point x="611" y="158" type="line"/>
      <point x="611" y="312" type="line"/>
      <point x="495" y="312" type="line"/>
      <point x="371" y="151" type="line"/>
      <point x="371" y="89" type="line"/>
      <point x="504" y="89" type="line"/>
      <point x="504" y="82" type="line" smooth="yes"/>
      <point x="504" y="69"/>
      <point x="498" y="63"/>
      <point x="484" y="63" type="curve" smooth="yes"/>
      <point x="471" y="63" type="line"/>
      <point x="471" y="0" type="line"/>
    </contour>
    <contour>
      <point x="520" y="213" type="line"/>
      <point x="520" y="158" type="line"/>
      <point x="477" y="158" type="line"/>
    </contour>
  </outline>
</glyph>
<glyph name="questiondown" format="1">
  <advance width="557"/>
  <unicode hex="00BF"/>
  <note>
	questiondown
  </note>
  <outline>
    <contour>
      <point x="389" y="-167"/>
      <point x="473" y="-135"/>
      <point x="532" y="-91" type="curve"/>
      <point x="532" y="31" type="line"/>
      <point x="371" y="31" type="line"/>
      <point x="371" y="-32" type="line"/>
      <point x="346" y="-42"/>
      <point x="320" y="-50"/>
      <point x="288" y="-50" type="curve" smooth="yes"/>
      <point x="230" y="-50"/>
      <point x="207" y="-25"/>
      <point x="207" y="15" type="curve" smooth="yes"/>
      <point x="207" y="60"/>
      <point x="243" y="83"/>
      <point x="286" y="108" type="curve" smooth="yes"/>
      <point x="374" y="160"/>
      <point x="407" y="219"/>
      <point x="407" y="300" type="curve" smooth="yes"/>
      <point x="407" y="327" type="line"/>
      <point x="222" y="327" type="line"/>
      <point x="222" y="309" type="line" smooth="yes"/>
      <point x="222" y="250"/>
      <point x="215" y="226"/>
      <point x="159" y="192" type="curve" smooth="yes"/>
      <point x="72" y="139"/>
      <point x="25" y="101"/>
      <point x="25" y="15" type="curve" smooth="yes"/>
      <point x="25" y="-107"/>
      <point x="115" y="-167"/>
      <point x="282" y="-167" type="curve" smooth="yes"/>
    </contour>
    <contour>
      <point x="414" y="362" type="line"/>
      <point x="414" y="495" type="line"/>
      <point x="215" y="495" type="line"/>
      <point x="215" y="362" type="line"/>
    </contour>
  </outline>
</glyph>
<glyph name="Agrave" format="1">
  <advance width="712"/>
  <unicode hex="00C0"/>
  <note>
	Agrave
  </note>
  <outline>
    <contour>
      <point x="308" y="0" type="line"/>
      <point x="308" y="116" type="line"/>
      <point x="270" y="116" type="line"/>
      <point x="292" y="189" type="line"/>
      <point x="422" y="189" type="line"/>
      <point x="443" y="116" type="line"/>
      <point x="405" y="116" type="line"/>
      <point x="405" y="0" type="line"/>
      <point x="697" y="0" type="line"/>
      <point x="697" y="116" type="line"/>
      <point x="673" y="116" type="line" smooth="yes"/>
      <point x="637" y="116"/>
      <point x="627" y="119"/>
      <point x="616" y="150" type="curve" smooth="yes"/>
      <point x="448" y="647" type="line"/>
      <point x="267" y="647" type="line"/>
      <point x="96" y="150" type="line" smooth="yes"/>
      <point x="85" y="119"/>
      <point x="75" y="116"/>
      <point x="39" y="116" type="curve" smooth="yes"/>
      <point x="15" y="116" type="line"/>
      <point x="15" y="0" type="line"/>
    </contour>
    <contour>
      <point x="359" y="413" type="line"/>
      <point x="396" y="280" type="line"/>
      <point x="319" y="280" type="line"/>
    </contour>
    <contour>
      <point x="436" y="697" type="line"/>
      <point x="364" y="879" type="line"/>
      <point x="168" y="879" type="line"/>
      <point x="280" y="697" type="line"/>
    </contour>
  </outline>
</glyph>
<glyph name="Atilde" format="1">
  <advance width="712"/>
  <unicode hex="00C3"/>
  <note>
	Atilde
  </note>
  <outline>
    <contour>
      <point x="308" y="0" type="line"/>
      <point x="308" y="116" type="line"/>
      <point x="270" y="116" type="line"/>
      <point x="292" y="189" type="line"/>
      <point x="422" y="189" type="line"/>
      <point x="443" y="116" type="line"/>
      <point x="405" y="116" type="line"/>
      <point x="405" y="0" type="line"/>
      <point x="697" y="0" type="line"/>
      <point x="697" y="116" type="line"/>
      <point x="673" y="116" type="line" smooth="yes"/>
      <point x="637" y="116"/>
      <point x="627" y="119"/>
      <point x="616" y="150" type="curve" smooth="yes"/>
      <point x="448" y="647" type="line"/>
      <point x="267" y="647" type="line"/>
      <point x="96" y="150" type="line" smooth="yes"/>
      <point x="85" y="119"/>
      <point x="75" y="116"/>
      <point x="39" y="116" type="curve" smooth="yes"/>
      <point x="15" y="116" type="line"/>
      <point x="15" y="0" type="line"/>
    </contour>
    <contour>
      <point x="359" y="413" type="line"/>
      <point x="396" y="280" type="line"/>
      <point x="319" y="280" type="line"/>
    </contour>
    <contour>
      <point x="260" y="697" type="line"/>
      <point x="260" y="726"/>
      <point x="276" y="743"/>
      <point x="304" y="743" type="curve" smooth="yes"/>
      <point x="346" y="743"/>
      <point x="377" y="697"/>
      <point x="455" y="697" type="curve" smooth="yes"/>
      <point x="551" y="697"/>
      <point x="585" y="755"/>
      <point x="585" y="882" type="curve"/>
      <point x="460" y="882" type="line"/>
      <point x="460" y="854"/>
      <point x="447" y="836"/>
      <point x="417" y="836" type="curve" smooth="yes"/>
      <point x="373" y="836"/>
      <point x="344" y="882"/>
      <point x="269" y="882" type="curve" smooth="yes"/>
      <point x="173" y="882"/>
      <point x="135" y="821"/>
      <point x="135" y="697" type="curve"/>
    </contour>
  </outline>
</glyph>
<glyph name="Adieresis" format="1">
  <advance width="712"/>
  <unicode hex="00C4"/>
  <note>
	Adieresis
  </note>
  <outline>
    <contour>
      <point x="308" y="0" type="line"/>
      <point x="308" y="116" type="line"/>
      <point x="270" y="116" type="line"/>
      <point x="292" y="189" type="line"/>
      <point x="422" y="189" type="line"/>
      <point x="443" y="116" type="line"/>
      <point x="405" y="116" type="line"/>
      <point x="405" y="0" type="line"/>
      <point x="697" y="0" type="line"/>
      <point x="697" y="116" type="line"/>
      <point x="673" y="116" type="line" smooth="yes"/>
      <point x="637" y="116"/>
      <point x="627" y="119"/>
      <point x="616" y="150" type="curve" smooth="yes"/>
      <point x="448" y="647" type="line"/>
      <point x="267" y="647" type="line"/>
      <point x="96" y="150" type="line" smooth="yes"/>
      <point x="85" y="119"/>
      <point x="75" y="116"/>
      <point x="39" y="116" type="curve" smooth="yes"/>
      <point x="15" y="116" type="line"/>
      <point x="15" y="0" type="line"/>
    </contour>
    <contour>
      <point x="359" y="413" type="line"/>
      <point x="396" y="280" type="line"/>
      <point x="319" y="280" type="line"/>
    </contour>
    <contour>
      <point x="298" y="717" type="line"/>
      <point x="298" y="854" type="line"/>
      <point x="170" y="854" type="line"/>
      <point x="170" y="717" type="line"/>
    </contour>
    <contour>
      <point x="549" y="717" type="line"/>
      <point x="549" y="854" type="line"/>
      <point x="420" y="854" type="line"/>
      <point x="420" y="717" type="line"/>
    </contour>
  </outline>
</glyph>
<glyph name="Aring" format="1">
  <advance width="712"/>
  <unicode hex="00C5"/>
  <note>
	Aring
  </note>
  <outline>
    <contour>
      <point x="308" y="0" type="line"/>
      <point x="308" y="116" type="line"/>
      <point x="270" y="116" type="line"/>
      <point x="292" y="189" type="line"/>
      <point x="422" y="189" type="line"/>
      <point x="443" y="116" type="line"/>
      <point x="405" y="116" type="line"/>
      <point x="405" y="0" type="line"/>
      <point x="697" y="0" type="line"/>
      <point x="697" y="116" type="line"/>
      <point x="673" y="116" type="line" smooth="yes"/>
      <point x="637" y="116"/>
      <point x="627" y="119"/>
      <point x="616" y="150" type="curve" smooth="yes"/>
      <point x="448" y="647" type="line"/>
      <point x="267" y="647" type="line"/>
      <point x="96" y="150" type="line" smooth="yes"/>
      <point x="85" y="119"/>
      <point x="75" y="116"/>
      <point x="39" y="116" type="curve" smooth="yes"/>
      <point x="15" y="116" type="line"/>
      <point x="15" y="0" type="line"/>
    </contour>
    <contour>
      <point x="359" y="413" type="line"/>
      <point x="396" y="280" type="line"/>
      <point x="319" y="280" type="line"/>
    </contour>
    <contour>
      <point x="427" y="596"/>
      <point x="481" y="650"/>
      <point x="481" y="718" type="curve" smooth="yes"/>
      <point x="481" y="786"/>
      <point x="427" y="840"/>
      <point x="359" y="840" type="curve" smooth="yes"/>
      <point x="291" y="840"/>
      <point x="237" y="786"/>
      <point x="237" y="718" type="curve" smooth="yes"/>
      <point x="237" y="650"/>
      <point x="291" y="596"/>
      <point x="359" y="596" type="curve" smooth="yes"/>
    </contour>
    <contour>
      <point x="339" y="682"/>
      <point x="323" y="698"/>
      <point x="323" y="718" type="curve" smooth="yes"/>
      <point x="323" y="738"/>
      <point x="339" y="754"/>
      <point x="359" y="754" type="curve" smooth="yes"/>
      <point x="379" y="754"/>
      <point x="395" y="738"/>
      <point x="395" y="718" type="curve" smooth="yes"/>
      <point x="395" y="698"/>
      <point x="379" y="682"/>
      <point x="359" y="682" type="curve" smooth="yes"/>
    </contour>
  </outline>
</glyph>
<glyph name="Ccedilla" format="1">
  <advance width="614"/>
  <unicode hex="00C7"/>
  <note>
	Ccedilla
  </note>
  <outline>
    <contour>
      <point x="471" y="-15"/>
      <point x="524" y="-1"/>
      <point x="599" y="51" type="curve"/>
      <point x="538" y="149" type="line"/>
      <point x="484" y="112"/>
      <point x="438" y="102"/>
      <point x="378" y="102" type="curve" smooth="yes"/>
      <point x="250" y="102"/>
      <point x="197" y="180"/>
      <point x="197" y="318" type="curve" smooth="yes"/>
      <point x="197" y="459"/>
      <point x="246" y="545"/>
      <point x="347" y="545" type="curve" smooth="yes"/>
      <point x="367" y="545"/>
      <point x="389" y="543"/>
      <point x="406" y="539" type="curve"/>
      <point x="406" y="460" type="line"/>
      <point x="591" y="460" type="line"/>
      <point x="591" y="598" type="line"/>
      <point x="529" y="643"/>
      <point x="459" y="662"/>
      <point x="347" y="662" type="curve" smooth="yes"/>
      <point x="114" y="662"/>
      <point x="15" y="513"/>
      <point x="15" y="318" type="curve" smooth="yes"/>
      <point x="15" y="123"/>
      <point x="130" y="-15"/>
      <point x="368" y="-15" type="curve" smooth="yes"/>
    </contour>
    <contour>
      <point x="451" y="-228"/>
      <point x="497" y="-187"/>
      <point x="497" y="-123" type="curve" smooth="yes"/>
      <point x="497" y="-75"/>
      <point x="473" y="-47"/>
      <point x="423" y="-36" type="curve"/>
      <point x="429" y="0" type="line"/>
      <point x="259" y="0" type="line"/>
      <point x="248" y="-77" type="line"/>
      <point x="322" y="-77"/>
      <point x="339" y="-90"/>
      <point x="339" y="-114" type="curve" smooth="yes"/>
      <point x="339" y="-125"/>
      <point x="332" y="-133"/>
      <point x="308" y="-133" type="curve" smooth="yes"/>
      <point x="288" y="-133"/>
      <point x="254" y="-129"/>
      <point x="224" y="-113" type="curve"/>
      <point x="224" y="-208" type="line"/>
      <point x="259" y="-224"/>
      <point x="289" y="-228"/>
      <point x="331" y="-228" type="curve" smooth="yes"/>
    </contour>
  </outline>
</glyph>
<glyph name="Eacute" format="1">
  <advance width="548"/>
  <unicode hex="00C9"/>
  <note>
	Eacute
  </note>
  <outline>
    <contour>
      <point x="533" y="0" type="line"/>
      <point x="533" y="168" type="line"/>
      <point x="365" y="168" type="line"/>
      <point x="365" y="156" type="line" smooth="yes"/>
      <point x="365" y="129"/>
      <point x="352" y="116"/>
      <point x="324" y="116" type="curve" smooth="yes"/>
      <point x="262" y="116" type="line"/>
      <point x="262" y="265" type="line"/>
      <point x="377" y="265" type="line"/>
      <point x="377" y="381" type="line"/>
      <point x="262" y="381" type="line"/>
      <point x="262" y="531" type="line"/>
      <point x="324" y="531" type="line" smooth="yes"/>
      <point x="352" y="531"/>
      <point x="365" y="518"/>
      <point x="365" y="492" type="curve" smooth="yes"/>
      <point x="365" y="479" type="line"/>
      <point x="533" y="479" type="line"/>
      <point x="533" y="647" type="line"/>
      <point x="15" y="647" type="line"/>
      <point x="15" y="530" type="line"/>
      <point x="36" y="530" type="line" smooth="yes"/>
      <point x="64" y="530"/>
      <point x="77" y="516"/>
      <point x="77" y="493" type="curve" smooth="yes"/>
      <point x="77" y="156" type="line" smooth="yes"/>
      <point x="77" y="129"/>
      <point x="64" y="116"/>
      <point x="36" y="116" type="curve" smooth="yes"/>
      <point x="15" y="116" type="line"/>
      <point x="15" y="0" type="line"/>
    </contour>
    <contour>
      <point x="331" y="697" type="line"/>
      <point x="443" y="879" type="line"/>
      <point x="247" y="879" type="line"/>
      <point x="176" y="697" type="line"/>
    </contour>
  </outline>
</glyph>
<glyph name="Ecircumflex" format="1">
  <advance width="548"/>
  <unicode hex="00CA"/>
  <note>
	Ecircumflex
  </note>
  <outline>
    <contour>
      <point x="533" y="0" type="line"/>
      <point x="533" y="168" type="line"/>
      <point x="365" y="168" type="line"/>
      <point x="365" y="156" type="line" smooth="yes"/>
      <point x="365" y="129"/>
      <point x="352" y="116"/>
      <point x="324" y="116" type="curve" smooth="yes"/>
      <point x="262" y="116" type="line"/>
      <point x="262" y="265" type="line"/>
      <point x="377" y="265" type="line"/>
      <point x="377" y="381" type="line"/>
      <point x="262" y="381" type="line"/>
      <point x="262" y="531" type="line"/>
      <point x="324" y="531" type="line" smooth="yes"/>
      <point x="352" y="531"/>
      <point x="365" y="518"/>
      <point x="365" y="492" type="curve" smooth="yes"/>
      <point x="365" y="479" type="line"/>
      <point x="533" y="479" type="line"/>
      <point x="533" y="647" type="line"/>
      <point x="15" y="647" type="line"/>
      <point x="15" y="530" type="line"/>
      <point x="36" y="530" type="line" smooth="yes"/>
      <point x="64" y="530"/>
      <point x="77" y="516"/>
      <point x="77" y="493" type="curve" smooth="yes"/>
      <point x="77" y="156" type="line" smooth="yes"/>
      <point x="77" y="129"/>
      <point x="64" y="116"/>
      <point x="36" y="116" type="curve" smooth="yes"/>
      <point x="15" y="116" type="line"/>
      <point x="15" y="0" type="line"/>
    </contour>
    <contour>
      <point x="195" y="697" type="line"/>
      <point x="252" y="804" type="line"/>
      <point x="307" y="697" type="line"/>
      <point x="470" y="697" type="line"/>
      <point x="330" y="900" type="line"/>
      <point x="176" y="900" type="line"/>
      <point x="35" y="697" type="line"/>
    </contour>
  </outline>
</glyph>
<glyph name="Igrave" format="1">
  <advance width="337"/>
  <unicode hex="00CC"/>
  <note>
	Igrave
  </note>
  <outline>
    <contour>
      <point x="322" y="0" type="line"/>
      <point x="322" y="116" type="line"/>
      <point x="302" y="116" type="line" smooth="yes"/>
      <point x="273" y="116"/>
      <point x="261" y="130"/>
      <point x="261" y="153" type="curve" smooth="yes"/>
      <point x="261" y="493" type="line" smooth="yes"/>
      <point x="261" y="516"/>
      <point x="273" y="530"/>
      <point x="302" y="530" type="curve" smooth="yes"/>
      <point x="322" y="530" type="line"/>
      <point x="322" y="647" type="line"/>
      <point x="15" y="647" type="line"/>
      <point x="15" y="530" type="line"/>
      <point x="35" y="530" type="line" smooth="yes"/>
      <point x="64" y="530"/>
      <point x="76" y="516"/>
      <point x="76" y="493" type="curve" smooth="yes"/>
      <point x="76" y="156" type="line" smooth="yes"/>
      <point x="76" y="129"/>
      <point x="64" y="116"/>
      <point x="35" y="116" type="curve" smooth="yes"/>
      <point x="15" y="116" type="line"/>
      <point x="15" y="0" type="line"/>
    </contour>
    <contour>
      <point x="253" y="696" type="line"/>
      <point x="181" y="878" type="line"/>
      <point x="-15" y="878" type="line"/>
      <point x="97" y="696" type="line"/>
    </contour>
  </outline>
</glyph>
<glyph name="Icircumflex" format="1">
  <advance width="337"/>
  <unicode hex="00CE"/>
  <note>
	Icircumflex
  </note>
  <outline>
    <contour>
      <point x="322" y="0" type="line"/>
      <point x="322" y="116" type="line"/>
      <point x="302" y="116" type="line" smooth="yes"/>
      <point x="273" y="116"/>
      <point x="261" y="130"/>
      <point x="261" y="153" type="curve" smooth="yes"/>
      <point x="261" y="493" type="line" smooth="yes"/>
      <point x="261" y="516"/>
      <point x="273" y="530"/>
      <point x="302" y="530" type="curve" smooth="yes"/>
      <point x="322" y="530" type="line"/>
      <point x="322" y="647" type="line"/>
      <point x="15" y="647" type="line"/>
      <point x="15" y="530" type="line"/>
      <point x="35" y="530" type="line" smooth="yes"/>
      <point x="64" y="530"/>
      <point x="76" y="516"/>
      <point x="76" y="493" type="curve" smooth="yes"/>
      <point x="76" y="156" type="line" smooth="yes"/>
      <point x="76" y="129"/>
      <point x="64" y="116"/>
      <point x="35" y="116" type="curve" smooth="yes"/>
      <point x="15" y="116" type="line"/>
      <point x="15" y="0" type="line"/>
    </contour>
    <contour>
      <point x="112" y="697" type="line"/>
      <point x="169" y="804" type="line"/>
      <point x="224" y="697" type="line"/>
      <point x="387" y="697" type="line"/>
      <point x="247" y="900" type="line"/>
      <point x="93" y="900" type="line"/>
      <point x="-48" y="697" type="line"/>
    </contour>
  </outline>
</glyph>
<glyph name="Idieresis" format="1">
  <advance width="337"/>
  <unicode hex="00CF"/>
  <note>
	Idieresis
  </note>
  <outline>
    <contour>
      <point x="322" y="0" type="line"/>
      <point x="322" y="116" type="line"/>
      <point x="302" y="116" type="line" smooth="yes"/>
      <point x="273" y="116"/>
      <point x="261" y="130"/>
      <point x="261" y="153" type="curve" smooth="yes"/>
      <point x="261" y="493" type="line" smooth="yes"/>
      <point x="261" y="516"/>
      <point x="273" y="530"/>
      <point x="302" y="530" type="curve" smooth="yes"/>
      <point x="322" y="530" type="line"/>
      <point x="322" y="647" type="line"/>
      <point x="15" y="647" type="line"/>
      <point x="15" y="530" type="line"/>
      <point x="35" y="530" type="line" smooth="yes"/>
      <point x="64" y="530"/>
      <point x="76" y="516"/>
      <point x="76" y="493" type="curve" smooth="yes"/>
      <point x="76" y="156" type="line" smooth="yes"/>
      <point x="76" y="129"/>
      <point x="64" y="116"/>
      <point x="35" y="116" type="curve" smooth="yes"/>
      <point x="15" y="116" type="line"/>
      <point x="15" y="0" type="line"/>
    </contour>
    <contour>
      <point x="107" y="717" type="line"/>
      <point x="107" y="854" type="line"/>
      <point x="-21" y="854" type="line"/>
      <point x="-21" y="717" type="line"/>
    </contour>
    <contour>
      <point x="358" y="717" type="line"/>
      <point x="358" y="854" type="line"/>
      <point x="229" y="854" type="line"/>
      <point x="229" y="717" type="line"/>
    </contour>
  </outline>
</glyph>
<glyph name="Ntilde" format="1">
  <advance width="698"/>
  <unicode hex="00D1"/>
  <note>
	Ntilde
  </note>
  <outline>
    <contour>
      <point x="322" y="0" type="line"/>
      <point x="322" y="117" type="line"/>
      <point x="301" y="117" type="line" smooth="yes"/>
      <point x="273" y="117"/>
      <point x="260" y="132"/>
      <point x="260" y="154" type="curve" smooth="yes"/>
      <point x="260" y="350" type="line"/>
      <point x="486" y="0" type="line"/>
      <point x="621" y="0" type="line"/>
      <point x="621" y="493" type="line" smooth="yes"/>
      <point x="621" y="516"/>
      <point x="634" y="530"/>
      <point x="662" y="530" type="curve" smooth="yes"/>
      <point x="683" y="530" type="line"/>
      <point x="683" y="647" type="line"/>
      <point x="376" y="647" type="line"/>
      <point x="376" y="530" type="line"/>
      <point x="397" y="530" type="line" smooth="yes"/>
      <point x="425" y="530"/>
      <point x="438" y="516"/>
      <point x="438" y="493" type="curve" smooth="yes"/>
      <point x="438" y="293" type="line"/>
      <point x="211" y="647" type="line"/>
      <point x="15" y="647" type="line"/>
      <point x="15" y="530" type="line"/>
      <point x="36" y="530" type="line" smooth="yes"/>
      <point x="64" y="530"/>
      <point x="76" y="516"/>
      <point x="76" y="493" type="curve" smooth="yes"/>
      <point x="76" y="154" type="line" smooth="yes"/>
      <point x="76" y="132"/>
      <point x="64" y="117"/>
      <point x="36" y="117" type="curve" smooth="yes"/>
      <point x="15" y="117" type="line"/>
      <point x="15" y="0" type="line"/>
    </contour>
    <contour>
      <point x="236" y="697" type="line"/>
      <point x="236" y="726"/>
      <point x="252" y="743"/>
      <point x="280" y="743" type="curve" smooth="yes"/>
      <point x="322" y="743"/>
      <point x="353" y="697"/>
      <point x="431" y="697" type="curve" smooth="yes"/>
      <point x="527" y="697"/>
      <point x="561" y="755"/>
      <point x="561" y="882" type="curve"/>
      <point x="436" y="882" type="line"/>
      <point x="436" y="854"/>
      <point x="423" y="836"/>
      <point x="393" y="836" type="curve" smooth="yes"/>
      <point x="349" y="836"/>
      <point x="320" y="882"/>
      <point x="245" y="882" type="curve" smooth="yes"/>
      <point x="149" y="882"/>
      <point x="111" y="821"/>
      <point x="111" y="697" type="curve"/>
    </contour>
  </outline>
</glyph>
<glyph name="Ograve" format="1">
  <advance width="670"/>
  <unicode hex="00D2"/>
  <note>
	Ograve
  </note>
  <outline>
    <contour>
      <point x="551" y="-15"/>
      <point x="655" y="96"/>
      <point x="655" y="321" type="curve" smooth="yes"/>
      <point x="655" y="546"/>
      <point x="560" y="662"/>
      <point x="335" y="662" type="curve" smooth="yes"/>
      <point x="110" y="662"/>
      <point x="15" y="546"/>
      <point x="15" y="321" type="curve" smooth="yes"/>
      <point x="15" y="96"/>
      <point x="118" y="-15"/>
      <point x="335" y="-15" type="curve" smooth="yes"/>
    </contour>
    <contour>
      <point x="234" y="102"/>
      <point x="198" y="161"/>
      <point x="198" y="321" type="curve" smooth="yes"/>
      <point x="198" y="486"/>
      <point x="234" y="545"/>
      <point x="335" y="545" type="curve" smooth="yes"/>
      <point x="436" y="545"/>
      <point x="472" y="486"/>
      <point x="472" y="321" type="curve" smooth="yes"/>
      <point x="472" y="161"/>
      <point x="436" y="102"/>
      <point x="335" y="102" type="curve" smooth="yes"/>
    </contour>
    <contour>
      <point x="423" y="697" type="line"/>
      <point x="351" y="879" type="line"/>
      <point x="155" y="879" type="line"/>
      <point x="267" y="697" type="line"/>
    </contour>
  </outline>
</glyph>
<glyph name="Ocircumflex" format="1">
  <advance width="670"/>
  <unicode hex="00D4"/>
  <note>
	Ocircumflex
  </note>
  <outline>
    <contour>
      <point x="551" y="-15"/>
      <point x="655" y="96"/>
      <point x="655" y="321" type="curve" smooth="yes"/>
      <point x="655" y="546"/>
      <point x="560" y="662"/>
      <point x="335" y="662" type="curve" smooth="yes"/>
      <point x="110" y="662"/>
      <point x="15" y="546"/>
      <point x="15" y="321" type="curve" smooth="yes"/>
      <point x="15" y="96"/>
      <point x="118" y="-15"/>
      <point x="335" y="-15" type="curve" smooth="yes"/>
    </contour>
    <contour>
      <point x="234" y="102"/>
      <point x="198" y="161"/>
      <point x="198" y="321" type="curve" smooth="yes"/>
      <point x="198" y="486"/>
      <point x="234" y="545"/>
      <point x="335" y="545" type="curve" smooth="yes"/>
      <point x="436" y="545"/>
      <point x="472" y="486"/>
      <point x="472" y="321" type="curve" smooth="yes"/>
      <point x="472" y="161"/>
      <point x="436" y="102"/>
      <point x="335" y="102" type="curve" smooth="yes"/>
    </contour>
    <contour>
      <point x="278" y="697" type="line"/>
      <point x="335" y="804" type="line"/>
      <point x="390" y="697" type="line"/>
      <point x="553" y="697" type="line"/>
      <point x="413" y="900" type="line"/>
      <point x="259" y="900" type="line"/>
      <point x="118" y="697" type="line"/>
    </contour>
  </outline>
</glyph>
<glyph name="Otilde" format="1">
  <advance width="670"/>
  <unicode hex="00D5"/>
  <note>
	Otilde
  </note>
  <outline>
    <contour>
      <point x="551" y="-15"/>
      <point x="655" y="96"/>
      <point x="655" y="321" type="curve" smooth="yes"/>
      <point x="655" y="546"/>
      <point x="560" y="662"/>
      <point x="335" y="662" type="curve" smooth="yes"/>
      <point x="110" y="662"/>
      <point x="15" y="546"/>
      <point x="15" y="321" type="curve" smooth="yes"/>
      <point x="15" y="96"/>
      <point x="118" y="-15"/>
      <point x="335" y="-15" type="curve" smooth="yes"/>
    </contour>
    <contour>
      <point x="234" y="102"/>
      <point x="198" y="161"/>
      <point x="198" y="321" type="curve" smooth="yes"/>
      <point x="198" y="486"/>
      <point x="234" y="545"/>
      <point x="335" y="545" type="curve" smooth="yes"/>
      <point x="436" y="545"/>
      <point x="472" y="486"/>
      <point x="472" y="321" type="curve" smooth="yes"/>
      <point x="472" y="161"/>
      <point x="436" y="102"/>
      <point x="335" y="102" type="curve" smooth="yes"/>
    </contour>
    <contour>
      <point x="235" y="697" type="line"/>
      <point x="235" y="726"/>
      <point x="251" y="743"/>
      <point x="279" y="743" type="curve" smooth="yes"/>
      <point x="321" y="743"/>
      <point x="352" y="697"/>
      <point x="430" y="697" type="curve" smooth="yes"/>
      <point x="526" y="697"/>
      <point x="560" y="755"/>
      <point x="560" y="882" type="curve"/>
      <point x="435" y="882" type="line"/>
      <point x="435" y="854"/>
      <point x="422" y="836"/>
      <point x="392" y="836" type="curve" smooth="yes"/>
      <point x="348" y="836"/>
      <point x="319" y="882"/>
      <point x="244" y="882" type="curve" smooth="yes"/>
      <point x="148" y="882"/>
      <point x="110" y="821"/>
      <point x="110" y="697" type="curve"/>
    </contour>
  </outline>
</glyph>
<glyph name="multiply" format="1">
  <advance width="392"/>
  <unicode hex="00D7"/>
  <note>
	multiply
  </note>
  <outline>
    <contour>
      <point x="196" y="218" type="line"/>
      <point x="275" y="139" type="line"/>
      <point x="367" y="231" type="line"/>
      <point x="287" y="310" type="line"/>
      <point x="367" y="390" type="line"/>
      <point x="275" y="480" type="line"/>
      <point x="196" y="401" type="line"/>
      <point x="117" y="480" type="line"/>
      <point x="25" y="390" type="line"/>
      <point x="104" y="310" type="line"/>
      <point x="25" y="231" type="line"/>
      <point x="117" y="139" type="line"/>
    </contour>
  </outline>
</glyph>
<glyph name="Oslash" format="1">
  <advance width="670"/>
  <unicode hex="00D8"/>
  <note>
	Oslash
  </note>
  <outline>
    <contour>
      <point x="219" y="-43" type="line"/>
      <point x="233" y="-5" type="line"/>
      <point x="263" y="-12"/>
      <point x="297" y="-15"/>
      <point x="335" y="-15" type="curve" smooth="yes"/>
      <point x="551" y="-15"/>
      <point x="655" y="96"/>
      <point x="655" y="321" type="curve" smooth="yes"/>
      <point x="655" y="493"/>
      <point x="599" y="601"/>
      <point x="473" y="643" type="curve"/>
      <point x="490" y="689" type="line"/>
      <point x="433" y="689" type="line"/>
      <point x="420" y="655" type="line"/>
      <point x="394" y="659"/>
      <point x="366" y="662"/>
      <point x="335" y="662" type="curve" smooth="yes"/>
      <point x="110" y="662"/>
      <point x="15" y="546"/>
      <point x="15" y="321" type="curve" smooth="yes"/>
      <point x="15" y="158"/>
      <point x="69" y="55"/>
      <point x="181" y="10" type="curve"/>
      <point x="161" y="-43" type="line"/>
    </contour>
    <contour>
      <point x="207" y="181"/>
      <point x="198" y="237"/>
      <point x="198" y="321" type="curve" smooth="yes"/>
      <point x="198" y="486"/>
      <point x="234" y="545"/>
      <point x="335" y="545" type="curve" smooth="yes"/>
      <point x="351" y="545"/>
      <point x="365" y="543"/>
      <point x="378" y="540" type="curve"/>
      <point x="231" y="147" type="line"/>
    </contour>
    <contour>
      <point x="312" y="102"/>
      <point x="293" y="105"/>
      <point x="276" y="111" type="curve"/>
      <point x="425" y="515" type="line"/>
      <point x="459" y="482"/>
      <point x="472" y="421"/>
      <point x="472" y="321" type="curve" smooth="yes"/>
      <point x="472" y="161"/>
      <point x="436" y="102"/>
      <point x="335" y="102" type="curve" smooth="yes"/>
    </contour>
  </outline>
</glyph>
<glyph name="Ucircumflex" format="1">
  <advance width="680"/>
  <unicode hex="00DB"/>
  <note>
	Ucircumflex
  </note>
  <outline>
    <contour>
      <point x="527" y="-15"/>
      <point x="613" y="67"/>
      <point x="613" y="190" type="curve" smooth="yes"/>
      <point x="613" y="493" type="line" smooth="yes"/>
      <point x="613" y="516"/>
      <point x="626" y="530"/>
      <point x="654" y="530" type="curve" smooth="yes"/>
      <point x="675" y="530" type="line"/>
      <point x="675" y="647" type="line"/>
      <point x="377" y="647" type="line"/>
      <point x="377" y="530" type="line"/>
      <point x="388" y="530" type="line" smooth="yes"/>
      <point x="416" y="530"/>
      <point x="428" y="517"/>
      <point x="428" y="490" type="curve" smooth="yes"/>
      <point x="428" y="184" type="line" smooth="yes"/>
      <point x="428" y="124"/>
      <point x="398" y="102"/>
      <point x="340" y="102" type="curve" smooth="yes"/>
      <point x="281" y="102"/>
      <point x="251" y="124"/>
      <point x="251" y="184" type="curve" smooth="yes"/>
      <point x="251" y="490" type="line" smooth="yes"/>
      <point x="251" y="517"/>
      <point x="263" y="530"/>
      <point x="292" y="530" type="curve" smooth="yes"/>
      <point x="302" y="530" type="line"/>
      <point x="302" y="647" type="line"/>
      <point x="5" y="647" type="line"/>
      <point x="5" y="530" type="line"/>
      <point x="25" y="530" type="line" smooth="yes"/>
      <point x="54" y="530"/>
      <point x="66" y="516"/>
      <point x="66" y="493" type="curve" smooth="yes"/>
      <point x="66" y="190" type="line" smooth="yes"/>
      <point x="66" y="67"/>
      <point x="152" y="-15"/>
      <point x="340" y="-15" type="curve" smooth="yes"/>
    </contour>
    <contour>
      <point x="282" y="697" type="line"/>
      <point x="339" y="804" type="line"/>
      <point x="394" y="697" type="line"/>
      <point x="557" y="697" type="line"/>
      <point x="417" y="900" type="line"/>
      <point x="263" y="900" type="line"/>
      <point x="122" y="697" type="line"/>
    </contour>
  </outline>
</glyph>
<glyph name="Udieresis" format="1">
  <advance width="700"/>
  <unicode hex="00DC"/>
  <note>
	Udieresis
  </note>
  <outline>
    <contour>
      <point x="537" y="-15"/>
      <point x="623" y="67"/>
      <point x="623" y="190" type="curve" smooth="yes"/>
      <point x="623" y="493" type="line" smooth="yes"/>
      <point x="623" y="516"/>
      <point x="636" y="530"/>
      <point x="664" y="530" type="curve" smooth="yes"/>
      <point x="685" y="530" type="line"/>
      <point x="685" y="647" type="line"/>
      <point x="387" y="647" type="line"/>
      <point x="387" y="530" type="line"/>
      <point x="398" y="530" type="line" smooth="yes"/>
      <point x="426" y="530"/>
      <point x="438" y="517"/>
      <point x="438" y="490" type="curve" smooth="yes"/>
      <point x="438" y="184" type="line" smooth="yes"/>
      <point x="438" y="124"/>
      <point x="408" y="102"/>
      <point x="350" y="102" type="curve" smooth="yes"/>
      <point x="291" y="102"/>
      <point x="261" y="124"/>
      <point x="261" y="184" type="curve" smooth="yes"/>
      <point x="261" y="490" type="line" smooth="yes"/>
      <point x="261" y="517"/>
      <point x="273" y="530"/>
      <point x="302" y="530" type="curve" smooth="yes"/>
      <point x="312" y="530" type="line"/>
      <point x="312" y="647" type="line"/>
      <point x="15" y="647" type="line"/>
      <point x="15" y="530" type="line"/>
      <point x="35" y="530" type="line" smooth="yes"/>
      <point x="64" y="530"/>
      <point x="76" y="516"/>
      <point x="76" y="493" type="curve" smooth="yes"/>
      <point x="76" y="190" type="line" smooth="yes"/>
      <point x="76" y="67"/>
      <point x="162" y="-15"/>
      <point x="350" y="-15" type="curve" smooth="yes"/>
    </contour>
    <contour>
      <point x="289" y="717" type="line"/>
      <point x="289" y="854" type="line"/>
      <point x="161" y="854" type="line"/>
      <point x="161" y="717" type="line"/>
    </contour>
    <contour>
      <point x="540" y="717" type="line"/>
      <point x="540" y="854" type="line"/>
      <point x="411" y="854" type="line"/>
      <point x="411" y="717" type="line"/>
    </contour>
  </outline>
</glyph>
<glyph name="Thorn" format="1">
  <advance width="633"/>
  <unicode hex="00DE"/>
  <note>
	Thorn
  </note>
  <outline>
    <contour>
      <point x="322" y="0" type="line"/>
      <point x="322" y="116" type="line"/>
      <point x="302" y="116" type="line" smooth="yes"/>
      <point x="273" y="116"/>
      <point x="261" y="127"/>
      <point x="261" y="150" type="curve"/>
      <point x="373" y="150" type="line" smooth="yes"/>
      <point x="523" y="150"/>
      <point x="618" y="227"/>
      <point x="618" y="367" type="curve" smooth="yes"/>
      <point x="618" y="509"/>
      <point x="523" y="577"/>
      <point x="374" y="577" type="curve" smooth="yes"/>
      <point x="261" y="577" type="line"/>
      <point x="261" y="647" type="line"/>
      <point x="15" y="647" type="line"/>
      <point x="15" y="531" type="line"/>
      <point x="35" y="531" type="line" smooth="yes"/>
      <point x="64" y="531"/>
      <point x="76" y="517"/>
      <point x="76" y="494" type="curve" smooth="yes"/>
      <point x="76" y="153" type="line" smooth="yes"/>
      <point x="76" y="130"/>
      <point x="64" y="116"/>
      <point x="35" y="116" type="curve" smooth="yes"/>
      <point x="15" y="116" type="line"/>
      <point x="15" y="0" type="line"/>
    </contour>
    <contour>
      <point x="261" y="460" type="line"/>
      <point x="348" y="460" type="line" smooth="yes"/>
      <point x="409" y="460"/>
      <point x="435" y="437"/>
      <point x="435" y="367" type="curve" smooth="yes"/>
      <point x="435" y="298"/>
      <point x="410" y="267"/>
      <point x="348" y="267" type="curve" smooth="yes"/>
      <point x="261" y="267" type="line"/>
    </contour>
  </outline>
</glyph>
<glyph name="germandbls" format="1">
  <advance width="656"/>
  <unicode hex="00DF"/>
  <note>
	germandbls
  </note>
  <outline>
    <contour>
      <point x="574" y="-15"/>
      <point x="641" y="71"/>
      <point x="641" y="194" type="curve" smooth="yes"/>
      <point x="641" y="259"/>
      <point x="621" y="311"/>
      <point x="553" y="346" type="curve"/>
      <point x="606" y="374"/>
      <point x="627" y="437"/>
      <point x="627" y="502" type="curve" smooth="yes"/>
      <point x="627" y="624"/>
      <point x="546" y="712"/>
      <point x="350" y="712" type="curve" smooth="yes"/>
      <point x="163" y="712"/>
      <point x="77" y="621"/>
      <point x="77" y="495" type="curve" smooth="yes"/>
      <point x="77" y="156" type="line" smooth="yes"/>
      <point x="77" y="129"/>
      <point x="64" y="116"/>
      <point x="36" y="116" type="curve" smooth="yes"/>
      <point x="15" y="116" type="line"/>
      <point x="15" y="0" type="line"/>
      <point x="261" y="0" type="line"/>
      <point x="261" y="510" type="line" smooth="yes"/>
      <point x="261" y="574"/>
      <point x="308" y="595"/>
      <point x="354" y="595" type="curve" smooth="yes"/>
      <point x="410" y="595"/>
      <point x="444" y="571"/>
      <point x="444" y="502" type="curve" smooth="yes"/>
      <point x="444" y="430"/>
      <point x="422" y="399"/>
      <point x="358" y="399" type="curve" smooth="yes"/>
      <point x="312" y="399" type="line"/>
      <point x="312" y="290" type="line"/>
      <point x="361" y="290" type="line" smooth="yes"/>
      <point x="431" y="290"/>
      <point x="458" y="260"/>
      <point x="458" y="195" type="curve" smooth="yes"/>
      <point x="458" y="125"/>
      <point x="435" y="95"/>
      <point x="402" y="95" type="curve" smooth="yes"/>
      <point x="384" y="95"/>
      <point x="364" y="101"/>
      <point x="349" y="112" type="curve"/>
      <point x="292" y="18" type="line"/>
      <point x="325" y="-5"/>
      <point x="376" y="-15"/>
      <point x="418" y="-15" type="curve" smooth="yes"/>
    </contour>
  </outline>
</glyph>
<glyph name="atilde" format="1">
  <advance width="530"/>
  <unicode hex="00E3"/>
  <note>
	atilde
  </note>
  <outline>
    <contour>
      <point x="274" y="-15"/>
      <point x="318" y="10"/>
      <point x="367" y="67" type="curve"/>
      <point x="382" y="0" type="line"/>
      <point x="525" y="0" type="line"/>
      <point x="525" y="112" type="line"/>
      <point x="513" y="112" type="line" smooth="yes"/>
      <point x="491" y="112"/>
      <point x="481" y="123"/>
      <point x="481" y="147" type="curve" smooth="yes"/>
      <point x="481" y="319" type="line" smooth="yes"/>
      <point x="481" y="421"/>
      <point x="412" y="495"/>
      <point x="258" y="495" type="curve" smooth="yes"/>
      <point x="175" y="495"/>
      <point x="104" y="470"/>
      <point x="49" y="436" type="curve"/>
      <point x="49" y="330" type="line"/>
      <point x="203" y="330" type="line"/>
      <point x="203" y="363" type="line"/>
      <point x="216" y="377"/>
      <point x="230" y="383"/>
      <point x="248" y="383" type="curve" smooth="yes"/>
      <point x="278" y="383"/>
      <point x="294" y="369"/>
      <point x="294" y="339" type="curve" smooth="yes"/>
      <point x="294" y="286" type="line"/>
      <point x="206" y="280" type="line" smooth="yes"/>
      <point x="77" y="271"/>
      <point x="5" y="226"/>
      <point x="5" y="123" type="curve" smooth="yes"/>
      <point x="5" y="38"/>
      <point x="62" y="-15"/>
      <point x="183" y="-15" type="curve" smooth="yes"/>
    </contour>
    <contour>
      <point x="191" y="97"/>
      <point x="173" y="114"/>
      <point x="173" y="140" type="curve" smooth="yes"/>
      <point x="173" y="167"/>
      <point x="188" y="184"/>
      <point x="227" y="187" type="curve" smooth="yes"/>
      <point x="294" y="193" type="line"/>
      <point x="294" y="159" type="line" smooth="yes"/>
      <point x="294" y="119"/>
      <point x="273" y="97"/>
      <point x="225" y="97" type="curve" smooth="yes"/>
    </contour>
    <contour>
      <point x="171" y="520" type="line"/>
      <point x="171" y="549"/>
      <point x="187" y="566"/>
      <point x="215" y="566" type="curve" smooth="yes"/>
      <point x="257" y="566"/>
      <point x="288" y="520"/>
      <point x="366" y="520" type="curve" smooth="yes"/>
      <point x="462" y="520"/>
      <point x="496" y="578"/>
      <point x="496" y="705" type="curve"/>
      <point x="371" y="705" type="line"/>
      <point x="371" y="677"/>
      <point x="358" y="659"/>
      <point x="328" y="659" type="curve" smooth="yes"/>
      <point x="284" y="659"/>
      <point x="255" y="705"/>
      <point x="180" y="705" type="curve" smooth="yes"/>
      <point x="84" y="705"/>
      <point x="46" y="644"/>
      <point x="46" y="520" type="curve"/>
    </contour>
  </outline>
</glyph>
<glyph name="ccedilla" format="1">
  <advance width="528"/>
  <unicode hex="00E7"/>
  <note>
	ccedilla
  </note>
  <outline>
    <contour>
      <point x="401" y="-15"/>
      <point x="449" y="3"/>
      <point x="513" y="52" type="curve"/>
      <point x="456" y="146" type="line"/>
      <point x="423" y="121"/>
      <point x="379" y="110"/>
      <point x="329" y="110" type="curve" smooth="yes"/>
      <point x="241" y="110"/>
      <point x="199" y="146"/>
      <point x="199" y="233" type="curve" smooth="yes"/>
      <point x="199" y="329"/>
      <point x="237" y="371"/>
      <point x="292" y="371" type="curve" smooth="yes"/>
      <point x="319" y="371"/>
      <point x="337" y="367"/>
      <point x="354" y="355" type="curve"/>
      <point x="354" y="301" type="line"/>
      <point x="507" y="301" type="line"/>
      <point x="507" y="425" type="line"/>
      <point x="447" y="472"/>
      <point x="392" y="495"/>
      <point x="293" y="495" type="curve" smooth="yes"/>
      <point x="124" y="495"/>
      <point x="15" y="412"/>
      <point x="15" y="233" type="curve" smooth="yes"/>
      <point x="15" y="68"/>
      <point x="138" y="-15"/>
      <point x="291" y="-15" type="curve" smooth="yes"/>
    </contour>
    <contour>
      <point x="399" y="-228"/>
      <point x="445" y="-187"/>
      <point x="445" y="-123" type="curve" smooth="yes"/>
      <point x="445" y="-75"/>
      <point x="421" y="-47"/>
      <point x="371" y="-36" type="curve"/>
      <point x="377" y="0" type="line"/>
      <point x="207" y="0" type="line"/>
      <point x="196" y="-77" type="line"/>
      <point x="270" y="-77"/>
      <point x="287" y="-90"/>
      <point x="287" y="-114" type="curve" smooth="yes"/>
      <point x="287" y="-125"/>
      <point x="280" y="-133"/>
      <point x="256" y="-133" type="curve" smooth="yes"/>
      <point x="236" y="-133"/>
      <point x="202" y="-129"/>
      <point x="172" y="-113" type="curve"/>
      <point x="172" y="-208" type="line"/>
      <point x="207" y="-224"/>
      <point x="237" y="-228"/>
      <point x="279" y="-228" type="curve" smooth="yes"/>
    </contour>
  </outline>
</glyph>
<glyph name="iacute" format="1">
  <advance width="322"/>
  <unicode hex="00ED"/>
  <note>
	iacute
  </note>
  <outline>
    <contour>
      <point x="317" y="0" type="line"/>
      <point x="317" y="118" type="line"/>
      <point x="296" y="118" type="line" smooth="yes"/>
      <point x="268" y="118"/>
      <point x="255" y="132"/>
      <point x="255" y="156" type="curve" smooth="yes"/>
      <point x="255" y="480" type="line"/>
      <point x="5" y="480" type="line"/>
      <point x="5" y="361" type="line"/>
      <point x="26" y="361" type="line" smooth="yes"/>
      <point x="55" y="361"/>
      <point x="67" y="346"/>
      <point x="67" y="323" type="curve" smooth="yes"/>
      <point x="67" y="158" type="line" smooth="yes"/>
      <point x="67" y="131"/>
      <point x="55" y="118"/>
      <point x="26" y="118" type="curve" smooth="yes"/>
      <point x="5" y="118" type="line"/>
      <point x="5" y="0" type="line"/>
    </contour>
    <contour>
      <point x="196" y="520" type="line"/>
      <point x="308" y="702" type="line"/>
      <point x="112" y="702" type="line"/>
      <point x="41" y="520" type="line"/>
    </contour>
  </outline>
</glyph>
<glyph name="idieresis" format="1">
  <advance width="322"/>
  <unicode hex="00EF"/>
  <note>
	idieresis
  </note>
  <outline>
    <contour>
      <point x="317" y="0" type="line"/>
      <point x="317" y="118" type="line"/>
      <point x="296" y="118" type="line" smooth="yes"/>
      <point x="268" y="118"/>
      <point x="255" y="132"/>
      <point x="255" y="156" type="curve" smooth="yes"/>
      <point x="255" y="480" type="line"/>
      <point x="5" y="480" type="line"/>
      <point x="5" y="361" type="line"/>
      <point x="26" y="361" type="line" smooth="yes"/>
      <point x="55" y="361"/>
      <point x="67" y="346"/>
      <point x="67" y="323" type="curve" smooth="yes"/>
      <point x="67" y="158" type="line" smooth="yes"/>
      <point x="67" y="131"/>
      <point x="55" y="118"/>
      <point x="26" y="118" type="curve" smooth="yes"/>
      <point x="5" y="118" type="line"/>
      <point x="5" y="0" type="line"/>
    </contour>
    <contour>
      <point x="85" y="540" type="line"/>
      <point x="85" y="677" type="line"/>
      <point x="-43" y="677" type="line"/>
      <point x="-43" y="540" type="line"/>
    </contour>
    <contour>
      <point x="336" y="540" type="line"/>
      <point x="336" y="677" type="line"/>
      <point x="207" y="677" type="line"/>
      <point x="207" y="540" type="line"/>
    </contour>
  </outline>
</glyph>
<glyph name="eth" format="1">
  <advance width="596"/>
  <unicode hex="00F0"/>
  <note>
	eth
  </note>
  <outline>
    <contour>
      <point x="512" y="-15"/>
      <point x="581" y="173"/>
      <point x="581" y="370" type="curve" smooth="yes"/>
      <point x="581" y="491"/>
      <point x="547" y="565"/>
      <point x="496" y="609" type="curve"/>
      <point x="551" y="640" type="line"/>
      <point x="533" y="682" type="line"/>
      <point x="453" y="636" type="line"/>
      <point x="415" y="654"/>
      <point x="371" y="662"/>
      <point x="325" y="662" type="curve" smooth="yes"/>
      <point x="249" y="662"/>
      <point x="173" y="644"/>
      <point x="108" y="606" type="curve"/>
      <point x="157" y="506" type="line"/>
      <point x="208" y="534"/>
      <point x="242" y="545"/>
      <point x="295" y="545" type="curve"/>
      <point x="267" y="529" type="line"/>
      <point x="286" y="489" type="line"/>
      <point x="358" y="530" type="line"/>
      <point x="380" y="516"/>
      <point x="391" y="493"/>
      <point x="395" y="466" type="curve"/>
      <point x="373" y="480"/>
      <point x="335" y="483"/>
      <point x="299" y="483" type="curve" smooth="yes"/>
      <point x="129" y="483"/>
      <point x="15" y="381"/>
      <point x="15" y="217" type="curve" smooth="yes"/>
      <point x="15" y="44"/>
      <point x="127" y="-15"/>
      <point x="270" y="-15" type="curve" smooth="yes"/>
    </contour>
    <contour>
      <point x="203" y="102"/>
      <point x="198" y="142"/>
      <point x="198" y="195" type="curve" smooth="yes"/>
      <point x="198" y="301"/>
      <point x="230" y="366"/>
      <point x="308" y="366" type="curve" smooth="yes"/>
      <point x="358" y="366"/>
      <point x="382" y="354"/>
      <point x="382" y="280" type="curve" smooth="yes"/>
      <point x="382" y="161"/>
      <point x="344" y="102"/>
      <point x="275" y="102" type="curve" smooth="yes"/>
    </contour>
  </outline>
</glyph>
<glyph name="ntilde" format="1">
  <advance width="603"/>
  <unicode hex="00F1"/>
  <note>
	ntilde
  </note>
  <outline>
    <contour>
      <point x="291" y="0" type="line"/>
      <point x="291" y="118" type="line"/>
      <point x="278" y="118" type="line" smooth="yes"/>
      <point x="252" y="118"/>
      <point x="244" y="132"/>
      <point x="244" y="156" type="curve" smooth="yes"/>
      <point x="244" y="324" type="line" smooth="yes"/>
      <point x="244" y="367"/>
      <point x="261" y="383"/>
      <point x="298" y="383" type="curve" smooth="yes"/>
      <point x="332" y="383"/>
      <point x="350" y="367"/>
      <point x="350" y="324" type="curve" smooth="yes"/>
      <point x="350" y="0" type="line"/>
      <point x="598" y="0" type="line"/>
      <point x="598" y="118" type="line"/>
      <point x="579" y="118" type="line" smooth="yes"/>
      <point x="550" y="118"/>
      <point x="538" y="132"/>
      <point x="538" y="156" type="curve" smooth="yes"/>
      <point x="538" y="325" type="line" smooth="yes"/>
      <point x="538" y="433"/>
      <point x="487" y="495"/>
      <point x="364" y="495" type="curve" smooth="yes"/>
      <point x="282" y="495"/>
      <point x="221" y="466"/>
      <point x="180" y="416" type="curve"/>
      <point x="173" y="480" type="line"/>
      <point x="5" y="480" type="line"/>
      <point x="5" y="360" type="line"/>
      <point x="18" y="360" type="line" smooth="yes"/>
      <point x="47" y="360"/>
      <point x="57" y="345"/>
      <point x="57" y="322" type="curve" smooth="yes"/>
      <point x="57" y="156" type="line" smooth="yes"/>
      <point x="57" y="132"/>
      <point x="44" y="118"/>
      <point x="15" y="118" type="curve" smooth="yes"/>
      <point x="5" y="118" type="line"/>
      <point x="5" y="0" type="line"/>
    </contour>
    <contour>
      <point x="172" y="520" type="line"/>
      <point x="172" y="549"/>
      <point x="188" y="566"/>
      <point x="216" y="566" type="curve" smooth="yes"/>
      <point x="258" y="566"/>
      <point x="289" y="520"/>
      <point x="367" y="520" type="curve" smooth="yes"/>
      <point x="463" y="520"/>
      <point x="497" y="578"/>
      <point x="497" y="705" type="curve"/>
      <point x="372" y="705" type="line"/>
      <point x="372" y="677"/>
      <point x="359" y="659"/>
      <point x="329" y="659" type="curve" smooth="yes"/>
      <point x="285" y="659"/>
      <point x="256" y="705"/>
      <point x="181" y="705" type="curve" smooth="yes"/>
      <point x="85" y="705"/>
      <point x="47" y="644"/>
      <point x="47" y="520" type="curve"/>
    </contour>
  </outline>
</glyph>
<glyph name="oacute" format="1">
  <advance width="558"/>
  <unicode hex="00F3"/>
  <note>
	oacute
  </note>
  <outline>
    <contour>
      <point x="443" y="-15"/>
      <point x="543" y="70"/>
      <point x="543" y="240" type="curve" smooth="yes"/>
      <point x="543" y="409"/>
      <point x="449" y="495"/>
      <point x="280" y="495" type="curve" smooth="yes"/>
      <point x="110" y="495"/>
      <point x="15" y="409"/>
      <point x="15" y="240" type="curve" smooth="yes"/>
      <point x="15" y="70"/>
      <point x="115" y="-15"/>
      <point x="280" y="-15" type="curve" smooth="yes"/>
    </contour>
    <contour>
      <point x="218" y="104"/>
      <point x="201" y="144"/>
      <point x="201" y="240" type="curve" smooth="yes"/>
      <point x="201" y="337"/>
      <point x="218" y="376"/>
      <point x="280" y="376" type="curve" smooth="yes"/>
      <point x="340" y="376"/>
      <point x="359" y="337"/>
      <point x="359" y="240" type="curve" smooth="yes"/>
      <point x="359" y="144"/>
      <point x="340" y="104"/>
      <point x="280" y="104" type="curve" smooth="yes"/>
    </contour>
    <contour>
      <point x="350" y="520" type="line"/>
      <point x="462" y="702" type="line"/>
      <point x="266" y="702" type="line"/>
      <point x="195" y="520" type="line"/>
    </contour>
  </outline>
</glyph>
<glyph name="otilde" format="1">
  <advance width="558"/>
  <unicode hex="00F5"/>
  <note>
	otilde
  </note>
  <outline>
    <contour>
      <point x="443" y="-15"/>
      <point x="543" y="70"/>
      <point x="543" y="240" type="curve" smooth="yes"/>
      <point x="543" y="409"/>
      <point x="449" y="495"/>
      <point x="280" y="495" type="curve" smooth="yes"/>
      <point x="110" y="495"/>
      <point x="15" y="409"/>
      <point x="15" y="240" type="curve" smooth="yes"/>
      <point x="15" y="70"/>
      <point x="115" y="-15"/>
      <point x="280" y="-15" type="curve" smooth="yes"/>
    </contour>
    <contour>
      <point x="218" y="104"/>
      <point x="201" y="144"/>
      <point x="201" y="240" type="curve" smooth="yes"/>
      <point x="201" y="337"/>
      <point x="218" y="376"/>
      <point x="280" y="376" type="curve" smooth="yes"/>
      <point x="340" y="376"/>
      <point x="359" y="337"/>
      <point x="359" y="240" type="curve" smooth="yes"/>
      <point x="359" y="144"/>
      <point x="340" y="104"/>
      <point x="280" y="104" type="curve" smooth="yes"/>
    </contour>
    <contour>
      <point x="180" y="520" type="line"/>
      <point x="180" y="549"/>
      <point x="196" y="566"/>
      <point x="224" y="566" type="curve" smooth="yes"/>
      <point x="266" y="566"/>
      <point x="297" y="520"/>
      <point x="375" y="520" type="curve" smooth="yes"/>
      <point x="471" y="520"/>
      <point x="505" y="578"/>
      <point x="505" y="705" type="curve"/>
      <point x="380" y="705" type="line"/>
      <point x="380" y="677"/>
      <point x="367" y="659"/>
      <point x="337" y="659" type="curve" smooth="yes"/>
      <point x="293" y="659"/>
      <point x="264" y="705"/>
      <point x="189" y="705" type="curve" smooth="yes"/>
      <point x="93" y="705"/>
      <point x="55" y="644"/>
      <point x="55" y="520" type="curve"/>
    </contour>
  </outline>
</glyph>
<glyph name="divide" format="1">
  <advance width="414"/>
  <unicode hex="00F7"/>
  <note>
	divide
  </note>
  <outline>
    <contour>
      <point x="389" y="262" type="line"/>
      <point x="389" y="358" type="line"/>
      <point x="25" y="358" type="line"/>
      <point x="25" y="262" type="line"/>
    </contour>
    <contour>
      <point x="261" y="137" type="line"/>
      <point x="261" y="238" type="line"/>
      <point x="153" y="238" type="line"/>
      <point x="153" y="137" type="line"/>
    </contour>
    <contour>
      <point x="261" y="382" type="line"/>
      <point x="261" y="483" type="line"/>
      <point x="153" y="483" type="line"/>
      <point x="153" y="382" type="line"/>
    </contour>
  </outline>
</glyph>
<glyph name="oslash" format="1">
  <advance width="558"/>
  <unicode hex="00F8"/>
  <note>
	oslash
  </note>
  <outline>
    <contour>
      <point x="206" y="-52" type="line"/>
      <point x="220" y="-11" type="line"/>
      <point x="239" y="-13"/>
      <point x="259" y="-15"/>
      <point x="280" y="-15" type="curve" smooth="yes"/>
      <point x="443" y="-15"/>
      <point x="543" y="70"/>
      <point x="543" y="240" type="curve" smooth="yes"/>
      <point x="543" y="365"/>
      <point x="491" y="445"/>
      <point x="395" y="478" type="curve"/>
      <point x="416" y="535" type="line"/>
      <point x="359" y="535" type="line"/>
      <point x="343" y="490" type="line"/>
      <point x="323" y="493"/>
      <point x="302" y="495"/>
      <point x="280" y="495" type="curve" smooth="yes"/>
      <point x="110" y="495"/>
      <point x="15" y="409"/>
      <point x="15" y="240" type="curve" smooth="yes"/>
      <point x="15" y="113"/>
      <point x="70" y="33"/>
      <point x="167" y="1" type="curve"/>
      <point x="148" y="-52" type="line"/>
    </contour>
    <contour>
      <point x="205" y="160"/>
      <point x="201" y="193"/>
      <point x="201" y="240" type="curve" smooth="yes"/>
      <point x="201" y="337"/>
      <point x="218" y="376"/>
      <point x="280" y="376" type="curve" smooth="yes"/>
      <point x="288" y="376"/>
      <point x="295" y="375"/>
      <point x="301" y="374" type="curve"/>
      <point x="216" y="138" type="line"/>
    </contour>
    <contour>
      <point x="273" y="104"/>
      <point x="267" y="104"/>
      <point x="262" y="105" type="curve"/>
      <point x="345" y="337" type="line"/>
      <point x="355" y="315"/>
      <point x="359" y="283"/>
      <point x="359" y="240" type="curve" smooth="yes"/>
      <point x="359" y="144"/>
      <point x="340" y="104"/>
      <point x="280" y="104" type="curve" smooth="yes"/>
    </contour>
  </outline>
</glyph>
<glyph name="udieresis" format="1">
  <advance width="603"/>
  <unicode hex="00FC"/>
  <note>
	udieresis
  </note>
  <outline>
    <contour>
      <point x="320" y="-16"/>
      <point x="371" y="4"/>
      <point x="423" y="61" type="curve"/>
      <point x="430" y="0" type="line"/>
      <point x="598" y="0" type="line"/>
      <point x="598" y="119" type="line"/>
      <point x="588" y="119" type="line" smooth="yes"/>
      <point x="559" y="119"/>
      <point x="546" y="133"/>
      <point x="546" y="157" type="curve" smooth="yes"/>
      <point x="546" y="480" type="line"/>
      <point x="312" y="480" type="line"/>
      <point x="312" y="362" type="line"/>
      <point x="328" y="362" type="line" smooth="yes"/>
      <point x="353" y="362"/>
      <point x="359" y="347"/>
      <point x="359" y="324" type="curve" smooth="yes"/>
      <point x="359" y="155" type="line" smooth="yes"/>
      <point x="359" y="111"/>
      <point x="342" y="95"/>
      <point x="305" y="95" type="curve" smooth="yes"/>
      <point x="271" y="95"/>
      <point x="253" y="111"/>
      <point x="253" y="155" type="curve" smooth="yes"/>
      <point x="253" y="480" type="line"/>
      <point x="5" y="480" type="line"/>
      <point x="5" y="362" type="line"/>
      <point x="24" y="362" type="line" smooth="yes"/>
      <point x="53" y="362"/>
      <point x="65" y="347"/>
      <point x="65" y="324" type="curve" smooth="yes"/>
      <point x="65" y="154" type="line" smooth="yes"/>
      <point x="65" y="46"/>
      <point x="116" y="-16"/>
      <point x="239" y="-16" type="curve" smooth="yes"/>
    </contour>
    <contour>
      <point x="227" y="540" type="line"/>
      <point x="227" y="677" type="line"/>
      <point x="99" y="677" type="line"/>
      <point x="99" y="540" type="line"/>
    </contour>
    <contour>
      <point x="478" y="540" type="line"/>
      <point x="478" y="677" type="line"/>
      <point x="349" y="677" type="line"/>
      <point x="349" y="540" type="line"/>
    </contour>
  </outline>
</glyph>
<glyph name="yacute" format="1">
  <advance width="592"/>
  <unicode hex="00FD"/>
  <note>
	yacute
  </note>
  <outline>
    <contour>
      <point x="468" y="-200"/>
      <point x="557" y="-109"/>
      <point x="557" y="29" type="curve" smooth="yes"/>
      <point x="557" y="480" type="line"/>
      <point x="323" y="480" type="line"/>
      <point x="323" y="362" type="line"/>
      <point x="337" y="362" type="line" smooth="yes"/>
      <point x="366" y="362"/>
      <point x="370" y="347"/>
      <point x="370" y="324" type="curve" smooth="yes"/>
      <point x="370" y="172" type="line" smooth="yes"/>
      <point x="370" y="130"/>
      <point x="352" y="114"/>
      <point x="312" y="114" type="curve" smooth="yes"/>
      <point x="273" y="114"/>
      <point x="253" y="135"/>
      <point x="253" y="175" type="curve" smooth="yes"/>
      <point x="253" y="480" type="line"/>
      <point x="5" y="480" type="line"/>
      <point x="5" y="362" type="line"/>
      <point x="24" y="362" type="line" smooth="yes"/>
      <point x="53" y="362"/>
      <point x="66" y="347"/>
      <point x="66" y="324" type="curve" smooth="yes"/>
      <point x="66" y="183" type="line" smooth="yes"/>
      <point x="66" y="71"/>
      <point x="149" y="5"/>
      <point x="281" y="5" type="curve" smooth="yes"/>
      <point x="307" y="5"/>
      <point x="351" y="13"/>
      <point x="386" y="25" type="curve"/>
      <point x="386" y="-20" type="line" smooth="yes"/>
      <point x="386" y="-76"/>
      <point x="360" y="-96"/>
      <point x="320" y="-96" type="curve" smooth="yes"/>
      <point x="290" y="-96"/>
      <point x="270" y="-89"/>
      <point x="253" y="-72" type="curve"/>
      <point x="253" y="-46" type="line"/>
      <point x="100" y="-46" type="line"/>
      <point x="100" y="-127" type="line"/>
      <point x="149" y="-174"/>
      <point x="227" y="-200"/>
      <point x="323" y="-200" type="curve" smooth="yes"/>
    </contour>
    <contour>
      <point x="345" y="520" type="line"/>
      <point x="457" y="702" type="line"/>
      <point x="261" y="702" type="line"/>
      <point x="190" y="520" type="line"/>
    </contour>
  </outline>
</glyph>
<glyph name="thorn" format="1">
  <advance width="605"/>
  <unicode hex="00FE"/>
  <note>
	thorn
  </note>
  <outline>
    <contour>
      <point x="281" y="-208" type="line"/>
      <point x="281" y="-90" type="line"/>
      <point x="270" y="-90" type="line" smooth="yes"/>
      <point x="241" y="-90"/>
      <point x="229" y="-75"/>
      <point x="229" y="-52" type="curve" smooth="yes"/>
      <point x="229" y="26" type="line"/>
      <point x="270" y="-3"/>
      <point x="302" y="-16"/>
      <point x="368" y="-16" type="curve" smooth="yes"/>
      <point x="512" y="-16"/>
      <point x="590" y="80"/>
      <point x="590" y="247" type="curve" smooth="yes"/>
      <point x="590" y="409"/>
      <point x="504" y="495"/>
      <point x="365" y="495" type="curve" smooth="yes"/>
      <point x="306" y="495"/>
      <point x="268" y="483"/>
      <point x="229" y="456" type="curve"/>
      <point x="229" y="662" type="line"/>
      <point x="15" y="662" type="line"/>
      <point x="15" y="542" type="line"/>
      <point x="25" y="542" type="line" smooth="yes"/>
      <point x="54" y="542"/>
      <point x="67" y="527"/>
      <point x="67" y="504" type="curve" smooth="yes"/>
      <point x="67" y="-52" type="line" smooth="yes"/>
      <point x="67" y="-75"/>
      <point x="54" y="-90"/>
      <point x="25" y="-90" type="curve" smooth="yes"/>
      <point x="15" y="-90" type="line"/>
      <point x="15" y="-208" type="line"/>
    </contour>
    <contour>
      <point x="266" y="93"/>
      <point x="240" y="138"/>
      <point x="240" y="213" type="curve" smooth="yes"/>
      <point x="240" y="268" type="line" smooth="yes"/>
      <point x="240" y="335"/>
      <point x="266" y="391"/>
      <point x="322" y="391" type="curve" smooth="yes"/>
      <point x="390" y="391"/>
      <point x="406" y="345"/>
      <point x="406" y="245" type="curve" smooth="yes"/>
      <point x="406" y="144"/>
      <point x="390" y="93"/>
      <point x="322" y="93" type="curve" smooth="yes"/>
    </contour>
  </outline>
</glyph>
<glyph name="Abreve" format="1">
  <advance width="712"/>
  <unicode hex="0102"/>
  <note>
	Abreve
  </note>
  <outline>
    <contour>
      <point x="308" y="0" type="line"/>
      <point x="308" y="116" type="line"/>
      <point x="270" y="116" type="line"/>
      <point x="292" y="189" type="line"/>
      <point x="422" y="189" type="line"/>
      <point x="443" y="116" type="line"/>
      <point x="405" y="116" type="line"/>
      <point x="405" y="0" type="line"/>
      <point x="697" y="0" type="line"/>
      <point x="697" y="116" type="line"/>
      <point x="673" y="116" type="line" smooth="yes"/>
      <point x="637" y="116"/>
      <point x="627" y="119"/>
      <point x="616" y="150" type="curve" smooth="yes"/>
      <point x="448" y="647" type="line"/>
      <point x="267" y="647" type="line"/>
      <point x="96" y="150" type="line" smooth="yes"/>
      <point x="85" y="119"/>
      <point x="75" y="116"/>
      <point x="39" y="116" type="curve" smooth="yes"/>
      <point x="15" y="116" type="line"/>
      <point x="15" y="0" type="line"/>
    </contour>
    <contour>
      <point x="359" y="413" type="line"/>
      <point x="396" y="280" type="line"/>
      <point x="319" y="280" type="line"/>
    </contour>
    <contour>
      <point x="483" y="697"/>
      <point x="548" y="763"/>
      <point x="548" y="860" type="curve"/>
      <point x="395" y="860" type="line"/>
      <point x="395" y="826"/>
      <point x="391" y="804"/>
      <point x="360" y="804" type="curve" smooth="yes"/>
      <point x="333" y="804"/>
      <point x="325" y="826"/>
      <point x="325" y="860" type="curve"/>
      <point x="172" y="860" type="line"/>
      <point x="172" y="763"/>
      <point x="237" y="697"/>
      <point x="360" y="697" type="curve" smooth="yes"/>
    </contour>
  </outline>
</glyph>
<glyph name="Aogonek" format="1">
  <advance width="712"/>
  <unicode hex="0104"/>
  <note>
	Aogonek
  </note>
  <outline>
    <contour>
      <point x="308" y="0" type="line"/>
      <point x="308" y="116" type="line"/>
      <point x="270" y="116" type="line"/>
      <point x="292" y="189" type="line"/>
      <point x="422" y="189" type="line"/>
      <point x="443" y="116" type="line"/>
      <point x="405" y="116" type="line"/>
      <point x="405" y="0" type="line"/>
      <point x="697" y="0" type="line"/>
      <point x="697" y="116" type="line"/>
      <point x="673" y="116" type="line" smooth="yes"/>
      <point x="637" y="116"/>
      <point x="627" y="119"/>
      <point x="616" y="150" type="curve" smooth="yes"/>
      <point x="448" y="647" type="line"/>
      <point x="267" y="647" type="line"/>
      <point x="96" y="150" type="line" smooth="yes"/>
      <point x="85" y="119"/>
      <point x="75" y="116"/>
      <point x="39" y="116" type="curve" smooth="yes"/>
      <point x="15" y="116" type="line"/>
      <point x="15" y="0" type="line"/>
    </contour>
    <contour>
      <point x="563" y="-221"/>
      <point x="593" y="-214"/>
      <point x="624" y="-190" type="curve"/>
      <point x="624" y="-92" type="line"/>
      <point x="615" y="-97"/>
      <point x="603" y="-100"/>
      <point x="592" y="-100" type="curve" smooth="yes"/>
      <point x="573" y="-100"/>
      <point x="564" y="-86"/>
      <point x="564" y="-68" type="curve" smooth="yes"/>
      <point x="564" y="-41"/>
      <point x="579" y="-23"/>
      <point x="612" y="0" type="curve"/>
      <point x="461" y="0" type="line"/>
      <point x="428" y="-23"/>
      <point x="406" y="-72"/>
      <point x="406" y="-118" type="curve" smooth="yes"/>
      <point x="406" y="-192"/>
      <point x="460" y="-221"/>
      <point x="518" y="-221" type="curve" smooth="yes"/>
    </contour>
    <contour>
      <point x="359" y="413" type="line"/>
      <point x="396" y="280" type="line"/>
      <point x="319" y="280" type="line"/>
    </contour>
  </outline>
</glyph>
<glyph name="aogonek" format="1">
  <advance width="539"/>
  <unicode hex="0105"/>
  <note>
	aogonek
  </note>
  <outline>
    <contour>
      <point x="274" y="-15"/>
      <point x="318" y="10"/>
      <point x="367" y="67" type="curve"/>
      <point x="382" y="0" type="line"/>
      <point x="525" y="0" type="line"/>
      <point x="525" y="112" type="line"/>
      <point x="513" y="112" type="line" smooth="yes"/>
      <point x="491" y="112"/>
      <point x="481" y="123"/>
      <point x="481" y="147" type="curve" smooth="yes"/>
      <point x="481" y="319" type="line" smooth="yes"/>
      <point x="481" y="421"/>
      <point x="412" y="495"/>
      <point x="258" y="495" type="curve" smooth="yes"/>
      <point x="175" y="495"/>
      <point x="104" y="470"/>
      <point x="49" y="436" type="curve"/>
      <point x="49" y="330" type="line"/>
      <point x="203" y="330" type="line"/>
      <point x="203" y="363" type="line"/>
      <point x="216" y="377"/>
      <point x="230" y="383"/>
      <point x="248" y="383" type="curve" smooth="yes"/>
      <point x="278" y="383"/>
      <point x="294" y="369"/>
      <point x="294" y="339" type="curve" smooth="yes"/>
      <point x="294" y="286" type="line"/>
      <point x="206" y="280" type="line" smooth="yes"/>
      <point x="77" y="271"/>
      <point x="5" y="226"/>
      <point x="5" y="123" type="curve" smooth="yes"/>
      <point x="5" y="38"/>
      <point x="62" y="-15"/>
      <point x="183" y="-15" type="curve" smooth="yes"/>
    </contour>
    <contour>
      <point x="473" y="-221"/>
      <point x="503" y="-214"/>
      <point x="534" y="-190" type="curve"/>
      <point x="534" y="-92" type="line"/>
      <point x="525" y="-97"/>
      <point x="513" y="-100"/>
      <point x="502" y="-100" type="curve" smooth="yes"/>
      <point x="483" y="-100"/>
      <point x="474" y="-86"/>
      <point x="474" y="-68" type="curve" smooth="yes"/>
      <point x="474" y="-41"/>
      <point x="489" y="-23"/>
      <point x="522" y="0" type="curve"/>
      <point x="371" y="0" type="line"/>
      <point x="338" y="-23"/>
      <point x="316" y="-72"/>
      <point x="316" y="-118" type="curve" smooth="yes"/>
      <point x="316" y="-192"/>
      <point x="370" y="-221"/>
      <point x="428" y="-221" type="curve" smooth="yes"/>
    </contour>
    <contour>
      <point x="191" y="97"/>
      <point x="173" y="114"/>
      <point x="173" y="140" type="curve" smooth="yes"/>
      <point x="173" y="167"/>
      <point x="188" y="184"/>
      <point x="227" y="187" type="curve" smooth="yes"/>
      <point x="294" y="193" type="line"/>
      <point x="294" y="159" type="line" smooth="yes"/>
      <point x="294" y="119"/>
      <point x="273" y="97"/>
      <point x="225" y="97" type="curve" smooth="yes"/>
    </contour>
  </outline>
</glyph>
<glyph name="Cacute" format="1">
  <advance width="614"/>
  <unicode hex="0106"/>
  <note>
	Cacute
  </note>
  <outline>
    <contour>
      <point x="471" y="-15"/>
      <point x="524" y="-1"/>
      <point x="599" y="51" type="curve"/>
      <point x="538" y="149" type="line"/>
      <point x="484" y="112"/>
      <point x="438" y="102"/>
      <point x="378" y="102" type="curve" smooth="yes"/>
      <point x="250" y="102"/>
      <point x="197" y="180"/>
      <point x="197" y="318" type="curve" smooth="yes"/>
      <point x="197" y="459"/>
      <point x="246" y="545"/>
      <point x="347" y="545" type="curve" smooth="yes"/>
      <point x="367" y="545"/>
      <point x="389" y="543"/>
      <point x="406" y="539" type="curve"/>
      <point x="406" y="460" type="line"/>
      <point x="591" y="460" type="line"/>
      <point x="591" y="598" type="line"/>
      <point x="529" y="643"/>
      <point x="459" y="662"/>
      <point x="347" y="662" type="curve" smooth="yes"/>
      <point x="114" y="662"/>
      <point x="15" y="513"/>
      <point x="15" y="318" type="curve" smooth="yes"/>
      <point x="15" y="123"/>
      <point x="130" y="-15"/>
      <point x="368" y="-15" type="curve" smooth="yes"/>
    </contour>
    <contour>
      <point x="403" y="697" type="line"/>
      <point x="515" y="879" type="line"/>
      <point x="319" y="879" type="line"/>
      <point x="248" y="697" type="line"/>
    </contour>
  </outline>
</glyph>
<glyph name="Dcaron" format="1">
  <advance width="640"/>
  <unicode hex="010E"/>
  <note>
	Dcaron
  </note>
  <outline>
    <contour>
      <point x="339" y="0" type="line" smooth="yes"/>
      <point x="532" y="0"/>
      <point x="625" y="144"/>
      <point x="625" y="321" type="curve" smooth="yes"/>
      <point x="625" y="532"/>
      <point x="532" y="647"/>
      <point x="339" y="647" type="curve" smooth="yes"/>
      <point x="15" y="647" type="line"/>
      <point x="15" y="530" type="line"/>
      <point x="36" y="530" type="line" smooth="yes"/>
      <point x="64" y="530"/>
      <point x="77" y="516"/>
      <point x="77" y="493" type="curve" smooth="yes"/>
      <point x="77" y="156" type="line" smooth="yes"/>
      <point x="77" y="129"/>
      <point x="64" y="116"/>
      <point x="36" y="116" type="curve" smooth="yes"/>
      <point x="15" y="116" type="line"/>
      <point x="15" y="0" type="line"/>
    </contour>
    <contour>
      <point x="262" y="531" type="line"/>
      <point x="311" y="531" type="line" smooth="yes"/>
      <point x="414" y="531"/>
      <point x="442" y="456"/>
      <point x="442" y="321" type="curve" smooth="yes"/>
      <point x="442" y="190"/>
      <point x="414" y="116"/>
      <point x="311" y="116" type="curve" smooth="yes"/>
      <point x="262" y="116" type="line"/>
    </contour>
    <contour>
      <point x="365" y="697" type="line"/>
      <point x="505" y="901" type="line"/>
      <point x="342" y="901" type="line"/>
      <point x="287" y="793" type="line"/>
      <point x="230" y="901" type="line"/>
      <point x="70" y="901" type="line"/>
      <point x="211" y="697" type="line"/>
    </contour>
  </outline>
</glyph>
<glyph name="dcaron" format="1">
  <advance width="774"/>
  <unicode hex="010F"/>
  <note>
	dcaron
  </note>
  <outline>
    <contour>
      <point x="315" y="-14"/>
      <point x="367" y="12"/>
      <point x="411" y="61" type="curve"/>
      <point x="419" y="0" type="line"/>
      <point x="581" y="0" type="line"/>
      <point x="581" y="112" type="line"/>
      <point x="573" y="112" type="line" smooth="yes"/>
      <point x="545" y="112"/>
      <point x="538" y="121"/>
      <point x="538" y="150" type="curve" smooth="yes"/>
      <point x="538" y="662" type="line"/>
      <point x="324" y="662" type="line"/>
      <point x="324" y="543" type="line"/>
      <point x="335" y="543" type="line" smooth="yes"/>
      <point x="363" y="543"/>
      <point x="376" y="529"/>
      <point x="376" y="505" type="curve" smooth="yes"/>
      <point x="376" y="452" type="line"/>
      <point x="336" y="482"/>
      <point x="301" y="495"/>
      <point x="242" y="495" type="curve" smooth="yes"/>
      <point x="91" y="495"/>
      <point x="15" y="397"/>
      <point x="15" y="226" type="curve" smooth="yes"/>
      <point x="15" y="64"/>
      <point x="103" y="-14"/>
      <point x="235" y="-14" type="curve" smooth="yes"/>
    </contour>
    <contour>
      <point x="215" y="90"/>
      <point x="199" y="127"/>
      <point x="199" y="229" type="curve" smooth="yes"/>
      <point x="199" y="329"/>
      <point x="215" y="385"/>
      <point x="283" y="385" type="curve" smooth="yes"/>
      <point x="345" y="385"/>
      <point x="365" y="336"/>
      <point x="365" y="260" type="curve" smooth="yes"/>
      <point x="365" y="217" type="line" smooth="yes"/>
      <point x="365" y="150"/>
      <point x="345" y="90"/>
      <point x="283" y="90" type="curve" smooth="yes"/>
    </contour>
    <contour>
      <point x="734" y="488" type="line"/>
      <point x="805" y="721" type="line"/>
      <point x="616" y="721" type="line"/>
      <point x="581" y="488" type="line"/>
    </contour>
  </outline>
</glyph>
<glyph name="Dcroat" format="1">
  <advance width="640"/>
  <unicode hex="0110"/>
  <note>
	Dcroat
  </note>
  <outline>
    <contour>
      <point x="339" y="0" type="line" smooth="yes"/>
      <point x="532" y="0"/>
      <point x="625" y="144"/>
      <point x="625" y="321" type="curve" smooth="yes"/>
      <point x="625" y="532"/>
      <point x="532" y="647"/>
      <point x="339" y="647" type="curve" smooth="yes"/>
      <point x="15" y="647" type="line"/>
      <point x="15" y="530" type="line"/>
      <point x="36" y="530" type="line" smooth="yes"/>
      <point x="64" y="530"/>
      <point x="77" y="516"/>
      <point x="77" y="493" type="curve" smooth="yes"/>
      <point x="77" y="380" type="line"/>
      <point x="15" y="380" type="line"/>
      <point x="15" y="263" type="line"/>
      <point x="77" y="263" type="line"/>
      <point x="77" y="156" type="line" smooth="yes"/>
      <point x="77" y="129"/>
      <point x="64" y="116"/>
      <point x="36" y="116" type="curve" smooth="yes"/>
      <point x="15" y="116" type="line"/>
      <point x="15" y="0" type="line"/>
    </contour>
    <contour>
      <point x="262" y="263" type="line"/>
      <point x="365" y="263" type="line"/>
      <point x="365" y="380" type="line"/>
      <point x="262" y="380" type="line"/>
      <point x="262" y="531" type="line"/>
      <point x="311" y="531" type="line" smooth="yes"/>
      <point x="414" y="531"/>
      <point x="442" y="456"/>
      <point x="442" y="321" type="curve" smooth="yes"/>
      <point x="442" y="190"/>
      <point x="414" y="116"/>
      <point x="311" y="116" type="curve" smooth="yes"/>
      <point x="262" y="116" type="line"/>
    </contour>
  </outline>
</glyph>
<glyph name="Emacron" format="1">
  <advance width="548"/>
  <unicode hex="0112"/>
  <note>
	Emacron
  </note>
  <outline>
    <contour>
      <point x="533" y="0" type="line"/>
      <point x="533" y="168" type="line"/>
      <point x="365" y="168" type="line"/>
      <point x="365" y="156" type="line" smooth="yes"/>
      <point x="365" y="129"/>
      <point x="352" y="116"/>
      <point x="324" y="116" type="curve" smooth="yes"/>
      <point x="262" y="116" type="line"/>
      <point x="262" y="265" type="line"/>
      <point x="377" y="265" type="line"/>
      <point x="377" y="381" type="line"/>
      <point x="262" y="381" type="line"/>
      <point x="262" y="531" type="line"/>
      <point x="324" y="531" type="line" smooth="yes"/>
      <point x="352" y="531"/>
      <point x="365" y="518"/>
      <point x="365" y="492" type="curve" smooth="yes"/>
      <point x="365" y="479" type="line"/>
      <point x="533" y="479" type="line"/>
      <point x="533" y="647" type="line"/>
      <point x="15" y="647" type="line"/>
      <point x="15" y="530" type="line"/>
      <point x="36" y="530" type="line" smooth="yes"/>
      <point x="64" y="530"/>
      <point x="77" y="516"/>
      <point x="77" y="493" type="curve" smooth="yes"/>
      <point x="77" y="156" type="line" smooth="yes"/>
      <point x="77" y="129"/>
      <point x="64" y="116"/>
      <point x="36" y="116" type="curve" smooth="yes"/>
      <point x="15" y="116" type="line"/>
      <point x="15" y="0" type="line"/>
    </contour>
    <contour>
      <point x="445" y="717" type="line"/>
      <point x="445" y="822" type="line"/>
      <point x="128" y="822" type="line"/>
      <point x="128" y="717" type="line"/>
    </contour>
  </outline>
</glyph>
<glyph name="emacron" format="1">
  <advance width="546"/>
  <unicode hex="0113"/>
  <note>
	emacron
  </note>
  <outline>
    <contour>
      <point x="397" y="-16"/>
      <point x="464" y="10"/>
      <point x="514" y="57" type="curve"/>
      <point x="514" y="146" type="line"/>
      <point x="361" y="146" type="line"/>
      <point x="361" y="106" type="line"/>
      <point x="339" y="96"/>
      <point x="319" y="93"/>
      <point x="295" y="93" type="curve" smooth="yes"/>
      <point x="223" y="93"/>
      <point x="200" y="124"/>
      <point x="200" y="203" type="curve"/>
      <point x="531" y="203" type="line"/>
      <point x="531" y="251" type="line" smooth="yes"/>
      <point x="531" y="394"/>
      <point x="448" y="495"/>
      <point x="278" y="495" type="curve" smooth="yes"/>
      <point x="112" y="495"/>
      <point x="15" y="415"/>
      <point x="15" y="237" type="curve" smooth="yes"/>
      <point x="15" y="67"/>
      <point x="121" y="-16"/>
      <point x="292" y="-16" type="curve" smooth="yes"/>
    </contour>
    <contour>
      <point x="200" y="353"/>
      <point x="225" y="385"/>
      <point x="274" y="385" type="curve" smooth="yes"/>
      <point x="320" y="385"/>
      <point x="347" y="353"/>
      <point x="347" y="299" type="curve"/>
      <point x="200" y="299" type="line"/>
    </contour>
    <contour>
      <point x="440" y="540" type="line"/>
      <point x="440" y="645" type="line"/>
      <point x="123" y="645" type="line"/>
      <point x="123" y="540" type="line"/>
    </contour>
  </outline>
</glyph>
<glyph name="Eogonek" format="1">
  <advance width="548"/>
  <unicode hex="0118"/>
  <note>
	Eogonek
  </note>
  <outline>
    <contour>
      <point x="533" y="0" type="line"/>
      <point x="533" y="168" type="line"/>
      <point x="365" y="168" type="line"/>
      <point x="365" y="156" type="line" smooth="yes"/>
      <point x="365" y="129"/>
      <point x="352" y="116"/>
      <point x="324" y="116" type="curve" smooth="yes"/>
      <point x="262" y="116" type="line"/>
      <point x="262" y="265" type="line"/>
      <point x="377" y="265" type="line"/>
      <point x="377" y="381" type="line"/>
      <point x="262" y="381" type="line"/>
      <point x="262" y="531" type="line"/>
      <point x="324" y="531" type="line" smooth="yes"/>
      <point x="352" y="531"/>
      <point x="365" y="518"/>
      <point x="365" y="492" type="curve" smooth="yes"/>
      <point x="365" y="479" type="line"/>
      <point x="533" y="479" type="line"/>
      <point x="533" y="647" type="line"/>
      <point x="15" y="647" type="line"/>
      <point x="15" y="530" type="line"/>
      <point x="36" y="530" type="line" smooth="yes"/>
      <point x="64" y="530"/>
      <point x="77" y="516"/>
      <point x="77" y="493" type="curve" smooth="yes"/>
      <point x="77" y="156" type="line" smooth="yes"/>
      <point x="77" y="129"/>
      <point x="64" y="116"/>
      <point x="36" y="116" type="curve" smooth="yes"/>
      <point x="15" y="116" type="line"/>
      <point x="15" y="0" type="line"/>
    </contour>
    <contour>
      <point x="468" y="-221"/>
      <point x="498" y="-214"/>
      <point x="529" y="-190" type="curve"/>
      <point x="529" y="-92" type="line"/>
      <point x="520" y="-97"/>
      <point x="508" y="-100"/>
      <point x="497" y="-100" type="curve" smooth="yes"/>
      <point x="478" y="-100"/>
      <point x="469" y="-86"/>
      <point x="469" y="-68" type="curve" smooth="yes"/>
      <point x="469" y="-41"/>
      <point x="484" y="-23"/>
      <point x="517" y="0" type="curve"/>
      <point x="366" y="0" type="line"/>
      <point x="333" y="-23"/>
      <point x="311" y="-72"/>
      <point x="311" y="-118" type="curve" smooth="yes"/>
      <point x="311" y="-192"/>
      <point x="365" y="-221"/>
      <point x="423" y="-221" type="curve" smooth="yes"/>
    </contour>
  </outline>
</glyph>
